<svg width="1920" height="1080" viewBox="0 0 1920 1080" fill="none" xmlns="http://www.w3.org/2000/svg">
<g clip-path="url(#clip0_67_34)">
<rect width="1920" height="1080" fill="white"/>
<path d="M976 875C1059.95 875 1128 806.723 1128 722.5C1128 638.277 1059.95 570 976 570C892.053 570 824 638.277 824 722.5C824 806.723 892.053 875 976 875Z" fill="#43AEFF"/>
<path d="M910.5 744C979.812 744 1036 687.812 1036 618.5C1036 549.188 979.812 493 910.5 493C841.188 493 785 549.188 785 618.5C785 687.812 841.188 744 910.5 744Z" fill="url(#paint0_linear_67_34)"/>
<g clip-path="url(#clip1_67_34)">
<path style="mix-blend-mode:screen" opacity="0.8" d="M823 708.8C845.514 729.983 875.875 743 909.292 743C978.715 743 1035 686.961 1035 617.841C1035 604.552 1032.91 591.759 1029.05 579.735C1012.29 573.442 994.137 569.984 975.161 569.984C895.286 570 829.754 631.034 823 708.8Z" fill="url(#paint1_linear_67_34)"/>
<path style="mix-blend-mode:screen" opacity="0.8" d="M823 708.8C845.514 729.983 875.875 743 909.292 743C978.715 743 1035 686.961 1035 617.841C1035 604.552 1032.91 591.759 1029.05 579.735C1012.29 573.442 994.137 569.984 975.161 569.984C895.286 570 829.754 631.034 823 708.8Z" fill="url(#paint2_linear_67_34)"/>
</g>
<g clip-path="url(#clip2_67_34)">
<path d="M3.12001 709.42C276.09 942.11 670.73 1002.95 995.5 844.25C1260.07 716.56 1422.93 466.71 1485.64 184.68C1492.72 152.77 1498.47 120.53 1502.48 88.1C1503.84 77.53 1504.86 66.56 1505.62 56L1536.26 57.08C1533.06 147.37 1516.02 236.79 1490.86 323.43C1419.9 567.44 1266.64 781.61 1041.99 905.93C859.94 1009.06 644.12 1048.1 436.64 1021.59C354.46 1011.51 272.29 990.54 194.76 961.26C97.56 923.86 5.84001 872.48 -76.99 808.66L3.13 709.43L3.12001 709.42Z" fill="#CECECE"/>
</g>
</g>
<defs>
<linearGradient id="paint0_linear_67_34" x1="785" y1="618.5" x2="1035.98" y2="618.5" gradientUnits="userSpaceOnUse">
<stop stop-color="#FE889C"/>
<stop offset="0.42" stop-color="#DC7ED1"/>
<stop offset="0.78" stop-color="#9E92E4"/>
<stop offset="1" stop-color="#43AEFF"/>
</linearGradient>
<linearGradient id="paint1_linear_67_34" x1="823" y1="656.492" x2="1035" y2="656.492" gradientUnits="userSpaceOnUse">
<stop stop-color="#FE889C"/>
<stop offset="0.42" stop-color="#DC7ED1"/>
<stop offset="0.78" stop-color="#9E92E4"/>
<stop offset="1" stop-color="#43AEFF"/>
</linearGradient>
<linearGradient id="paint2_linear_67_34" x1="823" y1="656.492" x2="1035" y2="656.492" gradientUnits="userSpaceOnUse">
<stop stop-color="#FE889C"/>
<stop offset="0.42" stop-color="#DC7ED1"/>
<stop offset="0.78" stop-color="#9E92E4"/>
<stop offset="1" stop-color="#43AEFF"/>
</linearGradient>
<clipPath id="clip0_67_34">
<rect width="1920" height="1080" fill="white"/>
</clipPath>
<clipPath id="clip1_67_34">
<rect width="212" height="173" fill="white" transform="translate(823 570)"/>
</clipPath>
<clipPath id="clip2_67_34">
<rect width="1613.25" height="973.65" fill="white" transform="translate(-77 56)"/>
</clipPath>
</defs>
</svg>
