<svg width="333" height="427" viewBox="0 0 333 427" fill="none" xmlns="http://www.w3.org/2000/svg">
<path d="M117.396 399V390.797H114.679V389.9H121.205V390.797H118.488V399H117.396ZM124.192 399.156C123.69 399.156 123.248 399.056 122.866 398.857C122.494 398.649 122.203 398.337 121.995 397.921C121.787 397.496 121.683 396.963 121.683 396.322V392.552H122.775V396.205C122.775 396.872 122.914 397.375 123.191 397.713C123.469 398.051 123.885 398.22 124.439 398.22C124.994 398.22 125.453 398.021 125.817 397.622C126.19 397.215 126.376 396.638 126.376 395.893V392.552H127.468V399H126.48L126.415 397.843C126.207 398.25 125.908 398.571 125.518 398.805C125.128 399.039 124.686 399.156 124.192 399.156ZM129.266 399V392.552H130.254L130.345 393.787C130.544 393.362 130.847 393.024 131.255 392.773C131.662 392.522 132.165 392.396 132.763 392.396V393.54H132.464C131.753 393.54 131.224 393.731 130.878 394.112C130.531 394.493 130.358 395.039 130.358 395.75V399H129.266ZM133.988 399V392.552H134.976L135.041 393.709C135.249 393.302 135.548 392.981 135.938 392.747C136.328 392.513 136.77 392.396 137.264 392.396C138.027 392.396 138.634 392.63 139.084 393.098C139.544 393.557 139.773 394.268 139.773 395.23V399H138.681V395.347C138.681 394.68 138.543 394.177 138.265 393.839C137.988 393.501 137.572 393.332 137.017 393.332C136.463 393.332 135.999 393.536 135.626 393.943C135.262 394.342 135.08 394.914 135.08 395.659V399H133.988ZM144.881 399V392.552H145.869L145.96 393.787C146.159 393.362 146.463 393.024 146.87 392.773C147.277 392.522 147.78 392.396 148.378 392.396V393.54H148.079C147.368 393.54 146.84 393.731 146.493 394.112C146.146 394.493 145.973 395.039 145.973 395.75V399H144.881ZM151.749 399.156C151.307 399.156 150.904 399.082 150.54 398.935C150.176 398.788 149.885 398.567 149.669 398.272C149.461 397.969 149.357 397.6 149.357 397.167C149.357 396.664 149.487 396.266 149.747 395.971C150.007 395.668 150.349 395.451 150.774 395.321C151.207 395.182 151.671 395.113 152.165 395.113H153.907C153.907 394.662 153.829 394.307 153.673 394.047C153.525 393.787 153.33 393.601 153.088 393.488C152.845 393.375 152.576 393.319 152.282 393.319C151.857 393.319 151.489 393.423 151.177 393.631C150.873 393.83 150.683 394.142 150.605 394.567H149.487C149.53 394.099 149.686 393.705 149.955 393.384C150.223 393.063 150.561 392.821 150.969 392.656C151.385 392.483 151.822 392.396 152.282 392.396C152.932 392.396 153.456 392.517 153.855 392.76C154.253 392.994 154.544 393.31 154.726 393.709C154.908 394.108 154.999 394.55 154.999 395.035V397.011C154.999 397.332 155.038 397.574 155.116 397.739C155.194 397.904 155.393 398.003 155.714 398.038V399C155.428 399 155.168 398.965 154.934 398.896C154.7 398.818 154.5 398.697 154.336 398.532C154.18 398.359 154.067 398.133 153.998 397.856C153.781 398.22 153.482 398.528 153.101 398.779C152.728 399.03 152.277 399.156 151.749 399.156ZM151.918 398.233C152.351 398.233 152.715 398.125 153.01 397.908C153.304 397.683 153.525 397.397 153.673 397.05C153.829 396.703 153.907 396.344 153.907 395.971V395.958H152.256C151.952 395.958 151.666 395.993 151.398 396.062C151.129 396.123 150.912 396.24 150.748 396.413C150.583 396.578 150.501 396.812 150.501 397.115C150.501 397.505 150.639 397.791 150.917 397.973C151.194 398.146 151.528 398.233 151.918 398.233ZM158.203 399L156.318 392.552H157.41L158.775 397.609L160.283 392.552H161.518L163.039 397.609L164.391 392.552H165.496L163.611 399H162.493L160.907 393.683L159.321 399H158.203ZM172.615 399.156C172.103 399.156 171.644 399.069 171.237 398.896C170.829 398.714 170.5 398.463 170.249 398.142C170.006 397.813 169.854 397.427 169.794 396.985H170.912C170.981 397.323 171.159 397.618 171.445 397.869C171.739 398.112 172.134 398.233 172.628 398.233C173.087 398.233 173.425 398.138 173.642 397.947C173.858 397.748 173.967 397.514 173.967 397.245C173.967 396.985 173.902 396.786 173.772 396.647C173.65 396.508 173.468 396.404 173.226 396.335C172.992 396.257 172.701 396.183 172.355 396.114C171.991 396.036 171.635 395.932 171.289 395.802C170.942 395.663 170.656 395.477 170.431 395.243C170.205 395.009 170.093 394.701 170.093 394.32C170.093 393.939 170.188 393.605 170.379 393.319C170.569 393.033 170.838 392.808 171.185 392.643C171.54 392.478 171.956 392.396 172.433 392.396C173.117 392.396 173.676 392.569 174.11 392.916C174.552 393.254 174.807 393.739 174.877 394.372H173.798C173.754 394.043 173.611 393.787 173.369 393.605C173.135 393.414 172.818 393.319 172.42 393.319C172.03 393.319 171.726 393.401 171.51 393.566C171.302 393.731 171.198 393.947 171.198 394.216C171.198 394.389 171.258 394.537 171.38 394.658C171.501 394.779 171.674 394.883 171.9 394.97C172.134 395.057 172.407 395.135 172.719 395.204C173.152 395.291 173.546 395.399 173.902 395.529C174.257 395.659 174.543 395.85 174.76 396.101C174.976 396.344 175.085 396.695 175.085 397.154C175.093 397.535 174.994 397.878 174.786 398.181C174.586 398.484 174.3 398.723 173.928 398.896C173.564 399.069 173.126 399.156 172.615 399.156ZM177.308 391.122C177.091 391.122 176.909 391.053 176.762 390.914C176.623 390.767 176.554 390.585 176.554 390.368C176.554 390.16 176.623 389.987 176.762 389.848C176.909 389.709 177.091 389.64 177.308 389.64C177.516 389.64 177.693 389.709 177.841 389.848C177.988 389.987 178.062 390.16 178.062 390.368C178.062 390.585 177.988 390.767 177.841 390.914C177.693 391.053 177.516 391.122 177.308 391.122ZM176.762 399V392.552H177.854V399H176.762ZM182.316 402.016C181.805 402.016 181.315 401.951 180.847 401.821C180.379 401.691 179.998 401.47 179.703 401.158C179.417 400.855 179.274 400.447 179.274 399.936C179.274 399.581 179.356 399.286 179.521 399.052C179.686 398.818 179.902 398.64 180.171 398.519C179.963 398.398 179.794 398.246 179.664 398.064C179.534 397.882 179.469 397.674 179.469 397.44C179.469 396.92 179.703 396.5 180.171 396.179C179.998 395.98 179.859 395.759 179.755 395.516C179.66 395.265 179.612 394.987 179.612 394.684C179.612 394.207 179.72 393.8 179.937 393.462C180.162 393.115 180.466 392.851 180.847 392.669C181.237 392.487 181.679 392.396 182.173 392.396C182.537 392.396 182.879 392.448 183.2 392.552H185.397V393.475H184.396C184.509 393.648 184.591 393.839 184.643 394.047C184.704 394.246 184.734 394.459 184.734 394.684C184.734 395.178 184.617 395.594 184.383 395.932C184.158 396.27 183.85 396.53 183.46 396.712C183.079 396.885 182.65 396.972 182.173 396.972C181.93 396.972 181.709 396.946 181.51 396.894C181.311 396.842 181.111 396.768 180.912 396.673C180.687 396.786 180.574 396.959 180.574 397.193C180.574 397.626 180.938 397.843 181.666 397.843H182.745C183.23 397.843 183.659 397.908 184.032 398.038C184.405 398.159 184.695 398.363 184.903 398.649C185.12 398.926 185.228 399.308 185.228 399.793C185.228 400.287 185.089 400.699 184.812 401.028C184.535 401.357 184.175 401.604 183.733 401.769C183.291 401.934 182.819 402.016 182.316 402.016ZM182.29 401.106C182.81 401.106 183.252 401.006 183.616 400.807C183.98 400.616 184.162 400.322 184.162 399.923C184.162 399.178 183.711 398.805 182.81 398.805H181.705C181.28 398.805 180.947 398.896 180.704 399.078C180.461 399.269 180.34 399.55 180.34 399.923C180.34 400.209 180.431 400.439 180.613 400.612C180.795 400.785 181.033 400.911 181.328 400.989C181.623 401.067 181.943 401.106 182.29 401.106ZM182.147 396.062C182.598 396.062 182.966 395.932 183.252 395.672C183.538 395.412 183.681 395.083 183.681 394.684C183.681 394.285 183.538 393.956 183.252 393.696C182.966 393.436 182.598 393.306 182.147 393.306C181.696 393.306 181.332 393.436 181.055 393.696C180.786 393.956 180.652 394.285 180.652 394.684C180.652 395.083 180.782 395.412 181.042 395.672C181.311 395.932 181.679 396.062 182.147 396.062ZM186.636 399V392.552H187.624L187.689 393.709C187.897 393.302 188.196 392.981 188.586 392.747C188.976 392.513 189.418 392.396 189.912 392.396C190.674 392.396 191.281 392.63 191.732 393.098C192.191 393.557 192.421 394.268 192.421 395.23V399H191.329V395.347C191.329 394.68 191.19 394.177 190.913 393.839C190.635 393.501 190.219 393.332 189.665 393.332C189.11 393.332 188.646 393.536 188.274 393.943C187.91 394.342 187.728 394.914 187.728 395.659V399H186.636ZM196.233 399.156C195.791 399.156 195.388 399.082 195.024 398.935C194.66 398.788 194.37 398.567 194.153 398.272C193.945 397.969 193.841 397.6 193.841 397.167C193.841 396.664 193.971 396.266 194.231 395.971C194.491 395.668 194.833 395.451 195.258 395.321C195.691 395.182 196.155 395.113 196.649 395.113H198.391C198.391 394.662 198.313 394.307 198.157 394.047C198.01 393.787 197.815 393.601 197.572 393.488C197.329 393.375 197.061 393.319 196.766 393.319C196.341 393.319 195.973 393.423 195.661 393.631C195.358 393.83 195.167 394.142 195.089 394.567H193.971C194.014 394.099 194.17 393.705 194.439 393.384C194.708 393.063 195.046 392.821 195.453 392.656C195.869 392.483 196.307 392.396 196.766 392.396C197.416 392.396 197.94 392.517 198.339 392.76C198.738 392.994 199.028 393.31 199.21 393.709C199.392 394.108 199.483 394.55 199.483 395.035V397.011C199.483 397.332 199.522 397.574 199.6 397.739C199.678 397.904 199.877 398.003 200.198 398.038V399C199.912 399 199.652 398.965 199.418 398.896C199.184 398.818 198.985 398.697 198.82 398.532C198.664 398.359 198.551 398.133 198.482 397.856C198.265 398.22 197.966 398.528 197.585 398.779C197.212 399.03 196.762 399.156 196.233 399.156ZM196.402 398.233C196.835 398.233 197.199 398.125 197.494 397.908C197.789 397.683 198.01 397.397 198.157 397.05C198.313 396.703 198.391 396.344 198.391 395.971V395.958H196.74C196.437 395.958 196.151 395.993 195.882 396.062C195.613 396.123 195.397 396.24 195.232 396.413C195.067 396.578 194.985 396.812 194.985 397.115C194.985 397.505 195.124 397.791 195.401 397.973C195.678 398.146 196.012 398.233 196.402 398.233ZM201.515 399V389.9H202.607V399H201.515ZM206.867 399.156C206.355 399.156 205.896 399.069 205.489 398.896C205.081 398.714 204.752 398.463 204.501 398.142C204.258 397.813 204.106 397.427 204.046 396.985H205.164C205.233 397.323 205.411 397.618 205.697 397.869C205.991 398.112 206.386 398.233 206.88 398.233C207.339 398.233 207.677 398.138 207.894 397.947C208.11 397.748 208.219 397.514 208.219 397.245C208.219 396.985 208.154 396.786 208.024 396.647C207.902 396.508 207.72 396.404 207.478 396.335C207.244 396.257 206.953 396.183 206.607 396.114C206.243 396.036 205.887 395.932 205.541 395.802C205.194 395.663 204.908 395.477 204.683 395.243C204.457 395.009 204.345 394.701 204.345 394.32C204.345 393.939 204.44 393.605 204.631 393.319C204.821 393.033 205.09 392.808 205.437 392.643C205.792 392.478 206.208 392.396 206.685 392.396C207.369 392.396 207.928 392.569 208.362 392.916C208.804 393.254 209.059 393.739 209.129 394.372H208.05C208.006 394.043 207.863 393.787 207.621 393.605C207.387 393.414 207.07 393.319 206.672 393.319C206.282 393.319 205.978 393.401 205.762 393.566C205.554 393.731 205.45 393.947 205.45 394.216C205.45 394.389 205.51 394.537 205.632 394.658C205.753 394.779 205.926 394.883 206.152 394.97C206.386 395.057 206.659 395.135 206.971 395.204C207.404 395.291 207.798 395.399 208.154 395.529C208.509 395.659 208.795 395.85 209.012 396.101C209.228 396.344 209.337 396.695 209.337 397.154C209.345 397.535 209.246 397.878 209.038 398.181C208.838 398.484 208.552 398.723 208.18 398.896C207.816 399.069 207.378 399.156 206.867 399.156ZM215 391.122C214.783 391.122 214.601 391.053 214.454 390.914C214.315 390.767 214.246 390.585 214.246 390.368C214.246 390.16 214.315 389.987 214.454 389.848C214.601 389.709 214.783 389.64 215 389.64C215.208 389.64 215.386 389.709 215.533 389.848C215.68 389.987 215.754 390.16 215.754 390.368C215.754 390.585 215.68 390.767 215.533 390.914C215.386 391.053 215.208 391.122 215 391.122ZM214.454 399V392.552H215.546V399H214.454ZM217.447 399V392.552H218.435L218.5 393.709C218.708 393.302 219.007 392.981 219.397 392.747C219.787 392.513 220.229 392.396 220.723 392.396C221.486 392.396 222.093 392.63 222.543 393.098C223.003 393.557 223.232 394.268 223.232 395.23V399H222.14V395.347C222.14 394.68 222.002 394.177 221.724 393.839C221.447 393.501 221.031 393.332 220.476 393.332C219.922 393.332 219.458 393.536 219.085 393.943C218.721 394.342 218.539 394.914 218.539 395.659V399H217.447ZM227.447 399C226.858 399 226.394 398.857 226.056 398.571C225.718 398.285 225.549 397.769 225.549 397.024V393.475H224.431V392.552H225.549V391.005H226.641V392.552H228.448V393.475H226.641V397.024C226.641 397.431 226.724 397.709 226.888 397.856C227.053 397.995 227.343 398.064 227.759 398.064H228.448V399H227.447ZM232.726 399.156C232.137 399.156 231.595 399.026 231.101 398.766C230.607 398.497 230.213 398.112 229.918 397.609C229.623 397.098 229.476 396.482 229.476 395.763C229.476 395.078 229.619 394.485 229.905 393.982C230.2 393.479 230.594 393.089 231.088 392.812C231.591 392.535 232.154 392.396 232.778 392.396C233.376 392.396 233.922 392.526 234.416 392.786C234.919 393.046 235.322 393.427 235.625 393.93C235.928 394.433 236.08 395.044 236.08 395.763C236.08 396.422 235.937 397.007 235.651 397.518C235.365 398.029 234.966 398.432 234.455 398.727C233.952 399.013 233.376 399.156 232.726 399.156ZM232.726 398.207C233.151 398.207 233.532 398.107 233.87 397.908C234.208 397.7 234.477 397.414 234.676 397.05C234.875 396.686 234.975 396.257 234.975 395.763C234.975 395.295 234.888 394.879 234.715 394.515C234.542 394.151 234.29 393.865 233.961 393.657C233.632 393.449 233.233 393.345 232.765 393.345C232.288 393.345 231.885 393.453 231.556 393.67C231.235 393.887 230.993 394.177 230.828 394.541C230.663 394.905 230.581 395.312 230.581 395.763C230.581 396.335 230.685 396.803 230.893 397.167C231.101 397.522 231.37 397.787 231.699 397.96C232.028 398.125 232.371 398.207 232.726 398.207ZM131.006 416.156C130.494 416.156 130.035 416.069 129.628 415.896C129.22 415.714 128.891 415.463 128.64 415.142C128.397 414.813 128.245 414.427 128.185 413.985H129.303C129.372 414.323 129.55 414.618 129.836 414.869C130.13 415.112 130.525 415.233 131.019 415.233C131.478 415.233 131.816 415.138 132.033 414.947C132.249 414.748 132.358 414.514 132.358 414.245C132.358 413.985 132.293 413.786 132.163 413.647C132.041 413.508 131.859 413.404 131.617 413.335C131.383 413.257 131.092 413.183 130.746 413.114C130.382 413.036 130.026 412.932 129.68 412.802C129.333 412.663 129.047 412.477 128.822 412.243C128.596 412.009 128.484 411.701 128.484 411.32C128.484 410.939 128.579 410.605 128.77 410.319C128.96 410.033 129.229 409.808 129.576 409.643C129.931 409.478 130.347 409.396 130.824 409.396C131.508 409.396 132.067 409.569 132.501 409.916C132.943 410.254 133.198 410.739 133.268 411.372H132.189C132.145 411.043 132.002 410.787 131.76 410.605C131.526 410.414 131.209 410.319 130.811 410.319C130.421 410.319 130.117 410.401 129.901 410.566C129.693 410.731 129.589 410.947 129.589 411.216C129.589 411.389 129.649 411.537 129.771 411.658C129.892 411.779 130.065 411.883 130.291 411.97C130.525 412.057 130.798 412.135 131.11 412.204C131.543 412.291 131.937 412.399 132.293 412.529C132.648 412.659 132.934 412.85 133.151 413.101C133.367 413.344 133.476 413.695 133.476 414.154C133.484 414.535 133.385 414.878 133.177 415.181C132.977 415.484 132.691 415.723 132.319 415.896C131.955 416.069 131.517 416.156 131.006 416.156ZM137.292 416C136.702 416 136.239 415.857 135.901 415.571C135.563 415.285 135.394 414.769 135.394 414.024V410.475H134.276V409.552H135.394V408.005H136.486V409.552H138.293V410.475H136.486V414.024C136.486 414.431 136.568 414.709 136.733 414.856C136.897 414.995 137.188 415.064 137.604 415.064H138.293V416H137.292ZM139.771 416V409.552H140.759L140.85 410.787C141.049 410.362 141.353 410.024 141.76 409.773C142.167 409.522 142.67 409.396 143.268 409.396V410.54H142.969C142.258 410.54 141.73 410.731 141.383 411.112C141.036 411.493 140.863 412.039 140.863 412.75V416H139.771ZM146.639 416.156C146.197 416.156 145.794 416.082 145.43 415.935C145.066 415.788 144.775 415.567 144.559 415.272C144.351 414.969 144.247 414.6 144.247 414.167C144.247 413.664 144.377 413.266 144.637 412.971C144.897 412.668 145.239 412.451 145.664 412.321C146.097 412.182 146.561 412.113 147.055 412.113H148.797C148.797 411.662 148.719 411.307 148.563 411.047C148.415 410.787 148.22 410.601 147.978 410.488C147.735 410.375 147.466 410.319 147.172 410.319C146.747 410.319 146.379 410.423 146.067 410.631C145.763 410.83 145.573 411.142 145.495 411.567H144.377C144.42 411.099 144.576 410.705 144.845 410.384C145.113 410.063 145.451 409.821 145.859 409.656C146.275 409.483 146.712 409.396 147.172 409.396C147.822 409.396 148.346 409.517 148.745 409.76C149.143 409.994 149.434 410.31 149.616 410.709C149.798 411.108 149.889 411.55 149.889 412.035V414.011C149.889 414.332 149.928 414.574 150.006 414.739C150.084 414.904 150.283 415.003 150.604 415.038V416C150.318 416 150.058 415.965 149.824 415.896C149.59 415.818 149.39 415.697 149.226 415.532C149.07 415.359 148.957 415.133 148.888 414.856C148.671 415.22 148.372 415.528 147.991 415.779C147.618 416.03 147.167 416.156 146.639 416.156ZM146.808 415.233C147.241 415.233 147.605 415.125 147.9 414.908C148.194 414.683 148.415 414.397 148.563 414.05C148.719 413.703 148.797 413.344 148.797 412.971V412.958H147.146C146.842 412.958 146.556 412.993 146.288 413.062C146.019 413.123 145.802 413.24 145.638 413.413C145.473 413.578 145.391 413.812 145.391 414.115C145.391 414.505 145.529 414.791 145.807 414.973C146.084 415.146 146.418 415.233 146.808 415.233ZM154.291 416C153.701 416 153.238 415.857 152.9 415.571C152.562 415.285 152.393 414.769 152.393 414.024V410.475H151.275V409.552H152.393V408.005H153.485V409.552H155.292V410.475H153.485V414.024C153.485 414.431 153.567 414.709 153.732 414.856C153.896 414.995 154.187 415.064 154.603 415.064H155.292V416H154.291ZM159.491 416.156C158.893 416.156 158.352 416.017 157.866 415.74C157.39 415.463 157.013 415.073 156.735 414.57C156.458 414.059 156.319 413.461 156.319 412.776C156.319 412.1 156.449 411.511 156.709 411.008C156.978 410.497 157.351 410.102 157.827 409.825C158.313 409.539 158.876 409.396 159.517 409.396C160.124 409.396 160.653 409.53 161.103 409.799C161.554 410.068 161.905 410.432 162.156 410.891C162.416 411.342 162.546 411.849 162.546 412.412C162.546 412.533 162.546 412.629 162.546 412.698C162.546 412.767 162.542 412.876 162.533 413.023H157.398C157.424 413.448 157.524 413.829 157.697 414.167C157.879 414.496 158.122 414.756 158.425 414.947C158.737 415.138 159.093 415.233 159.491 415.233C159.942 415.233 160.319 415.129 160.622 414.921C160.926 414.713 161.147 414.431 161.285 414.076H162.364C162.252 414.475 162.065 414.83 161.805 415.142C161.545 415.454 161.22 415.701 160.83 415.883C160.449 416.065 160.003 416.156 159.491 416.156ZM157.411 412.178H161.467C161.441 411.597 161.242 411.142 160.869 410.813C160.497 410.484 160.037 410.319 159.491 410.319C158.971 410.319 158.508 410.479 158.1 410.8C157.702 411.112 157.472 411.571 157.411 412.178ZM166.555 419.016C166.043 419.016 165.554 418.951 165.086 418.821C164.618 418.691 164.236 418.47 163.942 418.158C163.656 417.855 163.513 417.447 163.513 416.936C163.513 416.581 163.595 416.286 163.76 416.052C163.924 415.818 164.141 415.64 164.41 415.519C164.202 415.398 164.033 415.246 163.903 415.064C163.773 414.882 163.708 414.674 163.708 414.44C163.708 413.92 163.942 413.5 164.41 413.179C164.236 412.98 164.098 412.759 163.994 412.516C163.898 412.265 163.851 411.987 163.851 411.684C163.851 411.207 163.959 410.8 164.176 410.462C164.401 410.115 164.704 409.851 165.086 409.669C165.476 409.487 165.918 409.396 166.412 409.396C166.776 409.396 167.118 409.448 167.439 409.552H169.636V410.475H168.635C168.747 410.648 168.83 410.839 168.882 411.047C168.942 411.246 168.973 411.459 168.973 411.684C168.973 412.178 168.856 412.594 168.622 412.932C168.396 413.27 168.089 413.53 167.699 413.712C167.317 413.885 166.888 413.972 166.412 413.972C166.169 413.972 165.948 413.946 165.749 413.894C165.549 413.842 165.35 413.768 165.151 413.673C164.925 413.786 164.813 413.959 164.813 414.193C164.813 414.626 165.177 414.843 165.905 414.843H166.984C167.469 414.843 167.898 414.908 168.271 415.038C168.643 415.159 168.934 415.363 169.142 415.649C169.358 415.926 169.467 416.308 169.467 416.793C169.467 417.287 169.328 417.699 169.051 418.028C168.773 418.357 168.414 418.604 167.972 418.769C167.53 418.934 167.057 419.016 166.555 419.016ZM166.529 418.106C167.049 418.106 167.491 418.006 167.855 417.807C168.219 417.616 168.401 417.322 168.401 416.923C168.401 416.178 167.95 415.805 167.049 415.805H165.944C165.519 415.805 165.185 415.896 164.943 416.078C164.7 416.269 164.579 416.55 164.579 416.923C164.579 417.209 164.67 417.439 164.852 417.612C165.034 417.785 165.272 417.911 165.567 417.989C165.861 418.067 166.182 418.106 166.529 418.106ZM166.386 413.062C166.836 413.062 167.205 412.932 167.491 412.672C167.777 412.412 167.92 412.083 167.92 411.684C167.92 411.285 167.777 410.956 167.491 410.696C167.205 410.436 166.836 410.306 166.386 410.306C165.935 410.306 165.571 410.436 165.294 410.696C165.025 410.956 164.891 411.285 164.891 411.684C164.891 412.083 165.021 412.412 165.281 412.672C165.549 412.932 165.918 413.062 166.386 413.062ZM171.538 408.122C171.321 408.122 171.139 408.053 170.992 407.914C170.853 407.767 170.784 407.585 170.784 407.368C170.784 407.16 170.853 406.987 170.992 406.848C171.139 406.709 171.321 406.64 171.538 406.64C171.746 406.64 171.923 406.709 172.071 406.848C172.218 406.987 172.292 407.16 172.292 407.368C172.292 407.585 172.218 407.767 172.071 407.914C171.923 408.053 171.746 408.122 171.538 408.122ZM170.992 416V409.552H172.084V416H170.992ZM176.949 416.156C176.342 416.156 175.792 416.017 175.298 415.74C174.813 415.463 174.427 415.073 174.141 414.57C173.855 414.059 173.712 413.461 173.712 412.776C173.712 412.109 173.851 411.524 174.128 411.021C174.405 410.51 174.787 410.111 175.272 409.825C175.757 409.539 176.316 409.396 176.949 409.396C177.712 409.396 178.353 409.595 178.873 409.994C179.402 410.393 179.735 410.926 179.874 411.593H178.756C178.669 411.194 178.457 410.887 178.119 410.67C177.781 410.445 177.387 410.332 176.936 410.332C176.477 410.332 176.091 410.445 175.779 410.67C175.467 410.895 175.229 411.194 175.064 411.567C174.908 411.94 174.83 412.343 174.83 412.776C174.83 413.253 174.921 413.677 175.103 414.05C175.285 414.423 175.532 414.713 175.844 414.921C176.165 415.129 176.529 415.233 176.936 415.233C177.387 415.233 177.781 415.125 178.119 414.908C178.457 414.683 178.669 414.366 178.756 413.959H179.874C179.787 414.392 179.61 414.774 179.341 415.103C179.072 415.432 178.734 415.692 178.327 415.883C177.92 416.065 177.46 416.156 176.949 416.156ZM187.803 416.156C187.197 416.156 186.646 416.017 186.152 415.74C185.667 415.463 185.281 415.073 184.995 414.57C184.709 414.059 184.566 413.461 184.566 412.776C184.566 412.109 184.705 411.524 184.982 411.021C185.26 410.51 185.641 410.111 186.126 409.825C186.612 409.539 187.171 409.396 187.803 409.396C188.566 409.396 189.207 409.595 189.727 409.994C190.256 410.393 190.59 410.926 190.728 411.593H189.61C189.524 411.194 189.311 410.887 188.973 410.67C188.635 410.445 188.241 410.332 187.79 410.332C187.331 410.332 186.945 410.445 186.633 410.67C186.321 410.895 186.083 411.194 185.918 411.567C185.762 411.94 185.684 412.343 185.684 412.776C185.684 413.253 185.775 413.677 185.957 414.05C186.139 414.423 186.386 414.713 186.698 414.921C187.019 415.129 187.383 415.233 187.79 415.233C188.241 415.233 188.635 415.125 188.973 414.908C189.311 414.683 189.524 414.366 189.61 413.959H190.728C190.642 414.392 190.464 414.774 190.195 415.103C189.927 415.432 189.589 415.692 189.181 415.883C188.774 416.065 188.315 416.156 187.803 416.156ZM192.253 416V406.9H193.345V416H192.253ZM197.28 416.156C196.838 416.156 196.435 416.082 196.071 415.935C195.707 415.788 195.417 415.567 195.2 415.272C194.992 414.969 194.888 414.6 194.888 414.167C194.888 413.664 195.018 413.266 195.278 412.971C195.538 412.668 195.881 412.451 196.305 412.321C196.739 412.182 197.202 412.113 197.696 412.113H199.438C199.438 411.662 199.36 411.307 199.204 411.047C199.057 410.787 198.862 410.601 198.619 410.488C198.377 410.375 198.108 410.319 197.813 410.319C197.389 410.319 197.02 410.423 196.708 410.631C196.405 410.83 196.214 411.142 196.136 411.567H195.018C195.062 411.099 195.218 410.705 195.486 410.384C195.755 410.063 196.093 409.821 196.5 409.656C196.916 409.483 197.354 409.396 197.813 409.396C198.463 409.396 198.988 409.517 199.386 409.76C199.785 409.994 200.075 410.31 200.257 410.709C200.439 411.108 200.53 411.55 200.53 412.035V414.011C200.53 414.332 200.569 414.574 200.647 414.739C200.725 414.904 200.925 415.003 201.245 415.038V416C200.959 416 200.699 415.965 200.465 415.896C200.231 415.818 200.032 415.697 199.867 415.532C199.711 415.359 199.599 415.133 199.529 414.856C199.313 415.22 199.014 415.528 198.632 415.779C198.26 416.03 197.809 416.156 197.28 416.156ZM197.449 415.233C197.883 415.233 198.247 415.125 198.541 414.908C198.836 414.683 199.057 414.397 199.204 414.05C199.36 413.703 199.438 413.344 199.438 412.971V412.958H197.787C197.484 412.958 197.198 412.993 196.929 413.062C196.661 413.123 196.444 413.24 196.279 413.413C196.115 413.578 196.032 413.812 196.032 414.115C196.032 414.505 196.171 414.791 196.448 414.973C196.726 415.146 197.059 415.233 197.449 415.233ZM202.562 416V409.552H203.55L203.641 410.787C203.84 410.362 204.144 410.024 204.551 409.773C204.958 409.522 205.461 409.396 206.059 409.396V410.54H205.76C205.049 410.54 204.521 410.731 204.174 411.112C203.827 411.493 203.654 412.039 203.654 412.75V416H202.562ZM207.948 408.122C207.731 408.122 207.549 408.053 207.402 407.914C207.263 407.767 207.194 407.585 207.194 407.368C207.194 407.16 207.263 406.987 207.402 406.848C207.549 406.709 207.731 406.64 207.948 406.64C208.156 406.64 208.333 406.709 208.481 406.848C208.628 406.987 208.702 407.16 208.702 407.368C208.702 407.585 208.628 407.767 208.481 407.914C208.333 408.053 208.156 408.122 207.948 408.122ZM207.402 416V409.552H208.494V416H207.402ZM212.943 416C212.354 416 211.89 415.857 211.552 415.571C211.214 415.285 211.045 414.769 211.045 414.024V410.475H209.927V409.552H211.045V408.005H212.137V409.552H213.944V410.475H212.137V414.024C212.137 414.431 212.219 414.709 212.384 414.856C212.549 414.995 212.839 415.064 213.255 415.064H213.944V416H212.943ZM216.124 418.86L217.554 415.74L214.785 409.552H215.968L218.1 414.57L220.362 409.552H221.493L217.268 418.86H216.124ZM222.096 416.065C221.88 416.065 221.698 415.996 221.55 415.857C221.412 415.71 221.342 415.532 221.342 415.324C221.342 415.116 221.412 414.943 221.55 414.804C221.698 414.657 221.88 414.583 222.096 414.583C222.304 414.583 222.478 414.657 222.616 414.804C222.764 414.943 222.837 415.116 222.837 415.324C222.837 415.532 222.764 415.71 222.616 415.857C222.478 415.996 222.304 416.065 222.096 416.065Z" fill="black"/>
<g clip-path="url(#clip0_71_23)">
<path style="mix-blend-mode:screen" d="M178.68 276.22C225.867 276.22 264.12 237.967 264.12 190.78C264.12 143.593 225.867 105.34 178.68 105.34C131.493 105.34 93.24 143.593 93.24 190.78C93.24 237.967 131.493 276.22 178.68 276.22Z" stroke="url(#paint0_linear_71_23)" stroke-miterlimit="10"/>
<path d="M178.68 308.89V62.36" stroke="#9B9B9B" stroke-miterlimit="10"/>
<path d="M178.68 224.03C197.044 224.03 211.93 209.143 211.93 190.78C211.93 172.417 197.044 157.53 178.68 157.53C160.317 157.53 145.43 172.417 145.43 190.78C145.43 209.143 160.317 224.03 178.68 224.03Z" fill="#43AEFF"/>
<path d="M242.01 137.28C244.6 137.28 246.7 135.18 246.7 132.59C246.7 130 244.6 127.9 242.01 127.9C239.42 127.9 237.32 130 237.32 132.59C237.32 135.18 239.42 137.28 242.01 137.28Z" fill="#DC7CD1"/>
<path d="M93.23 208.47C97.7311 208.47 101.38 204.821 101.38 200.32C101.38 195.819 97.7311 192.17 93.23 192.17C88.7288 192.17 85.08 195.819 85.08 200.32C85.08 204.821 88.7288 208.47 93.23 208.47Z" fill="#DC7CD1"/>
<path style="mix-blend-mode:screen" opacity="0.8" d="M178.68 200.32C189.803 200.32 198.82 191.303 198.82 180.18C198.82 169.057 189.803 160.04 178.68 160.04C167.557 160.04 158.54 169.057 158.54 180.18C158.54 191.303 167.557 200.32 178.68 200.32Z" fill="url(#paint1_linear_71_23)"/>
<path d="M191.62 76.26C191.62 83.41 185.82 89.2 178.68 89.2C171.54 89.2 165.74 83.4 165.74 76.26C165.74 69.12 171.54 63.32 178.68 63.32C185.82 63.32 191.62 69.12 191.62 76.26ZM178.68 32.34C174.12 32.34 170.42 36.04 170.42 40.6C170.42 45.16 174.12 48.86 178.68 48.86C183.24 48.86 186.94 45.16 186.94 40.6C186.94 36.04 183.24 32.34 178.68 32.34ZM178.68 11.47C176.9 11.47 175.45 12.92 175.45 14.7C175.45 16.48 176.9 17.93 178.68 17.93C180.46 17.93 181.91 16.48 181.91 14.7C181.91 12.92 180.46 11.47 178.68 11.47ZM178.68 0C176.9 0 175.45 1.45 175.45 3.23C175.45 5.01 176.9 6.46 178.68 6.46C180.46 6.46 181.91 5.01 181.91 3.23C181.91 1.45 180.46 0 178.68 0ZM178.68 292.36C174.12 292.36 170.42 296.06 170.42 300.62C170.42 305.18 174.12 308.88 178.68 308.88C183.24 308.88 186.94 305.18 186.94 300.62C186.94 296.06 183.24 292.36 178.68 292.36ZM178.68 351.85C174.12 351.85 170.42 355.55 170.42 360.11C170.42 364.67 174.12 368.37 178.68 368.37C183.24 368.37 186.94 364.67 186.94 360.11C186.94 355.55 183.24 351.85 178.68 351.85ZM178.68 338.49C176.9 338.49 175.45 339.94 175.45 341.72C175.45 343.5 176.9 344.95 178.68 344.95C180.46 344.95 181.91 343.5 181.91 341.72C181.91 339.94 180.46 338.49 178.68 338.49ZM178.68 327.02C176.9 327.02 175.45 328.47 175.45 330.25C175.45 332.03 176.9 333.48 178.68 333.48C180.46 333.48 181.91 332.03 181.91 330.25C181.91 328.47 180.46 327.02 178.68 327.02Z" fill="url(#paint2_linear_71_23)"/>
<path d="M274.29 300.62C278.614 300.62 282.12 297.114 282.12 292.79C282.12 288.466 278.614 284.96 274.29 284.96C269.966 284.96 266.46 288.466 266.46 292.79C266.46 297.114 269.966 300.62 274.29 300.62Z" stroke="url(#paint3_linear_71_23)" stroke-miterlimit="10"/>
<path d="M90.99 105.34C103.411 105.34 113.48 95.2709 113.48 82.85C113.48 70.4291 103.411 60.36 90.99 60.36C78.5691 60.36 68.5 70.4291 68.5 82.85C68.5 95.2709 78.5691 105.34 90.99 105.34Z" stroke="url(#paint4_linear_71_23)" stroke-miterlimit="10"/>
<g clip-path="url(#clip1_71_23)">
<path d="M177.94 275.38C225.127 275.38 263.38 237.127 263.38 189.94C263.38 142.753 225.127 104.5 177.94 104.5C130.753 104.5 92.5 142.753 92.5 189.94C92.5 237.127 130.753 275.38 177.94 275.38Z" stroke="url(#paint5_linear_71_23)" stroke-miterlimit="10"/>
</g>
</g>
<path d="M33.4912 285.156C32.6245 285.156 31.8705 284.957 31.2292 284.558C30.5965 284.151 30.1025 283.596 29.7472 282.894C29.4005 282.183 29.2272 281.373 29.2272 280.463C29.2272 279.562 29.4005 278.756 29.7472 278.045C30.0939 277.334 30.5965 276.775 31.2552 276.368C31.9139 275.952 32.7112 275.744 33.6472 275.744C34.6699 275.744 35.5192 275.991 36.1952 276.485C36.8799 276.979 37.3219 277.659 37.5212 278.526H36.2602C36.1389 277.98 35.8485 277.547 35.3892 277.226C34.9385 276.905 34.3579 276.745 33.6472 276.745C32.9279 276.745 32.3212 276.91 31.8272 277.239C31.3332 277.568 30.9605 278.015 30.7092 278.578C30.4665 279.133 30.3452 279.761 30.3452 280.463C30.3452 281.174 30.4709 281.811 30.7222 282.374C30.9735 282.937 31.3375 283.379 31.8142 283.7C32.2909 284.021 32.8629 284.181 33.5302 284.181C34.5009 284.181 35.2332 283.899 35.7272 283.336C36.2212 282.764 36.5029 281.984 36.5722 280.996H33.2962V280.138H37.6902V285H36.6892L36.5982 283.505C36.2689 284.034 35.8659 284.441 35.3892 284.727C34.9125 285.013 34.2799 285.156 33.4912 285.156ZM41.7181 285.156C41.2154 285.156 40.7734 285.056 40.3921 284.857C40.0194 284.649 39.7291 284.337 39.5211 283.921C39.3131 283.496 39.2091 282.963 39.2091 282.322V278.552H40.3011V282.205C40.3011 282.872 40.4397 283.375 40.7171 283.713C40.9944 284.051 41.4104 284.22 41.9651 284.22C42.5197 284.22 42.9791 284.021 43.3431 283.622C43.7157 283.215 43.9021 282.638 43.9021 281.893V278.552H44.9941V285H44.0061L43.9411 283.843C43.7331 284.25 43.4341 284.571 43.0441 284.805C42.6541 285.039 42.2121 285.156 41.7181 285.156ZM47.4545 277.122C47.2379 277.122 47.0559 277.053 46.9085 276.914C46.7699 276.767 46.7005 276.585 46.7005 276.368C46.7005 276.16 46.7699 275.987 46.9085 275.848C47.0559 275.709 47.2379 275.64 47.4545 275.64C47.6625 275.64 47.8402 275.709 47.9875 275.848C48.1349 275.987 48.2085 276.16 48.2085 276.368C48.2085 276.585 48.1349 276.767 47.9875 276.914C47.8402 277.053 47.6625 277.122 47.4545 277.122ZM46.9085 285V278.552H48.0005V285H46.9085ZM52.8269 285.156C52.1682 285.156 51.6005 285.004 51.1239 284.701C50.6472 284.398 50.2789 283.99 50.0189 283.479C49.7589 282.968 49.6289 282.396 49.6289 281.763C49.6289 281.139 49.7545 280.571 50.0059 280.06C50.2659 279.549 50.6342 279.146 51.1109 278.851C51.5875 278.548 52.1639 278.396 52.8399 278.396C53.3685 278.396 53.8365 278.504 54.2439 278.721C54.6512 278.938 54.9675 279.241 55.1929 279.631V275.9H56.2849V285H55.2969L55.1929 283.934C54.9849 284.246 54.6859 284.528 54.2959 284.779C53.9059 285.03 53.4162 285.156 52.8269 285.156ZM52.9439 284.207C53.4205 284.207 53.8235 284.099 54.1529 283.882C54.4822 283.657 54.7292 283.362 54.8939 282.998C55.0672 282.625 55.1539 282.218 55.1539 281.776C55.1539 281.308 55.0672 280.892 54.8939 280.528C54.7205 280.164 54.4692 279.878 54.1399 279.67C53.8105 279.453 53.4119 279.345 52.9439 279.345C52.5279 279.345 52.1552 279.445 51.8259 279.644C51.4965 279.843 51.2322 280.125 51.0329 280.489C50.8422 280.844 50.7469 281.273 50.7469 281.776C50.7469 282.279 50.8465 282.712 51.0459 283.076C51.2452 283.44 51.5095 283.722 51.8389 283.921C52.1769 284.112 52.5452 284.207 52.9439 284.207ZM60.964 285.156C60.366 285.156 59.8243 285.017 59.339 284.74C58.8623 284.463 58.4853 284.073 58.208 283.57C57.9306 283.059 57.792 282.461 57.792 281.776C57.792 281.1 57.922 280.511 58.182 280.008C58.4506 279.497 58.8233 279.102 59.3 278.825C59.7853 278.539 60.3486 278.396 60.99 278.396C61.5966 278.396 62.1253 278.53 62.576 278.799C63.0266 279.068 63.3776 279.432 63.629 279.891C63.889 280.342 64.019 280.849 64.019 281.412C64.019 281.533 64.019 281.629 64.019 281.698C64.019 281.767 64.0146 281.876 64.006 282.023H58.871C58.897 282.448 58.9966 282.829 59.17 283.167C59.352 283.496 59.5946 283.756 59.898 283.947C60.21 284.138 60.5653 284.233 60.964 284.233C61.4146 284.233 61.7916 284.129 62.095 283.921C62.3983 283.713 62.6193 283.431 62.758 283.076H63.837C63.7243 283.475 63.538 283.83 63.278 284.142C63.018 284.454 62.693 284.701 62.303 284.883C61.9216 285.065 61.4753 285.156 60.964 285.156ZM58.884 281.178H62.94C62.914 280.597 62.7146 280.142 62.342 279.813C61.9693 279.484 61.51 279.319 60.964 279.319C60.444 279.319 59.9803 279.479 59.573 279.8C59.1743 280.112 58.9446 280.571 58.884 281.178ZM69.6088 287.86L71.0388 284.74L68.2698 278.552H69.4528L71.5848 283.57L73.8468 278.552H74.9778L70.7528 287.86H69.6088ZM78.498 285.156C77.9087 285.156 77.367 285.026 76.873 284.766C76.379 284.497 75.9847 284.112 75.69 283.609C75.3954 283.098 75.248 282.482 75.248 281.763C75.248 281.078 75.391 280.485 75.677 279.982C75.9717 279.479 76.366 279.089 76.86 278.812C77.3627 278.535 77.926 278.396 78.55 278.396C79.148 278.396 79.694 278.526 80.188 278.786C80.6907 279.046 81.0937 279.427 81.397 279.93C81.7004 280.433 81.852 281.044 81.852 281.763C81.852 282.422 81.709 283.007 81.423 283.518C81.137 284.029 80.7384 284.432 80.227 284.727C79.7244 285.013 79.148 285.156 78.498 285.156ZM78.498 284.207C78.9227 284.207 79.304 284.107 79.642 283.908C79.98 283.7 80.2487 283.414 80.448 283.05C80.6474 282.686 80.747 282.257 80.747 281.763C80.747 281.295 80.6604 280.879 80.487 280.515C80.3137 280.151 80.0624 279.865 79.733 279.657C79.4037 279.449 79.005 279.345 78.537 279.345C78.0604 279.345 77.6574 279.453 77.328 279.67C77.0074 279.887 76.7647 280.177 76.6 280.541C76.4354 280.905 76.353 281.312 76.353 281.763C76.353 282.335 76.457 282.803 76.665 283.167C76.873 283.522 77.1417 283.787 77.471 283.96C77.8004 284.125 78.1427 284.207 78.498 284.207ZM85.7327 285.156C85.2301 285.156 84.7881 285.056 84.4067 284.857C84.0341 284.649 83.7437 284.337 83.5357 283.921C83.3277 283.496 83.2237 282.963 83.2237 282.322V278.552H84.3157V282.205C84.3157 282.872 84.4544 283.375 84.7317 283.713C85.0091 284.051 85.4251 284.22 85.9797 284.22C86.5344 284.22 86.9937 284.021 87.3577 283.622C87.7304 283.215 87.9167 282.638 87.9167 281.893V278.552H89.0087V285H88.0207L87.9557 283.843C87.7477 284.25 87.4487 284.571 87.0587 284.805C86.6687 285.039 86.2267 285.156 85.7327 285.156ZM90.8062 285V278.552H91.7942L91.8852 279.787C92.0845 279.362 92.3878 279.024 92.7952 278.773C93.2025 278.522 93.7052 278.396 94.3032 278.396V279.54H94.0042C93.2935 279.54 92.7648 279.731 92.4182 280.112C92.0715 280.493 91.8982 281.039 91.8982 281.75V285H90.8062ZM102.414 285.156C101.886 285.156 101.413 285.048 100.997 284.831C100.59 284.614 100.278 284.311 100.061 283.921L99.9573 285H98.9693V275.9H100.061V279.618C100.269 279.306 100.564 279.024 100.945 278.773C101.335 278.522 101.829 278.396 102.427 278.396C103.077 278.396 103.641 278.543 104.117 278.838C104.594 279.133 104.962 279.536 105.222 280.047C105.482 280.558 105.612 281.139 105.612 281.789C105.612 282.43 105.482 283.007 105.222 283.518C104.962 284.029 104.59 284.432 104.104 284.727C103.628 285.013 103.064 285.156 102.414 285.156ZM102.297 284.207C102.739 284.207 103.125 284.107 103.454 283.908C103.784 283.7 104.039 283.414 104.221 283.05C104.412 282.677 104.507 282.253 104.507 281.776C104.507 281.317 104.416 280.905 104.234 280.541C104.061 280.168 103.81 279.878 103.48 279.67C103.151 279.453 102.757 279.345 102.297 279.345C101.864 279.345 101.478 279.449 101.14 279.657C100.811 279.856 100.551 280.138 100.36 280.502C100.178 280.866 100.087 281.291 100.087 281.776C100.087 282.227 100.178 282.638 100.36 283.011C100.542 283.375 100.798 283.665 101.127 283.882C101.457 284.099 101.847 284.207 102.297 284.207ZM107.132 285V278.552H108.12L108.211 279.787C108.411 279.362 108.714 279.024 109.121 278.773C109.529 278.522 110.031 278.396 110.629 278.396V279.54H110.33C109.62 279.54 109.091 279.731 108.744 280.112C108.398 280.493 108.224 281.039 108.224 281.75V285H107.132ZM114 285.156C113.558 285.156 113.155 285.082 112.791 284.935C112.427 284.788 112.137 284.567 111.92 284.272C111.712 283.969 111.608 283.6 111.608 283.167C111.608 282.664 111.738 282.266 111.998 281.971C112.258 281.668 112.6 281.451 113.025 281.321C113.458 281.182 113.922 281.113 114.416 281.113H116.158C116.158 280.662 116.08 280.307 115.924 280.047C115.777 279.787 115.582 279.601 115.339 279.488C115.096 279.375 114.828 279.319 114.533 279.319C114.108 279.319 113.74 279.423 113.428 279.631C113.125 279.83 112.934 280.142 112.856 280.567H111.738C111.781 280.099 111.937 279.705 112.206 279.384C112.475 279.063 112.813 278.821 113.22 278.656C113.636 278.483 114.074 278.396 114.533 278.396C115.183 278.396 115.707 278.517 116.106 278.76C116.505 278.994 116.795 279.31 116.977 279.709C117.159 280.108 117.25 280.55 117.25 281.035V283.011C117.25 283.332 117.289 283.574 117.367 283.739C117.445 283.904 117.644 284.003 117.965 284.038V285C117.679 285 117.419 284.965 117.185 284.896C116.951 284.818 116.752 284.697 116.587 284.532C116.431 284.359 116.318 284.133 116.249 283.856C116.032 284.22 115.733 284.528 115.352 284.779C114.979 285.03 114.529 285.156 114 285.156ZM114.169 284.233C114.602 284.233 114.966 284.125 115.261 283.908C115.556 283.683 115.777 283.397 115.924 283.05C116.08 282.703 116.158 282.344 116.158 281.971V281.958H114.507C114.204 281.958 113.918 281.993 113.649 282.062C113.38 282.123 113.164 282.24 112.999 282.413C112.834 282.578 112.752 282.812 112.752 283.115C112.752 283.505 112.891 283.791 113.168 283.973C113.445 284.146 113.779 284.233 114.169 284.233ZM119.282 285V278.552H120.27L120.335 279.709C120.543 279.302 120.842 278.981 121.232 278.747C121.622 278.513 122.064 278.396 122.558 278.396C123.32 278.396 123.927 278.63 124.378 279.098C124.837 279.557 125.067 280.268 125.067 281.23V285H123.975V281.347C123.975 280.68 123.836 280.177 123.559 279.839C123.281 279.501 122.865 279.332 122.311 279.332C121.756 279.332 121.292 279.536 120.92 279.943C120.556 280.342 120.374 280.914 120.374 281.659V285H119.282ZM129.659 285.156C129 285.156 128.433 285.004 127.956 284.701C127.479 284.398 127.111 283.99 126.851 283.479C126.591 282.968 126.461 282.396 126.461 281.763C126.461 281.139 126.587 280.571 126.838 280.06C127.098 279.549 127.466 279.146 127.943 278.851C128.42 278.548 128.996 278.396 129.672 278.396C130.201 278.396 130.669 278.504 131.076 278.721C131.483 278.938 131.8 279.241 132.025 279.631V275.9H133.117V285H132.129L132.025 283.934C131.817 284.246 131.518 284.528 131.128 284.779C130.738 285.03 130.248 285.156 129.659 285.156ZM129.776 284.207C130.253 284.207 130.656 284.099 130.985 283.882C131.314 283.657 131.561 283.362 131.726 282.998C131.899 282.625 131.986 282.218 131.986 281.776C131.986 281.308 131.899 280.892 131.726 280.528C131.553 280.164 131.301 279.878 130.972 279.67C130.643 279.453 130.244 279.345 129.776 279.345C129.36 279.345 128.987 279.445 128.658 279.644C128.329 279.843 128.064 280.125 127.865 280.489C127.674 280.844 127.579 281.273 127.579 281.776C127.579 282.279 127.679 282.712 127.878 283.076C128.077 283.44 128.342 283.722 128.671 283.921C129.009 284.112 129.377 284.207 129.776 284.207ZM7.97434 302L6.08934 295.552H7.18134L8.54634 300.609L10.0543 295.552H11.2893L12.8103 300.609L14.1623 295.552H15.2673L13.3823 302H12.2643L10.6783 296.683L9.09234 302H7.97434ZM17.1381 294.122C16.9215 294.122 16.7395 294.053 16.5921 293.914C16.4535 293.767 16.3841 293.585 16.3841 293.368C16.3841 293.16 16.4535 292.987 16.5921 292.848C16.7395 292.709 16.9215 292.64 17.1381 292.64C17.3461 292.64 17.5238 292.709 17.6711 292.848C17.8185 292.987 17.8921 293.16 17.8921 293.368C17.8921 293.585 17.8185 293.767 17.6711 293.914C17.5238 294.053 17.3461 294.122 17.1381 294.122ZM16.5921 302V295.552H17.6841V302H16.5921ZM22.1335 302C21.5441 302 21.0805 301.857 20.7425 301.571C20.4045 301.285 20.2355 300.769 20.2355 300.024V296.475H19.1175V295.552H20.2355V294.005H21.3275V295.552H23.1345V296.475H21.3275V300.024C21.3275 300.431 21.4098 300.709 21.5745 300.856C21.7391 300.995 22.0295 301.064 22.4455 301.064H23.1345V302H22.1335ZM24.6128 302V292.9H25.7048V296.657C25.9215 296.258 26.2292 295.951 26.6278 295.734C27.0265 295.509 27.4598 295.396 27.9278 295.396C28.6732 295.396 29.2712 295.63 29.7218 296.098C30.1725 296.557 30.3978 297.268 30.3978 298.23V302H29.3188V298.347C29.3188 297.68 29.1802 297.177 28.9028 296.839C28.6342 296.501 28.2312 296.332 27.6938 296.332C27.1305 296.332 26.6582 296.536 26.2768 296.943C25.8955 297.342 25.7048 297.914 25.7048 298.659V302H24.6128ZM36.1557 294.122C35.939 294.122 35.757 294.053 35.6097 293.914C35.471 293.767 35.4017 293.585 35.4017 293.368C35.4017 293.16 35.471 292.987 35.6097 292.848C35.757 292.709 35.939 292.64 36.1557 292.64C36.3637 292.64 36.5414 292.709 36.6887 292.848C36.836 292.987 36.9097 293.16 36.9097 293.368C36.9097 293.585 36.836 293.767 36.6887 293.914C36.5414 294.053 36.3637 294.122 36.1557 294.122ZM35.6097 302V295.552H36.7017V302H35.6097ZM38.6031 302V295.552H39.5911L39.6561 296.709C39.8641 296.302 40.1631 295.981 40.5531 295.747C40.9431 295.513 41.3851 295.396 41.8791 295.396C42.6417 295.396 43.2484 295.63 43.6991 296.098C44.1584 296.557 44.3881 297.268 44.3881 298.23V302H43.2961V298.347C43.2961 297.68 43.1574 297.177 42.8801 296.839C42.6027 296.501 42.1867 296.332 41.6321 296.332C41.0774 296.332 40.6137 296.536 40.2411 296.943C39.8771 297.342 39.6951 297.914 39.6951 298.659V302H38.6031ZM48.5252 302.156C48.0139 302.156 47.5545 302.069 47.1472 301.896C46.7399 301.714 46.4105 301.463 46.1592 301.142C45.9165 300.813 45.7649 300.427 45.7042 299.985H46.8222C46.8915 300.323 47.0692 300.618 47.3552 300.869C47.6499 301.112 48.0442 301.233 48.5382 301.233C48.9975 301.233 49.3355 301.138 49.5522 300.947C49.7689 300.748 49.8772 300.514 49.8772 300.245C49.8772 299.985 49.8122 299.786 49.6822 299.647C49.5609 299.508 49.3789 299.404 49.1362 299.335C48.9022 299.257 48.6119 299.183 48.2652 299.114C47.9012 299.036 47.5459 298.932 47.1992 298.802C46.8525 298.663 46.5665 298.477 46.3412 298.243C46.1159 298.009 46.0032 297.701 46.0032 297.32C46.0032 296.939 46.0985 296.605 46.2892 296.319C46.4799 296.033 46.7485 295.808 47.0952 295.643C47.4505 295.478 47.8665 295.396 48.3432 295.396C49.0279 295.396 49.5869 295.569 50.0202 295.916C50.4622 296.254 50.7179 296.739 50.7872 297.372H49.7082C49.6649 297.043 49.5219 296.787 49.2792 296.605C49.0452 296.414 48.7289 296.319 48.3302 296.319C47.9402 296.319 47.6369 296.401 47.4202 296.566C47.2122 296.731 47.1082 296.947 47.1082 297.216C47.1082 297.389 47.1689 297.537 47.2902 297.658C47.4115 297.779 47.5849 297.883 47.8102 297.97C48.0442 298.057 48.3172 298.135 48.6292 298.204C49.0625 298.291 49.4569 298.399 49.8122 298.529C50.1675 298.659 50.4535 298.85 50.6702 299.101C50.8869 299.344 50.9952 299.695 50.9952 300.154C51.0039 300.535 50.9042 300.878 50.6962 301.181C50.4969 301.484 50.2109 301.723 49.8382 301.896C49.4742 302.069 49.0365 302.156 48.5252 302.156ZM53.2182 294.122C53.0015 294.122 52.8195 294.053 52.6722 293.914C52.5335 293.767 52.4642 293.585 52.4642 293.368C52.4642 293.16 52.5335 292.987 52.6722 292.848C52.8195 292.709 53.0015 292.64 53.2182 292.64C53.4262 292.64 53.6039 292.709 53.7512 292.848C53.8985 292.987 53.9722 293.16 53.9722 293.368C53.9722 293.585 53.8985 293.767 53.7512 293.914C53.6039 294.053 53.4262 294.122 53.2182 294.122ZM52.6722 302V295.552H53.7642V302H52.6722ZM58.2266 305.016C57.7152 305.016 57.2256 304.951 56.7576 304.821C56.2896 304.691 55.9082 304.47 55.6136 304.158C55.3276 303.855 55.1846 303.447 55.1846 302.936C55.1846 302.581 55.2669 302.286 55.4316 302.052C55.5962 301.818 55.8129 301.64 56.0816 301.519C55.8736 301.398 55.7046 301.246 55.5746 301.064C55.4446 300.882 55.3796 300.674 55.3796 300.44C55.3796 299.92 55.6136 299.5 56.0816 299.179C55.9082 298.98 55.7696 298.759 55.6656 298.516C55.5702 298.265 55.5226 297.987 55.5226 297.684C55.5226 297.207 55.6309 296.8 55.8476 296.462C56.0729 296.115 56.3762 295.851 56.7576 295.669C57.1476 295.487 57.5896 295.396 58.0836 295.396C58.4476 295.396 58.7899 295.448 59.1106 295.552H61.3076V296.475H60.3066C60.4192 296.648 60.5016 296.839 60.5536 297.047C60.6142 297.246 60.6446 297.459 60.6446 297.684C60.6446 298.178 60.5276 298.594 60.2936 298.932C60.0682 299.27 59.7606 299.53 59.3706 299.712C58.9892 299.885 58.5602 299.972 58.0836 299.972C57.8409 299.972 57.6199 299.946 57.4206 299.894C57.2212 299.842 57.0219 299.768 56.8226 299.673C56.5972 299.786 56.4846 299.959 56.4846 300.193C56.4846 300.626 56.8486 300.843 57.5766 300.843H58.6556C59.1409 300.843 59.5699 300.908 59.9426 301.038C60.3152 301.159 60.6056 301.363 60.8136 301.649C61.0302 301.926 61.1386 302.308 61.1386 302.793C61.1386 303.287 60.9999 303.699 60.7226 304.028C60.4452 304.357 60.0856 304.604 59.6436 304.769C59.2016 304.934 58.7292 305.016 58.2266 305.016ZM58.2006 304.106C58.7206 304.106 59.1626 304.006 59.5266 303.807C59.8906 303.616 60.0726 303.322 60.0726 302.923C60.0726 302.178 59.6219 301.805 58.7206 301.805H57.6156C57.1909 301.805 56.8572 301.896 56.6146 302.078C56.3719 302.269 56.2506 302.55 56.2506 302.923C56.2506 303.209 56.3416 303.439 56.5236 303.612C56.7056 303.785 56.9439 303.911 57.2386 303.989C57.5332 304.067 57.8539 304.106 58.2006 304.106ZM58.0576 299.062C58.5082 299.062 58.8766 298.932 59.1626 298.672C59.4486 298.412 59.5916 298.083 59.5916 297.684C59.5916 297.285 59.4486 296.956 59.1626 296.696C58.8766 296.436 58.5082 296.306 58.0576 296.306C57.6069 296.306 57.2429 296.436 56.9656 296.696C56.6969 296.956 56.5626 297.285 56.5626 297.684C56.5626 298.083 56.6926 298.412 56.9526 298.672C57.2212 298.932 57.5896 299.062 58.0576 299.062ZM62.5464 302V292.9H63.6384V296.657C63.8551 296.258 64.1627 295.951 64.5614 295.734C64.9601 295.509 65.3934 295.396 65.8614 295.396C66.6067 295.396 67.2047 295.63 67.6554 296.098C68.1061 296.557 68.3314 297.268 68.3314 298.23V302H67.2524V298.347C67.2524 297.68 67.1137 297.177 66.8364 296.839C66.5677 296.501 66.1647 296.332 65.6274 296.332C65.0641 296.332 64.5917 296.536 64.2104 296.943C63.8291 297.342 63.6384 297.914 63.6384 298.659V302H62.5464ZM72.5339 302C71.9445 302 71.4809 301.857 71.1429 301.571C70.8049 301.285 70.6359 300.769 70.6359 300.024V296.475H69.5179V295.552H70.6359V294.005H71.7279V295.552H73.5349V296.475H71.7279V300.024C71.7279 300.431 71.8102 300.709 71.9749 300.856C72.1395 300.995 72.4299 301.064 72.8459 301.064H73.5349V302H72.5339ZM77.4832 302.156C76.9719 302.156 76.5125 302.069 76.1052 301.896C75.6979 301.714 75.3685 301.463 75.1172 301.142C74.8745 300.813 74.7229 300.427 74.6622 299.985H75.7802C75.8495 300.323 76.0272 300.618 76.3132 300.869C76.6079 301.112 77.0022 301.233 77.4962 301.233C77.9555 301.233 78.2935 301.138 78.5102 300.947C78.7269 300.748 78.8352 300.514 78.8352 300.245C78.8352 299.985 78.7702 299.786 78.6402 299.647C78.5189 299.508 78.3369 299.404 78.0942 299.335C77.8602 299.257 77.5699 299.183 77.2232 299.114C76.8592 299.036 76.5039 298.932 76.1572 298.802C75.8105 298.663 75.5245 298.477 75.2992 298.243C75.0739 298.009 74.9612 297.701 74.9612 297.32C74.9612 296.939 75.0565 296.605 75.2472 296.319C75.4379 296.033 75.7065 295.808 76.0532 295.643C76.4085 295.478 76.8245 295.396 77.3012 295.396C77.9859 295.396 78.5449 295.569 78.9782 295.916C79.4202 296.254 79.6759 296.739 79.7452 297.372H78.6662C78.6229 297.043 78.4799 296.787 78.2372 296.605C78.0032 296.414 77.6869 296.319 77.2882 296.319C76.8982 296.319 76.5949 296.401 76.3782 296.566C76.1702 296.731 76.0662 296.947 76.0662 297.216C76.0662 297.389 76.1269 297.537 76.2482 297.658C76.3695 297.779 76.5429 297.883 76.7682 297.97C77.0022 298.057 77.2752 298.135 77.5872 298.204C78.0205 298.291 78.4149 298.399 78.7702 298.529C79.1255 298.659 79.4115 298.85 79.6282 299.101C79.8449 299.344 79.9532 299.695 79.9532 300.154C79.9619 300.535 79.8622 300.878 79.6542 301.181C79.4549 301.484 79.1689 301.723 78.7962 301.896C78.4322 302.069 77.9945 302.156 77.4832 302.156ZM87.5016 302C86.9123 302 86.4486 301.857 86.1106 301.571C85.7726 301.285 85.6036 300.769 85.6036 300.024V296.475H84.4856V295.552H85.6036V294.005H86.6956V295.552H88.5026V296.475H86.6956V300.024C86.6956 300.431 86.778 300.709 86.9426 300.856C87.1073 300.995 87.3976 301.064 87.8136 301.064H88.5026V302H87.5016ZM89.981 302V292.9H91.073V296.657C91.2897 296.258 91.5973 295.951 91.996 295.734C92.3947 295.509 92.828 295.396 93.296 295.396C94.0413 295.396 94.6393 295.63 95.09 296.098C95.5407 296.557 95.766 297.268 95.766 298.23V302H94.687V298.347C94.687 297.68 94.5483 297.177 94.271 296.839C94.0023 296.501 93.5993 296.332 93.062 296.332C92.4987 296.332 92.0263 296.536 91.645 296.943C91.2637 297.342 91.073 297.914 91.073 298.659V302H89.981ZM99.5654 302.156C99.1234 302.156 98.7204 302.082 98.3564 301.935C97.9924 301.788 97.7021 301.567 97.4854 301.272C97.2774 300.969 97.1734 300.6 97.1734 300.167C97.1734 299.664 97.3034 299.266 97.5634 298.971C97.8234 298.668 98.1658 298.451 98.5904 298.321C99.0238 298.182 99.4874 298.113 99.9814 298.113H101.723C101.723 297.662 101.645 297.307 101.489 297.047C101.342 296.787 101.147 296.601 100.904 296.488C100.662 296.375 100.393 296.319 100.098 296.319C99.6738 296.319 99.3054 296.423 98.9934 296.631C98.6901 296.83 98.4994 297.142 98.4214 297.567H97.3034C97.3468 297.099 97.5028 296.705 97.7714 296.384C98.0401 296.063 98.3781 295.821 98.7854 295.656C99.2014 295.483 99.6391 295.396 100.098 295.396C100.748 295.396 101.273 295.517 101.671 295.76C102.07 295.994 102.36 296.31 102.542 296.709C102.724 297.108 102.815 297.55 102.815 298.035V300.011C102.815 300.332 102.854 300.574 102.932 300.739C103.01 300.904 103.21 301.003 103.53 301.038V302C103.244 302 102.984 301.965 102.75 301.896C102.516 301.818 102.317 301.697 102.152 301.532C101.996 301.359 101.884 301.133 101.814 300.856C101.598 301.22 101.299 301.528 100.917 301.779C100.545 302.03 100.094 302.156 99.5654 302.156ZM99.7344 301.233C100.168 301.233 100.532 301.125 100.826 300.908C101.121 300.683 101.342 300.397 101.489 300.05C101.645 299.703 101.723 299.344 101.723 298.971V298.958H100.072C99.7691 298.958 99.4831 298.993 99.2144 299.062C98.9458 299.123 98.7291 299.24 98.5644 299.413C98.3998 299.578 98.3174 299.812 98.3174 300.115C98.3174 300.505 98.4561 300.791 98.7334 300.973C99.0108 301.146 99.3444 301.233 99.7344 301.233ZM107.217 302C106.628 302 106.164 301.857 105.826 301.571C105.488 301.285 105.319 300.769 105.319 300.024V296.475H104.201V295.552H105.319V294.005H106.411V295.552H108.218V296.475H106.411V300.024C106.411 300.431 106.494 300.709 106.658 300.856C106.823 300.995 107.113 301.064 107.529 301.064H108.218V302H107.217ZM113.488 302V296.475H112.513V295.552H113.488V294.694C113.488 294.07 113.644 293.615 113.956 293.329C114.268 293.043 114.723 292.9 115.321 292.9H115.971V293.836H115.49C115.161 293.836 114.927 293.905 114.788 294.044C114.65 294.174 114.58 294.399 114.58 294.72V295.552H116.166V296.475H114.58V302H113.488ZM120.111 302.156C119.513 302.156 118.972 302.017 118.486 301.74C118.01 301.463 117.633 301.073 117.355 300.57C117.078 300.059 116.939 299.461 116.939 298.776C116.939 298.1 117.069 297.511 117.329 297.008C117.598 296.497 117.971 296.102 118.447 295.825C118.933 295.539 119.496 295.396 120.137 295.396C120.744 295.396 121.273 295.53 121.723 295.799C122.174 296.068 122.525 296.432 122.776 296.891C123.036 297.342 123.166 297.849 123.166 298.412C123.166 298.533 123.166 298.629 123.166 298.698C123.166 298.767 123.162 298.876 123.153 299.023H118.018C118.044 299.448 118.144 299.829 118.317 300.167C118.499 300.496 118.742 300.756 119.045 300.947C119.357 301.138 119.713 301.233 120.111 301.233C120.562 301.233 120.939 301.129 121.242 300.921C121.546 300.713 121.767 300.431 121.905 300.076H122.984C122.872 300.475 122.685 300.83 122.425 301.142C122.165 301.454 121.84 301.701 121.45 301.883C121.069 302.065 120.623 302.156 120.111 302.156ZM118.031 298.178H122.087C122.061 297.597 121.862 297.142 121.489 296.813C121.117 296.484 120.657 296.319 120.111 296.319C119.591 296.319 119.128 296.479 118.72 296.8C118.322 297.112 118.092 297.571 118.031 298.178ZM127.513 302.156C126.915 302.156 126.373 302.017 125.888 301.74C125.411 301.463 125.034 301.073 124.757 300.57C124.479 300.059 124.341 299.461 124.341 298.776C124.341 298.1 124.471 297.511 124.731 297.008C124.999 296.497 125.372 296.102 125.849 295.825C126.334 295.539 126.897 295.396 127.539 295.396C128.145 295.396 128.674 295.53 129.125 295.799C129.575 296.068 129.926 296.432 130.178 296.891C130.438 297.342 130.568 297.849 130.568 298.412C130.568 298.533 130.568 298.629 130.568 298.698C130.568 298.767 130.563 298.876 130.555 299.023H125.42C125.446 299.448 125.545 299.829 125.719 300.167C125.901 300.496 126.143 300.756 126.447 300.947C126.759 301.138 127.114 301.233 127.513 301.233C127.963 301.233 128.34 301.129 128.644 300.921C128.947 300.713 129.168 300.431 129.307 300.076H130.386C130.273 300.475 130.087 300.83 129.827 301.142C129.567 301.454 129.242 301.701 128.852 301.883C128.47 302.065 128.024 302.156 127.513 302.156ZM125.433 298.178H129.489C129.463 297.597 129.263 297.142 128.891 296.813C128.518 296.484 128.059 296.319 127.513 296.319C126.993 296.319 126.529 296.479 126.122 296.8C125.723 297.112 125.493 297.571 125.433 298.178ZM132.015 302V292.9H133.107V302H132.015ZM16.2495 311.122C16.0328 311.122 15.8508 311.053 15.7035 310.914C15.5648 310.767 15.4955 310.585 15.4955 310.368C15.4955 310.16 15.5648 309.987 15.7035 309.848C15.8508 309.709 16.0328 309.64 16.2495 309.64C16.4575 309.64 16.6351 309.709 16.7825 309.848C16.9298 309.987 17.0035 310.16 17.0035 310.368C17.0035 310.585 16.9298 310.767 16.7825 310.914C16.6351 311.053 16.4575 311.122 16.2495 311.122ZM15.7035 319V312.552H16.7955V319H15.7035ZM18.6968 319V312.552H19.6848L19.7498 313.709C19.9578 313.302 20.2568 312.981 20.6468 312.747C21.0368 312.513 21.4788 312.396 21.9728 312.396C22.7355 312.396 23.3421 312.63 23.7928 313.098C24.2521 313.557 24.4818 314.268 24.4818 315.23V319H23.3898V315.347C23.3898 314.68 23.2511 314.177 22.9738 313.839C22.6965 313.501 22.2805 313.332 21.7258 313.332C21.1711 313.332 20.7075 313.536 20.3348 313.943C19.9708 314.342 19.7888 314.914 19.7888 315.659V319H18.6968ZM28.697 319C28.1076 319 27.644 318.857 27.306 318.571C26.968 318.285 26.799 317.769 26.799 317.024V313.475H25.681V312.552H26.799V311.005H27.891V312.552H29.698V313.475H27.891V317.024C27.891 317.431 27.9733 317.709 28.138 317.856C28.3026 317.995 28.593 318.064 29.009 318.064H29.698V319H28.697ZM33.5423 319.156C33.0396 319.156 32.5976 319.056 32.2163 318.857C31.8436 318.649 31.5533 318.337 31.3453 317.921C31.1373 317.496 31.0333 316.963 31.0333 316.322V312.552H32.1253V316.205C32.1253 316.872 32.264 317.375 32.5413 317.713C32.8186 318.051 33.2346 318.22 33.7893 318.22C34.344 318.22 34.8033 318.021 35.1673 317.622C35.54 317.215 35.7263 316.638 35.7263 315.893V312.552H36.8183V319H35.8303L35.7653 317.843C35.5573 318.25 35.2583 318.571 34.8683 318.805C34.4783 319.039 34.0363 319.156 33.5423 319.156ZM39.2788 311.122C39.0621 311.122 38.8801 311.053 38.7328 310.914C38.5941 310.767 38.5248 310.585 38.5248 310.368C38.5248 310.16 38.5941 309.987 38.7328 309.848C38.8801 309.709 39.0621 309.64 39.2788 309.64C39.4868 309.64 39.6644 309.709 39.8118 309.848C39.9591 309.987 40.0328 310.16 40.0328 310.368C40.0328 310.585 39.9591 310.767 39.8118 310.914C39.6644 311.053 39.4868 311.122 39.2788 311.122ZM38.7328 319V312.552H39.8248V319H38.7328ZM44.2741 319C43.6848 319 43.2211 318.857 42.8831 318.571C42.5451 318.285 42.3761 317.769 42.3761 317.024V313.475H41.2581V312.552H42.3761V311.005H43.4681V312.552H45.2751V313.475H43.4681V317.024C43.4681 317.431 43.5504 317.709 43.7151 317.856C43.8798 317.995 44.1701 318.064 44.5861 318.064H45.2751V319H44.2741ZM47.4164 311.122C47.1998 311.122 47.0178 311.053 46.8704 310.914C46.7318 310.767 46.6624 310.585 46.6624 310.368C46.6624 310.16 46.7318 309.987 46.8704 309.848C47.0178 309.709 47.1998 309.64 47.4164 309.64C47.6244 309.64 47.8021 309.709 47.9494 309.848C48.0968 309.987 48.1704 310.16 48.1704 310.368C48.1704 310.585 48.0968 310.767 47.9494 310.914C47.8021 311.053 47.6244 311.122 47.4164 311.122ZM46.8704 319V312.552H47.9624V319H46.8704ZM51.7228 319L49.2788 312.552H50.4228L52.3598 317.947L54.3098 312.552H55.4278L52.9838 319H51.7228ZM59.212 319.156C58.614 319.156 58.0723 319.017 57.587 318.74C57.1103 318.463 56.7333 318.073 56.456 317.57C56.1787 317.059 56.04 316.461 56.04 315.776C56.04 315.1 56.17 314.511 56.43 314.008C56.6987 313.497 57.0713 313.102 57.548 312.825C58.0333 312.539 58.5967 312.396 59.238 312.396C59.8447 312.396 60.3733 312.53 60.824 312.799C61.2747 313.068 61.6257 313.432 61.877 313.891C62.137 314.342 62.267 314.849 62.267 315.412C62.267 315.533 62.267 315.629 62.267 315.698C62.267 315.767 62.2627 315.876 62.254 316.023H57.119C57.145 316.448 57.2447 316.829 57.418 317.167C57.6 317.496 57.8427 317.756 58.146 317.947C58.458 318.138 58.8133 318.233 59.212 318.233C59.6627 318.233 60.0397 318.129 60.343 317.921C60.6463 317.713 60.8673 317.431 61.006 317.076H62.085C61.9723 317.475 61.786 317.83 61.526 318.142C61.266 318.454 60.941 318.701 60.551 318.883C60.1697 319.065 59.7233 319.156 59.212 319.156ZM57.132 315.178H61.188C61.162 314.597 60.9627 314.142 60.59 313.813C60.2173 313.484 59.758 313.319 59.212 313.319C58.692 313.319 58.2283 313.479 57.821 313.8C57.4223 314.112 57.1927 314.571 57.132 315.178ZM62.8434 320.547L63.5974 317.674H64.7284L63.5974 320.547H62.8434ZM69.4654 319V312.552H70.4534L70.5184 313.709C70.7264 313.302 71.0254 312.981 71.4154 312.747C71.8054 312.513 72.2474 312.396 72.7414 312.396C73.504 312.396 74.1107 312.63 74.5614 313.098C75.0207 313.557 75.2504 314.268 75.2504 315.23V319H74.1584V315.347C74.1584 314.68 74.0197 314.177 73.7424 313.839C73.465 313.501 73.049 313.332 72.4944 313.332C71.9397 313.332 71.476 313.536 71.1034 313.943C70.7394 314.342 70.5574 314.914 70.5574 315.659V319H69.4654ZM79.8945 319.156C79.3052 319.156 78.7635 319.026 78.2695 318.766C77.7755 318.497 77.3812 318.112 77.0865 317.609C76.7918 317.098 76.6445 316.482 76.6445 315.763C76.6445 315.078 76.7875 314.485 77.0735 313.982C77.3682 313.479 77.7625 313.089 78.2565 312.812C78.7592 312.535 79.3225 312.396 79.9465 312.396C80.5445 312.396 81.0905 312.526 81.5845 312.786C82.0872 313.046 82.4902 313.427 82.7935 313.93C83.0968 314.433 83.2485 315.044 83.2485 315.763C83.2485 316.422 83.1055 317.007 82.8195 317.518C82.5335 318.029 82.1348 318.432 81.6235 318.727C81.1208 319.013 80.5445 319.156 79.8945 319.156ZM79.8945 318.207C80.3192 318.207 80.7005 318.107 81.0385 317.908C81.3765 317.7 81.6452 317.414 81.8445 317.05C82.0438 316.686 82.1435 316.257 82.1435 315.763C82.1435 315.295 82.0568 314.879 81.8835 314.515C81.7102 314.151 81.4588 313.865 81.1295 313.657C80.8002 313.449 80.4015 313.345 79.9335 313.345C79.4568 313.345 79.0538 313.453 78.7245 313.67C78.4038 313.887 78.1612 314.177 77.9965 314.541C77.8318 314.905 77.7495 315.312 77.7495 315.763C77.7495 316.335 77.8535 316.803 78.0615 317.167C78.2695 317.522 78.5382 317.787 78.8675 317.96C79.1968 318.125 79.5392 318.207 79.8945 318.207ZM87.0573 319C86.468 319 86.0043 318.857 85.6663 318.571C85.3283 318.285 85.1593 317.769 85.1593 317.024V313.475H84.0413V312.552H85.1593V311.005H86.2513V312.552H88.0583V313.475H86.2513V317.024C86.2513 317.431 86.3336 317.709 86.4983 317.856C86.663 317.995 86.9533 318.064 87.3693 318.064H88.0583V319H87.0573ZM93.3281 319V313.475H92.3531V312.552H93.3281V311.694C93.3281 311.07 93.4841 310.615 93.7961 310.329C94.1081 310.043 94.5631 309.9 95.1611 309.9H95.8111V310.836H95.3301C95.0007 310.836 94.7667 310.905 94.6281 311.044C94.4894 311.174 94.4201 311.399 94.4201 311.72V312.552H96.0061V313.475H94.4201V319H93.3281ZM100.029 319.156C99.4399 319.156 98.8983 319.026 98.4043 318.766C97.9103 318.497 97.5159 318.112 97.2213 317.609C96.9266 317.098 96.7793 316.482 96.7793 315.763C96.7793 315.078 96.9223 314.485 97.2083 313.982C97.5029 313.479 97.8973 313.089 98.3913 312.812C98.8939 312.535 99.4573 312.396 100.081 312.396C100.679 312.396 101.225 312.526 101.719 312.786C102.222 313.046 102.625 313.427 102.928 313.93C103.232 314.433 103.383 315.044 103.383 315.763C103.383 316.422 103.24 317.007 102.954 317.518C102.668 318.029 102.27 318.432 101.758 318.727C101.256 319.013 100.679 319.156 100.029 319.156ZM100.029 318.207C100.454 318.207 100.835 318.107 101.173 317.908C101.511 317.7 101.78 317.414 101.979 317.05C102.179 316.686 102.278 316.257 102.278 315.763C102.278 315.295 102.192 314.879 102.018 314.515C101.845 314.151 101.594 313.865 101.264 313.657C100.935 313.449 100.536 313.345 100.068 313.345C99.5916 313.345 99.1886 313.453 98.8593 313.67C98.5386 313.887 98.2959 314.177 98.1313 314.541C97.9666 314.905 97.8843 315.312 97.8843 315.763C97.8843 316.335 97.9883 316.803 98.1963 317.167C98.4043 317.522 98.6729 317.787 99.0023 317.96C99.3316 318.125 99.6739 318.207 100.029 318.207ZM104.898 319V312.552H105.886L105.977 313.787C106.176 313.362 106.48 313.024 106.887 312.773C107.294 312.522 107.797 312.396 108.395 312.396V313.54H108.096C107.385 313.54 106.857 313.731 106.51 314.112C106.163 314.493 105.99 315.039 105.99 315.75V319H104.898ZM112.343 319.156C111.737 319.156 111.186 319.017 110.692 318.74C110.207 318.463 109.821 318.073 109.535 317.57C109.249 317.059 109.106 316.461 109.106 315.776C109.106 315.109 109.245 314.524 109.522 314.021C109.8 313.51 110.181 313.111 110.666 312.825C111.152 312.539 111.711 312.396 112.343 312.396C113.106 312.396 113.747 312.595 114.267 312.994C114.796 313.393 115.13 313.926 115.268 314.593H114.15C114.064 314.194 113.851 313.887 113.513 313.67C113.175 313.445 112.781 313.332 112.33 313.332C111.871 313.332 111.485 313.445 111.173 313.67C110.861 313.895 110.623 314.194 110.458 314.567C110.302 314.94 110.224 315.343 110.224 315.776C110.224 316.253 110.315 316.677 110.497 317.05C110.679 317.423 110.926 317.713 111.238 317.921C111.559 318.129 111.923 318.233 112.33 318.233C112.781 318.233 113.175 318.125 113.513 317.908C113.851 317.683 114.064 317.366 114.15 316.959H115.268C115.182 317.392 115.004 317.774 114.735 318.103C114.467 318.432 114.129 318.692 113.721 318.883C113.314 319.065 112.855 319.156 112.343 319.156ZM119.692 319.156C119.094 319.156 118.553 319.017 118.067 318.74C117.591 318.463 117.214 318.073 116.936 317.57C116.659 317.059 116.52 316.461 116.52 315.776C116.52 315.1 116.65 314.511 116.91 314.008C117.179 313.497 117.552 313.102 118.028 312.825C118.514 312.539 119.077 312.396 119.718 312.396C120.325 312.396 120.854 312.53 121.304 312.799C121.755 313.068 122.106 313.432 122.357 313.891C122.617 314.342 122.747 314.849 122.747 315.412C122.747 315.533 122.747 315.629 122.747 315.698C122.747 315.767 122.743 315.876 122.734 316.023H117.599C117.625 316.448 117.725 316.829 117.898 317.167C118.08 317.496 118.323 317.756 118.626 317.947C118.938 318.138 119.294 318.233 119.692 318.233C120.143 318.233 120.52 318.129 120.823 317.921C121.127 317.713 121.348 317.431 121.486 317.076H122.565C122.453 317.475 122.266 317.83 122.006 318.142C121.746 318.454 121.421 318.701 121.031 318.883C120.65 319.065 120.204 319.156 119.692 319.156ZM117.612 315.178H121.668C121.642 314.597 121.443 314.142 121.07 313.813C120.698 313.484 120.238 313.319 119.692 313.319C119.172 313.319 118.709 313.479 118.301 313.8C117.903 314.112 117.673 314.571 117.612 315.178ZM127.12 319.156C126.461 319.156 125.894 319.004 125.417 318.701C124.94 318.398 124.572 317.99 124.312 317.479C124.052 316.968 123.922 316.396 123.922 315.763C123.922 315.139 124.048 314.571 124.299 314.06C124.559 313.549 124.927 313.146 125.404 312.851C125.881 312.548 126.457 312.396 127.133 312.396C127.662 312.396 128.13 312.504 128.537 312.721C128.944 312.938 129.261 313.241 129.486 313.631V309.9H130.578V319H129.59L129.486 317.934C129.278 318.246 128.979 318.528 128.589 318.779C128.199 319.03 127.709 319.156 127.12 319.156ZM127.237 318.207C127.714 318.207 128.117 318.099 128.446 317.882C128.775 317.657 129.022 317.362 129.187 316.998C129.36 316.625 129.447 316.218 129.447 315.776C129.447 315.308 129.36 314.892 129.187 314.528C129.014 314.164 128.762 313.878 128.433 313.67C128.104 313.453 127.705 313.345 127.237 313.345C126.821 313.345 126.448 313.445 126.119 313.644C125.79 313.843 125.525 314.125 125.326 314.489C125.135 314.844 125.04 315.273 125.04 315.776C125.04 316.279 125.14 316.712 125.339 317.076C125.538 317.44 125.803 317.722 126.132 317.921C126.47 318.112 126.838 318.207 127.237 318.207ZM132.735 319.065C132.518 319.065 132.336 318.996 132.189 318.857C132.05 318.71 131.981 318.532 131.981 318.324C131.981 318.116 132.05 317.943 132.189 317.804C132.336 317.657 132.518 317.583 132.735 317.583C132.943 317.583 133.116 317.657 133.255 317.804C133.402 317.943 133.476 318.116 133.476 318.324C133.476 318.532 133.402 318.71 133.255 318.857C133.116 318.996 132.943 319.065 132.735 319.065Z" fill="black"/>
<path d="M219.962 45V35.9H221.054V45H219.962ZM225.843 45.156C225.185 45.156 224.617 45.0043 224.14 44.701C223.664 44.3977 223.295 43.9903 223.035 43.479C222.775 42.9677 222.645 42.3957 222.645 41.763C222.645 41.139 222.771 40.5713 223.022 40.06C223.282 39.5487 223.651 39.1457 224.127 38.851C224.604 38.5477 225.18 38.396 225.856 38.396C226.385 38.396 226.853 38.5043 227.26 38.721C227.668 38.9377 227.984 39.241 228.209 39.631V35.9H229.301V45H228.313L228.209 43.934C228.001 44.246 227.702 44.5277 227.312 44.779C226.922 45.0303 226.433 45.156 225.843 45.156ZM225.96 44.207C226.437 44.207 226.84 44.0987 227.169 43.882C227.499 43.6567 227.746 43.362 227.91 42.998C228.084 42.6253 228.17 42.218 228.17 41.776C228.17 41.308 228.084 40.892 227.91 40.528C227.737 40.164 227.486 39.878 227.156 39.67C226.827 39.4533 226.428 39.345 225.96 39.345C225.544 39.345 225.172 39.4447 224.842 39.644C224.513 39.8433 224.249 40.125 224.049 40.489C223.859 40.8443 223.763 41.2733 223.763 41.776C223.763 42.2787 223.863 42.712 224.062 43.076C224.262 43.44 224.526 43.7217 224.855 43.921C225.193 44.1117 225.562 44.207 225.96 44.207ZM233.981 45.156C233.383 45.156 232.841 45.0173 232.356 44.74C231.879 44.4627 231.502 44.0727 231.225 43.57C230.947 43.0587 230.809 42.4607 230.809 41.776C230.809 41.1 230.939 40.5107 231.199 40.008C231.467 39.4967 231.84 39.1023 232.317 38.825C232.802 38.539 233.365 38.396 234.007 38.396C234.613 38.396 235.142 38.5303 235.593 38.799C236.043 39.0677 236.394 39.4317 236.646 39.891C236.906 40.3417 237.036 40.8487 237.036 41.412C237.036 41.5333 237.036 41.6287 237.036 41.698C237.036 41.7673 237.031 41.8757 237.023 42.023H231.888C231.914 42.4477 232.013 42.829 232.187 43.167C232.369 43.4963 232.611 43.7563 232.915 43.947C233.227 44.1377 233.582 44.233 233.981 44.233C234.431 44.233 234.808 44.129 235.112 43.921C235.415 43.713 235.636 43.4313 235.775 43.076H236.854C236.741 43.4747 236.555 43.83 236.295 44.142C236.035 44.454 235.71 44.701 235.32 44.883C234.938 45.065 234.492 45.156 233.981 45.156ZM231.901 41.178H235.957C235.931 40.5973 235.731 40.1423 235.359 39.813C234.986 39.4837 234.527 39.319 233.981 39.319C233.461 39.319 232.997 39.4793 232.59 39.8C232.191 40.112 231.961 40.5713 231.901 41.178ZM238.483 45V38.552H239.471L239.536 39.709C239.744 39.3017 240.043 38.981 240.433 38.747C240.823 38.513 241.265 38.396 241.759 38.396C242.522 38.396 243.128 38.63 243.579 39.098C244.038 39.5573 244.268 40.268 244.268 41.23V45H243.176V41.347C243.176 40.6797 243.037 40.177 242.76 39.839C242.483 39.501 242.067 39.332 241.512 39.332C240.957 39.332 240.494 39.5357 240.121 39.943C239.757 40.3417 239.575 40.9137 239.575 41.659V45H238.483ZM248.483 45C247.894 45 247.43 44.857 247.092 44.571C246.754 44.285 246.585 43.7693 246.585 43.024V39.475H245.467V38.552H246.585V37.005H247.677V38.552H249.484V39.475H247.677V43.024C247.677 43.4313 247.759 43.7087 247.924 43.856C248.089 43.9947 248.379 44.064 248.795 44.064H249.484V45H248.483ZM251.625 37.122C251.409 37.122 251.227 37.0527 251.079 36.914C250.941 36.7667 250.871 36.5847 250.871 36.368C250.871 36.16 250.941 35.9867 251.079 35.848C251.227 35.7093 251.409 35.64 251.625 35.64C251.833 35.64 252.011 35.7093 252.158 35.848C252.306 35.9867 252.379 36.16 252.379 36.368C252.379 36.5847 252.306 36.7667 252.158 36.914C252.011 37.0527 251.833 37.122 251.625 37.122ZM251.079 45V38.552H252.171V45H251.079ZM254.424 45V39.475H253.449V38.552H254.424V37.694C254.424 37.07 254.58 36.615 254.892 36.329C255.204 36.043 255.659 35.9 256.257 35.9H256.907V36.836H256.426C256.096 36.836 255.862 36.9053 255.724 37.044C255.585 37.174 255.516 37.3993 255.516 37.72V38.552H257.102V39.475H255.516V45H254.424ZM259.104 47.86L260.534 44.74L257.765 38.552H258.948L261.08 43.57L263.342 38.552H264.473L260.248 47.86H259.104ZM271.432 45.156C270.929 45.156 270.487 45.0563 270.106 44.857C269.733 44.649 269.443 44.337 269.235 43.921C269.027 43.4963 268.923 42.9633 268.923 42.322V38.552H270.015V42.205C270.015 42.8723 270.154 43.375 270.431 43.713C270.708 44.051 271.124 44.22 271.679 44.22C272.234 44.22 272.693 44.0207 273.057 43.622C273.43 43.2147 273.616 42.6383 273.616 41.893V38.552H274.708V45H273.72L273.655 43.843C273.447 44.2503 273.148 44.571 272.758 44.805C272.368 45.039 271.926 45.156 271.432 45.156ZM276.505 45V38.552H277.493L277.558 39.709C277.766 39.3017 278.065 38.981 278.455 38.747C278.845 38.513 279.287 38.396 279.781 38.396C280.544 38.396 281.151 38.63 281.601 39.098C282.061 39.5573 282.29 40.268 282.29 41.23V45H281.198V41.347C281.198 40.6797 281.06 40.177 280.782 39.839C280.505 39.501 280.089 39.332 279.534 39.332C278.98 39.332 278.516 39.5357 278.143 39.943C277.779 40.3417 277.597 40.9137 277.597 41.659V45H276.505ZM286.883 45.156C286.224 45.156 285.656 45.0043 285.18 44.701C284.703 44.3977 284.335 43.9903 284.075 43.479C283.815 42.9677 283.685 42.3957 283.685 41.763C283.685 41.139 283.81 40.5713 284.062 40.06C284.322 39.5487 284.69 39.1457 285.167 38.851C285.643 38.5477 286.22 38.396 286.896 38.396C287.424 38.396 287.892 38.5043 288.3 38.721C288.707 38.9377 289.023 39.241 289.249 39.631V35.9H290.341V45H289.353L289.249 43.934C289.041 44.246 288.742 44.5277 288.352 44.779C287.962 45.0303 287.472 45.156 286.883 45.156ZM287 44.207C287.476 44.207 287.879 44.0987 288.209 43.882C288.538 43.6567 288.785 43.362 288.95 42.998C289.123 42.6253 289.21 42.218 289.21 41.776C289.21 41.308 289.123 40.892 288.95 40.528C288.776 40.164 288.525 39.878 288.196 39.67C287.866 39.4533 287.468 39.345 287 39.345C286.584 39.345 286.211 39.4447 285.882 39.644C285.552 39.8433 285.288 40.125 285.089 40.489C284.898 40.8443 284.803 41.2733 284.803 41.776C284.803 42.2787 284.902 42.712 285.102 43.076C285.301 43.44 285.565 43.7217 285.895 43.921C286.233 44.1117 286.601 44.207 287 44.207ZM295.02 45.156C294.422 45.156 293.88 45.0173 293.395 44.74C292.918 44.4627 292.541 44.0727 292.264 43.57C291.986 43.0587 291.848 42.4607 291.848 41.776C291.848 41.1 291.978 40.5107 292.238 40.008C292.506 39.4967 292.879 39.1023 293.356 38.825C293.841 38.539 294.404 38.396 295.046 38.396C295.652 38.396 296.181 38.5303 296.632 38.799C297.082 39.0677 297.433 39.4317 297.685 39.891C297.945 40.3417 298.075 40.8487 298.075 41.412C298.075 41.5333 298.075 41.6287 298.075 41.698C298.075 41.7673 298.07 41.8757 298.062 42.023H292.927C292.953 42.4477 293.052 42.829 293.226 43.167C293.408 43.4963 293.65 43.7563 293.954 43.947C294.266 44.1377 294.621 44.233 295.02 44.233C295.47 44.233 295.847 44.129 296.151 43.921C296.454 43.713 296.675 43.4313 296.814 43.076H297.893C297.78 43.4747 297.594 43.83 297.334 44.142C297.074 44.454 296.749 44.701 296.359 44.883C295.977 45.065 295.531 45.156 295.02 45.156ZM292.94 41.178H296.996C296.97 40.5973 296.77 40.1423 296.398 39.813C296.025 39.4837 295.566 39.319 295.02 39.319C294.5 39.319 294.036 39.4793 293.629 39.8C293.23 40.112 293 40.5713 292.94 41.178ZM299.522 45V38.552H300.51L300.601 39.787C300.8 39.3623 301.104 39.0243 301.511 38.773C301.918 38.5217 302.421 38.396 303.019 38.396V39.54H302.72C302.009 39.54 301.481 39.7307 301.134 40.112C300.787 40.4933 300.614 41.0393 300.614 41.75V45H299.522ZM304.245 45V35.9H305.337V45H304.245ZM307.828 47.86L309.258 44.74L306.489 38.552H307.672L309.804 43.57L312.066 38.552H313.197L308.972 47.86H307.828ZM315.013 37.122C314.796 37.122 314.614 37.0527 314.467 36.914C314.328 36.7667 314.259 36.5847 314.259 36.368C314.259 36.16 314.328 35.9867 314.467 35.848C314.614 35.7093 314.796 35.64 315.013 35.64C315.221 35.64 315.399 35.7093 315.546 35.848C315.693 35.9867 315.767 36.16 315.767 36.368C315.767 36.5847 315.693 36.7667 315.546 36.914C315.399 37.0527 315.221 37.122 315.013 37.122ZM314.467 45V38.552H315.559V45H314.467ZM317.46 45V38.552H318.448L318.513 39.709C318.721 39.3017 319.02 38.981 319.41 38.747C319.8 38.513 320.242 38.396 320.736 38.396C321.499 38.396 322.106 38.63 322.556 39.098C323.016 39.5573 323.245 40.268 323.245 41.23V45H322.153V41.347C322.153 40.6797 322.015 40.177 321.737 39.839C321.46 39.501 321.044 39.332 320.489 39.332C319.935 39.332 319.471 39.5357 319.098 39.943C318.734 40.3417 318.552 40.9137 318.552 41.659V45H317.46ZM327.474 48.016C326.962 48.016 326.473 47.951 326.005 47.821C325.537 47.691 325.155 47.47 324.861 47.158C324.575 46.8547 324.432 46.4473 324.432 45.936C324.432 45.5807 324.514 45.286 324.679 45.052C324.843 44.818 325.06 44.6403 325.329 44.519C325.121 44.3977 324.952 44.246 324.822 44.064C324.692 43.882 324.627 43.674 324.627 43.44C324.627 42.92 324.861 42.4997 325.329 42.179C325.155 41.9797 325.017 41.7587 324.913 41.516C324.817 41.2647 324.77 40.9873 324.77 40.684C324.77 40.2073 324.878 39.8 325.095 39.462C325.32 39.1153 325.623 38.851 326.005 38.669C326.395 38.487 326.837 38.396 327.331 38.396C327.695 38.396 328.037 38.448 328.358 38.552H330.555V39.475H329.554C329.666 39.6483 329.749 39.839 329.801 40.047C329.861 40.2463 329.892 40.4587 329.892 40.684C329.892 41.178 329.775 41.594 329.541 41.932C329.315 42.27 329.008 42.53 328.618 42.712C328.236 42.8853 327.807 42.972 327.331 42.972C327.088 42.972 326.867 42.946 326.668 42.894C326.468 42.842 326.269 42.7683 326.07 42.673C325.844 42.7857 325.732 42.959 325.732 43.193C325.732 43.6263 326.096 43.843 326.824 43.843H327.903C328.388 43.843 328.817 43.908 329.19 44.038C329.562 44.1593 329.853 44.363 330.061 44.649C330.277 44.9263 330.386 45.3077 330.386 45.793C330.386 46.287 330.247 46.6987 329.97 47.028C329.692 47.3573 329.333 47.6043 328.891 47.769C328.449 47.9337 327.976 48.016 327.474 48.016ZM327.448 47.106C327.968 47.106 328.41 47.0063 328.774 46.807C329.138 46.6163 329.32 46.3217 329.32 45.923C329.32 45.1777 328.869 44.805 327.968 44.805H326.863C326.438 44.805 326.104 44.896 325.862 45.078C325.619 45.2687 325.498 45.5503 325.498 45.923C325.498 46.209 325.589 46.4387 325.771 46.612C325.953 46.7853 326.191 46.911 326.486 46.989C326.78 47.067 327.101 47.106 327.448 47.106ZM327.305 42.062C327.755 42.062 328.124 41.932 328.41 41.672C328.696 41.412 328.839 41.0827 328.839 40.684C328.839 40.2853 328.696 39.956 328.41 39.696C328.124 39.436 327.755 39.306 327.305 39.306C326.854 39.306 326.49 39.436 326.213 39.696C325.944 39.956 325.81 40.2853 325.81 40.684C325.81 41.0827 325.94 41.412 326.2 41.672C326.468 41.932 326.837 42.062 327.305 42.062ZM222.445 62C221.856 62 221.392 61.857 221.054 61.571C220.716 61.285 220.547 60.7693 220.547 60.024V56.475H219.429V55.552H220.547V54.005H221.639V55.552H223.446V56.475H221.639V60.024C221.639 60.4313 221.721 60.7087 221.886 60.856C222.051 60.9947 222.341 61.064 222.757 61.064H223.446V62H222.445ZM224.924 62V55.552H225.912L226.003 56.787C226.203 56.3623 226.506 56.0243 226.913 55.773C227.321 55.5217 227.823 55.396 228.421 55.396V56.54H228.122C227.412 56.54 226.883 56.7307 226.536 57.112C226.19 57.4933 226.016 58.0393 226.016 58.75V62H224.924ZM232.305 62.156C231.707 62.156 231.165 62.0173 230.68 61.74C230.203 61.4627 229.826 61.0727 229.549 60.57C229.271 60.0587 229.133 59.4607 229.133 58.776C229.133 58.1 229.263 57.5107 229.523 57.008C229.791 56.4967 230.164 56.1023 230.641 55.825C231.126 55.539 231.689 55.396 232.331 55.396C232.937 55.396 233.466 55.5303 233.917 55.799C234.367 56.0677 234.718 56.4317 234.97 56.891C235.23 57.3417 235.36 57.8487 235.36 58.412C235.36 58.5333 235.36 58.6287 235.36 58.698C235.36 58.7673 235.355 58.8757 235.347 59.023H230.212C230.238 59.4477 230.337 59.829 230.511 60.167C230.693 60.4963 230.935 60.7563 231.239 60.947C231.551 61.1377 231.906 61.233 232.305 61.233C232.755 61.233 233.132 61.129 233.436 60.921C233.739 60.713 233.96 60.4313 234.099 60.076H235.178C235.065 60.4747 234.879 60.83 234.619 61.142C234.359 61.454 234.034 61.701 233.644 61.883C233.262 62.065 232.816 62.156 232.305 62.156ZM230.225 58.178H234.281C234.255 57.5973 234.055 57.1423 233.683 56.813C233.31 56.4837 232.851 56.319 232.305 56.319C231.785 56.319 231.321 56.4793 230.914 56.8C230.515 57.112 230.285 57.5713 230.225 58.178ZM236.807 62V55.552H237.795L237.86 56.709C238.068 56.3017 238.367 55.981 238.757 55.747C239.147 55.513 239.589 55.396 240.083 55.396C240.846 55.396 241.452 55.63 241.903 56.098C242.362 56.5573 242.592 57.268 242.592 58.23V62H241.5V58.347C241.5 57.6797 241.361 57.177 241.084 56.839C240.807 56.501 240.391 56.332 239.836 56.332C239.281 56.332 238.818 56.5357 238.445 56.943C238.081 57.3417 237.899 57.9137 237.899 58.659V62H236.807ZM247.184 62.156C246.526 62.156 245.958 62.0043 245.481 61.701C245.005 61.3977 244.636 60.9903 244.376 60.479C244.116 59.9677 243.986 59.3957 243.986 58.763C243.986 58.139 244.112 57.5713 244.363 57.06C244.623 56.5487 244.992 56.1457 245.468 55.851C245.945 55.5477 246.521 55.396 247.197 55.396C247.726 55.396 248.194 55.5043 248.601 55.721C249.009 55.9377 249.325 56.241 249.55 56.631V52.9H250.642V62H249.654L249.55 60.934C249.342 61.246 249.043 61.5277 248.653 61.779C248.263 62.0303 247.774 62.156 247.184 62.156ZM247.301 61.207C247.778 61.207 248.181 61.0987 248.51 60.882C248.84 60.6567 249.087 60.362 249.251 59.998C249.425 59.6253 249.511 59.218 249.511 58.776C249.511 58.308 249.425 57.892 249.251 57.528C249.078 57.164 248.827 56.878 248.497 56.67C248.168 56.4533 247.769 56.345 247.301 56.345C246.885 56.345 246.513 56.4447 246.183 56.644C245.854 56.8433 245.59 57.125 245.39 57.489C245.2 57.8443 245.104 58.2733 245.104 58.776C245.104 59.2787 245.204 59.712 245.403 60.076C245.603 60.44 245.867 60.7217 246.196 60.921C246.534 61.1117 246.903 61.207 247.301 61.207ZM254.892 62.156C254.381 62.156 253.922 62.0693 253.514 61.896C253.107 61.714 252.778 61.4627 252.526 61.142C252.284 60.8127 252.132 60.427 252.071 59.985H253.189C253.259 60.323 253.436 60.6177 253.722 60.869C254.017 61.1117 254.411 61.233 254.905 61.233C255.365 61.233 255.703 61.1377 255.919 60.947C256.136 60.7477 256.244 60.5137 256.244 60.245C256.244 59.985 256.179 59.7857 256.049 59.647C255.928 59.5083 255.746 59.4043 255.503 59.335C255.269 59.257 254.979 59.1833 254.632 59.114C254.268 59.036 253.913 58.932 253.566 58.802C253.22 58.6633 252.934 58.477 252.708 58.243C252.483 58.009 252.37 57.7013 252.37 57.32C252.37 56.9387 252.466 56.605 252.656 56.319C252.847 56.033 253.116 55.8077 253.462 55.643C253.818 55.4783 254.234 55.396 254.71 55.396C255.395 55.396 255.954 55.5693 256.387 55.916C256.829 56.254 257.085 56.7393 257.154 57.372H256.075C256.032 57.0427 255.889 56.787 255.646 56.605C255.412 56.4143 255.096 56.319 254.697 56.319C254.307 56.319 254.004 56.4013 253.787 56.566C253.579 56.7307 253.475 56.9473 253.475 57.216C253.475 57.3893 253.536 57.5367 253.657 57.658C253.779 57.7793 253.952 57.8833 254.177 57.97C254.411 58.0567 254.684 58.1347 254.996 58.204C255.43 58.2907 255.824 58.399 256.179 58.529C256.535 58.659 256.821 58.8497 257.037 59.101C257.254 59.3437 257.362 59.6947 257.362 60.154C257.371 60.5353 257.271 60.8777 257.063 61.181C256.864 61.4843 256.578 61.7227 256.205 61.896C255.841 62.0693 255.404 62.156 254.892 62.156ZM265.808 62.156C265.279 62.156 264.807 62.0477 264.391 61.831C263.983 61.6143 263.671 61.311 263.455 60.921L263.351 62H262.363V52.9H263.455V56.618C263.663 56.306 263.957 56.0243 264.339 55.773C264.729 55.5217 265.223 55.396 265.821 55.396C266.471 55.396 267.034 55.5433 267.511 55.838C267.987 56.1327 268.356 56.5357 268.616 57.047C268.876 57.5583 269.006 58.139 269.006 58.789C269.006 59.4303 268.876 60.0067 268.616 60.518C268.356 61.0293 267.983 61.4323 267.498 61.727C267.021 62.013 266.458 62.156 265.808 62.156ZM265.691 61.207C266.133 61.207 266.518 61.1073 266.848 60.908C267.177 60.7 267.433 60.414 267.615 60.05C267.805 59.6773 267.901 59.2527 267.901 58.776C267.901 58.3167 267.81 57.905 267.628 57.541C267.454 57.1683 267.203 56.878 266.874 56.67C266.544 56.4533 266.15 56.345 265.691 56.345C265.257 56.345 264.872 56.449 264.534 56.657C264.204 56.8563 263.944 57.138 263.754 57.502C263.572 57.866 263.481 58.2907 263.481 58.776C263.481 59.2267 263.572 59.6383 263.754 60.011C263.936 60.375 264.191 60.6653 264.521 60.882C264.85 61.0987 265.24 61.207 265.691 61.207ZM273.425 62.156C272.827 62.156 272.285 62.0173 271.8 61.74C271.323 61.4627 270.946 61.0727 270.669 60.57C270.392 60.0587 270.253 59.4607 270.253 58.776C270.253 58.1 270.383 57.5107 270.643 57.008C270.912 56.4967 271.284 56.1023 271.761 55.825C272.246 55.539 272.81 55.396 273.451 55.396C274.058 55.396 274.586 55.5303 275.037 55.799C275.488 56.0677 275.839 56.4317 276.09 56.891C276.35 57.3417 276.48 57.8487 276.48 58.412C276.48 58.5333 276.48 58.6287 276.48 58.698C276.48 58.7673 276.476 58.8757 276.467 59.023H271.332C271.358 59.4477 271.458 59.829 271.631 60.167C271.813 60.4963 272.056 60.7563 272.359 60.947C272.671 61.1377 273.026 61.233 273.425 61.233C273.876 61.233 274.253 61.129 274.556 60.921C274.859 60.713 275.08 60.4313 275.219 60.076H276.298C276.185 60.4747 275.999 60.83 275.739 61.142C275.479 61.454 275.154 61.701 274.764 61.883C274.383 62.065 273.936 62.156 273.425 62.156ZM271.345 58.178H275.401C275.375 57.5973 275.176 57.1423 274.803 56.813C274.43 56.4837 273.971 56.319 273.425 56.319C272.905 56.319 272.441 56.4793 272.034 56.8C271.635 57.112 271.406 57.5713 271.345 58.178ZM278.278 62V56.475H277.303V55.552H278.278V54.694C278.278 54.07 278.434 53.615 278.746 53.329C279.058 53.043 279.513 52.9 280.111 52.9H280.761V53.836H280.28C279.951 53.836 279.717 53.9053 279.578 54.044C279.44 54.174 279.37 54.3993 279.37 54.72V55.552H280.956V56.475H279.37V62H278.278ZM284.979 62.156C284.39 62.156 283.848 62.026 283.354 61.766C282.86 61.4973 282.466 61.1117 282.171 60.609C281.877 60.0977 281.729 59.4823 281.729 58.763C281.729 58.0783 281.872 57.4847 282.158 56.982C282.453 56.4793 282.847 56.0893 283.341 55.812C283.844 55.5347 284.407 55.396 285.031 55.396C285.629 55.396 286.175 55.526 286.669 55.786C287.172 56.046 287.575 56.4273 287.878 56.93C288.182 57.4327 288.333 58.0437 288.333 58.763C288.333 59.4217 288.19 60.0067 287.904 60.518C287.618 61.0293 287.22 61.4323 286.708 61.727C286.206 62.013 285.629 62.156 284.979 62.156ZM284.979 61.207C285.404 61.207 285.785 61.1073 286.123 60.908C286.461 60.7 286.73 60.414 286.929 60.05C287.129 59.686 287.228 59.257 287.228 58.763C287.228 58.295 287.142 57.879 286.968 57.515C286.795 57.151 286.544 56.865 286.214 56.657C285.885 56.449 285.486 56.345 285.018 56.345C284.542 56.345 284.139 56.4533 283.809 56.67C283.489 56.8867 283.246 57.177 283.081 57.541C282.917 57.905 282.834 58.3123 282.834 58.763C282.834 59.335 282.938 59.803 283.146 60.167C283.354 60.5223 283.623 60.7867 283.952 60.96C284.282 61.1247 284.624 61.207 284.979 61.207ZM289.848 62V55.552H290.836L290.927 56.787C291.127 56.3623 291.43 56.0243 291.837 55.773C292.245 55.5217 292.747 55.396 293.345 55.396V56.54H293.046C292.336 56.54 291.807 56.7307 291.46 57.112C291.114 57.4933 290.94 58.0393 290.94 58.75V62H289.848ZM297.229 62.156C296.631 62.156 296.089 62.0173 295.604 61.74C295.127 61.4627 294.75 61.0727 294.473 60.57C294.195 60.0587 294.057 59.4607 294.057 58.776C294.057 58.1 294.187 57.5107 294.447 57.008C294.715 56.4967 295.088 56.1023 295.565 55.825C296.05 55.539 296.613 55.396 297.255 55.396C297.861 55.396 298.39 55.5303 298.841 55.799C299.291 56.0677 299.642 56.4317 299.894 56.891C300.154 57.3417 300.284 57.8487 300.284 58.412C300.284 58.5333 300.284 58.6287 300.284 58.698C300.284 58.7673 300.279 58.8757 300.271 59.023H295.136C295.162 59.4477 295.261 59.829 295.435 60.167C295.617 60.4963 295.859 60.7563 296.163 60.947C296.475 61.1377 296.83 61.233 297.229 61.233C297.679 61.233 298.056 61.129 298.36 60.921C298.663 60.713 298.884 60.4313 299.023 60.076H300.102C299.989 60.4747 299.803 60.83 299.543 61.142C299.283 61.454 298.958 61.701 298.568 61.883C298.186 62.065 297.74 62.156 297.229 62.156ZM295.149 58.178H299.205C299.179 57.5973 298.979 57.1423 298.607 56.813C298.234 56.4837 297.775 56.319 297.229 56.319C296.709 56.319 296.245 56.4793 295.838 56.8C295.439 57.112 295.209 57.5713 295.149 58.178ZM307.719 62C307.13 62 306.666 61.857 306.328 61.571C305.99 61.285 305.821 60.7693 305.821 60.024V56.475H304.703V55.552H305.821V54.005H306.913V55.552H308.72V56.475H306.913V60.024C306.913 60.4313 306.996 60.7087 307.16 60.856C307.325 60.9947 307.615 61.064 308.031 61.064H308.72V62H307.719ZM310.199 62V52.9H311.291V56.657C311.507 56.2583 311.815 55.9507 312.214 55.734C312.612 55.5087 313.046 55.396 313.514 55.396C314.259 55.396 314.857 55.63 315.308 56.098C315.758 56.5573 315.984 57.268 315.984 58.23V62H314.905V58.347C314.905 57.6797 314.766 57.177 314.489 56.839C314.22 56.501 313.817 56.332 313.28 56.332C312.716 56.332 312.244 56.5357 311.863 56.943C311.481 57.3417 311.291 57.9137 311.291 58.659V62H310.199ZM320.537 62.156C319.939 62.156 319.398 62.0173 318.912 61.74C318.436 61.4627 318.059 61.0727 317.781 60.57C317.504 60.0587 317.365 59.4607 317.365 58.776C317.365 58.1 317.495 57.5107 317.755 57.008C318.024 56.4967 318.397 56.1023 318.873 55.825C319.359 55.539 319.922 55.396 320.563 55.396C321.17 55.396 321.699 55.5303 322.149 55.799C322.6 56.0677 322.951 56.4317 323.202 56.891C323.462 57.3417 323.592 57.8487 323.592 58.412C323.592 58.5333 323.592 58.6287 323.592 58.698C323.592 58.7673 323.588 58.8757 323.579 59.023H318.444C318.47 59.4477 318.57 59.829 318.743 60.167C318.925 60.4963 319.168 60.7563 319.471 60.947C319.783 61.1377 320.139 61.233 320.537 61.233C320.988 61.233 321.365 61.129 321.668 60.921C321.972 60.713 322.193 60.4313 322.331 60.076H323.41C323.298 60.4747 323.111 60.83 322.851 61.142C322.591 61.454 322.266 61.701 321.876 61.883C321.495 62.065 321.049 62.156 320.537 62.156ZM318.457 58.178H322.513C322.487 57.5973 322.288 57.1423 321.915 56.813C321.543 56.4837 321.083 56.319 320.537 56.319C320.017 56.319 319.554 56.4793 319.146 56.8C318.748 57.112 318.518 57.5713 318.457 58.178ZM325.488 64.86L326.918 61.74L324.149 55.552H325.332L327.464 60.57L329.726 55.552H330.857L326.632 64.86H325.488ZM222.367 79.156C221.856 79.156 221.396 79.0693 220.989 78.896C220.582 78.714 220.252 78.4627 220.001 78.142C219.758 77.8127 219.607 77.427 219.546 76.985H220.664C220.733 77.323 220.911 77.6177 221.197 77.869C221.492 78.1117 221.886 78.233 222.38 78.233C222.839 78.233 223.177 78.1377 223.394 77.947C223.611 77.7477 223.719 77.5137 223.719 77.245C223.719 76.985 223.654 76.7857 223.524 76.647C223.403 76.5083 223.221 76.4043 222.978 76.335C222.744 76.257 222.454 76.1833 222.107 76.114C221.743 76.036 221.388 75.932 221.041 75.802C220.694 75.6633 220.408 75.477 220.183 75.243C219.958 75.009 219.845 74.7013 219.845 74.32C219.845 73.9387 219.94 73.605 220.131 73.319C220.322 73.033 220.59 72.8077 220.937 72.643C221.292 72.4783 221.708 72.396 222.185 72.396C222.87 72.396 223.429 72.5693 223.862 72.916C224.304 73.254 224.56 73.7393 224.629 74.372H223.55C223.507 74.0427 223.364 73.787 223.121 73.605C222.887 73.4143 222.571 73.319 222.172 73.319C221.782 73.319 221.479 73.4013 221.262 73.566C221.054 73.7307 220.95 73.9473 220.95 74.216C220.95 74.3893 221.011 74.5367 221.132 74.658C221.253 74.7793 221.427 74.8833 221.652 74.97C221.886 75.0567 222.159 75.1347 222.471 75.204C222.904 75.2907 223.299 75.399 223.654 75.529C224.009 75.659 224.295 75.8497 224.512 76.101C224.729 76.3437 224.837 76.6947 224.837 77.154C224.846 77.5353 224.746 77.8777 224.538 78.181C224.339 78.4843 224.053 78.7227 223.68 78.896C223.316 79.0693 222.878 79.156 222.367 79.156ZM228.763 79.156C228.26 79.156 227.818 79.0563 227.437 78.857C227.064 78.649 226.774 78.337 226.566 77.921C226.358 77.4963 226.254 76.9633 226.254 76.322V72.552H227.346V76.205C227.346 76.8723 227.485 77.375 227.762 77.713C228.039 78.051 228.455 78.22 229.01 78.22C229.565 78.22 230.024 78.0207 230.388 77.622C230.761 77.2147 230.947 76.6383 230.947 75.893V72.552H232.039V79H231.051L230.986 77.843C230.778 78.2503 230.479 78.571 230.089 78.805C229.699 79.039 229.257 79.156 228.763 79.156ZM233.836 79V72.552H234.824L234.915 73.787C235.115 73.3623 235.418 73.0243 235.825 72.773C236.233 72.5217 236.735 72.396 237.333 72.396V73.54H237.034C236.324 73.54 235.795 73.7307 235.448 74.112C235.102 74.4933 234.928 75.0393 234.928 75.75V79H233.836ZM238.91 79V73.475H237.935V72.552H238.91V71.694C238.91 71.07 239.066 70.615 239.378 70.329C239.69 70.043 240.145 69.9 240.743 69.9H241.393V70.836H240.912C240.583 70.836 240.349 70.9053 240.21 71.044C240.071 71.174 240.002 71.3993 240.002 71.72V72.552H241.588V73.475H240.002V79H238.91ZM244.779 79.156C244.337 79.156 243.934 79.0823 243.57 78.935C243.206 78.7877 242.916 78.5667 242.699 78.272C242.491 77.9687 242.387 77.6003 242.387 77.167C242.387 76.6643 242.517 76.2657 242.777 75.971C243.037 75.6677 243.38 75.451 243.804 75.321C244.238 75.1823 244.701 75.113 245.195 75.113H246.937C246.937 74.6623 246.859 74.307 246.703 74.047C246.556 73.787 246.361 73.6007 246.118 73.488C245.876 73.3753 245.607 73.319 245.312 73.319C244.888 73.319 244.519 73.423 244.207 73.631C243.904 73.8303 243.713 74.1423 243.635 74.567H242.517C242.561 74.099 242.717 73.7047 242.985 73.384C243.254 73.0633 243.592 72.8207 243.999 72.656C244.415 72.4827 244.853 72.396 245.312 72.396C245.962 72.396 246.487 72.5173 246.885 72.76C247.284 72.994 247.574 73.3103 247.756 73.709C247.938 74.1077 248.029 74.5497 248.029 75.035V77.011C248.029 77.3317 248.068 77.5743 248.146 77.739C248.224 77.9037 248.424 78.0033 248.744 78.038V79C248.458 79 248.198 78.9653 247.964 78.896C247.73 78.818 247.531 78.6967 247.366 78.532C247.21 78.3587 247.098 78.1333 247.028 77.856C246.812 78.22 246.513 78.5277 246.131 78.779C245.759 79.0303 245.308 79.156 244.779 79.156ZM244.948 78.233C245.382 78.233 245.746 78.1247 246.04 77.908C246.335 77.6827 246.556 77.3967 246.703 77.05C246.859 76.7033 246.937 76.3437 246.937 75.971V75.958H245.286C244.983 75.958 244.697 75.9927 244.428 76.062C244.16 76.1227 243.943 76.2397 243.778 76.413C243.614 76.5777 243.531 76.8117 243.531 77.115C243.531 77.505 243.67 77.791 243.947 77.973C244.225 78.1463 244.558 78.233 244.948 78.233ZM252.873 79.156C252.266 79.156 251.716 79.0173 251.222 78.74C250.736 78.4627 250.351 78.0727 250.065 77.57C249.779 77.0587 249.636 76.4607 249.636 75.776C249.636 75.1087 249.774 74.5237 250.052 74.021C250.329 73.5097 250.71 73.111 251.196 72.825C251.681 72.539 252.24 72.396 252.873 72.396C253.635 72.396 254.277 72.5953 254.797 72.994C255.325 73.3927 255.659 73.9257 255.798 74.593H254.68C254.593 74.1943 254.381 73.8867 254.043 73.67C253.705 73.4447 253.31 73.332 252.86 73.332C252.4 73.332 252.015 73.4447 251.703 73.67C251.391 73.8953 251.152 74.1943 250.988 74.567C250.832 74.9397 250.754 75.3427 250.754 75.776C250.754 76.2527 250.845 76.6773 251.027 77.05C251.209 77.4227 251.456 77.713 251.768 77.921C252.088 78.129 252.452 78.233 252.86 78.233C253.31 78.233 253.705 78.1247 254.043 77.908C254.381 77.6827 254.593 77.3663 254.68 76.959H255.798C255.711 77.3923 255.533 77.7737 255.265 78.103C254.996 78.4323 254.658 78.6923 254.251 78.883C253.843 79.065 253.384 79.156 252.873 79.156ZM260.222 79.156C259.624 79.156 259.082 79.0173 258.597 78.74C258.12 78.4627 257.743 78.0727 257.466 77.57C257.188 77.0587 257.05 76.4607 257.05 75.776C257.05 75.1 257.18 74.5107 257.44 74.008C257.708 73.4967 258.081 73.1023 258.558 72.825C259.043 72.539 259.606 72.396 260.248 72.396C260.854 72.396 261.383 72.5303 261.834 72.799C262.284 73.0677 262.635 73.4317 262.887 73.891C263.147 74.3417 263.277 74.8487 263.277 75.412C263.277 75.5333 263.277 75.6287 263.277 75.698C263.277 75.7673 263.272 75.8757 263.264 76.023H258.129C258.155 76.4477 258.254 76.829 258.428 77.167C258.61 77.4963 258.852 77.7563 259.156 77.947C259.468 78.1377 259.823 78.233 260.222 78.233C260.672 78.233 261.049 78.129 261.353 77.921C261.656 77.713 261.877 77.4313 262.016 77.076H263.095C262.982 77.4747 262.796 77.83 262.536 78.142C262.276 78.454 261.951 78.701 261.561 78.883C261.179 79.065 260.733 79.156 260.222 79.156ZM258.142 75.178H262.198C262.172 74.5973 261.972 74.1423 261.6 73.813C261.227 73.4837 260.768 73.319 260.222 73.319C259.702 73.319 259.238 73.4793 258.831 73.8C258.432 74.112 258.202 74.5713 258.142 75.178ZM265.101 79.065C264.884 79.065 264.702 78.9957 264.555 78.857C264.416 78.7097 264.347 78.532 264.347 78.324C264.347 78.116 264.416 77.9427 264.555 77.804C264.702 77.6567 264.884 77.583 265.101 77.583C265.309 77.583 265.482 77.6567 265.621 77.804C265.768 77.9427 265.842 78.116 265.842 78.324C265.842 78.532 265.768 78.7097 265.621 78.857C265.482 78.9957 265.309 79.065 265.101 79.065Z" fill="black"/>
<defs>
<linearGradient id="paint0_linear_71_23" x1="92.73" y1="190.78" x2="264.62" y2="190.78" gradientUnits="userSpaceOnUse">
<stop stop-color="#CECECE" stop-opacity="0.3"/>
<stop offset="1" stop-color="#CECECE"/>
</linearGradient>
<linearGradient id="paint1_linear_71_23" x1="192.92" y1="165.94" x2="164.44" y2="194.42" gradientUnits="userSpaceOnUse">
<stop stop-color="#FE889C"/>
<stop offset="0.41" stop-color="#DC7ED1"/>
<stop offset="0.72" stop-color="#9E92E4"/>
<stop offset="1" stop-color="#43AEFF"/>
</linearGradient>
<linearGradient id="paint2_linear_71_23" x1="259.74" y1="46.3" x2="99.46" y2="323.92" gradientUnits="userSpaceOnUse">
<stop stop-color="#FE889C"/>
<stop offset="0.42" stop-color="#DC7ED1"/>
<stop offset="0.78" stop-color="#9E92E4"/>
<stop offset="1" stop-color="#43AEFF"/>
</linearGradient>
<linearGradient id="paint3_linear_71_23" x1="265.95" y1="292.79" x2="282.62" y2="292.79" gradientUnits="userSpaceOnUse">
<stop stop-color="#FE889C"/>
<stop offset="0.42" stop-color="#DC7ED1"/>
<stop offset="0.78" stop-color="#9E92E4"/>
<stop offset="1" stop-color="#43AEFF"/>
</linearGradient>
<linearGradient id="paint4_linear_71_23" x1="68" y1="82.85" x2="113.97" y2="82.85" gradientUnits="userSpaceOnUse">
<stop stop-color="#FE889C"/>
<stop offset="0.42" stop-color="#DC7ED1"/>
<stop offset="0.78" stop-color="#9E92E4"/>
<stop offset="1" stop-color="#43AEFF"/>
</linearGradient>
<linearGradient id="paint5_linear_71_23" x1="92" y1="189.94" x2="263.89" y2="189.94" gradientUnits="userSpaceOnUse">
<stop stop-color="#CECECE" stop-opacity="0.3"/>
<stop offset="1" stop-color="#CECECE"/>
</linearGradient>
<clipPath id="clip0_71_23">
<rect width="214.62" height="368.38" fill="white" transform="translate(68)"/>
</clipPath>
<clipPath id="clip1_71_23">
<rect width="171.89" height="171.89" fill="white" transform="translate(92 104)"/>
</clipPath>
</defs>
</svg>
