<svg width="1223" height="713" viewBox="0 0 1223 713" fill="none" xmlns="http://www.w3.org/2000/svg">
<g clip-path="url(#clip0_11_767)">
<path style="mix-blend-mode:screen" d="M916.677 344.94C916.677 188.342 789.729 61.395 633.132 61.395C476.534 61.395 349.586 188.342 349.586 344.94C349.586 501.538 476.534 628.485 633.132 628.485C789.729 628.485 916.677 501.538 916.677 344.94Z" stroke="url(#paint0_linear_11_767)" stroke-miterlimit="10"/>
<path d="M1025.1 344.94L206.951 344.94" stroke="#9B9B9B" stroke-miterlimit="10"/>
<path d="M743.477 344.94C743.477 283.998 694.073 234.595 633.132 234.595C572.19 234.595 522.786 283.998 522.786 344.94C522.786 405.882 572.19 455.285 633.132 455.285C694.073 455.285 743.477 405.882 743.477 344.94Z" fill="#43AEFF"/>
<path d="M455.584 134.77C455.584 126.174 448.615 119.206 440.019 119.206C431.423 119.206 424.455 126.174 424.455 134.77C424.455 143.366 431.423 150.335 440.019 150.335C448.615 150.335 455.584 143.366 455.584 134.77Z" fill="#DC7CD1"/>
<path d="M691.838 628.519C691.838 613.581 679.729 601.472 664.791 601.472C649.854 601.472 637.744 613.581 637.744 628.519C637.744 643.456 649.854 655.566 664.791 655.566C679.729 655.566 691.838 643.456 691.838 628.519Z" fill="#DC7CD1"/>
<path style="mix-blend-mode:screen" opacity="0.8" d="M664.791 344.94C664.791 308.027 634.867 278.103 597.954 278.103C561.04 278.103 531.116 308.027 531.116 344.94C531.116 381.854 561.04 411.778 597.954 411.778C634.867 411.778 664.791 381.854 664.791 344.94Z" fill="url(#paint1_linear_11_767)"/>
<path d="M253.08 301.997C276.808 301.997 296.023 321.245 296.023 344.94C296.023 368.635 276.775 387.884 253.08 387.884C229.385 387.884 210.137 368.635 210.137 344.94C210.137 321.245 229.385 301.997 253.08 301.997ZM107.325 344.94C107.325 360.073 119.604 372.352 134.737 372.352C149.87 372.352 162.149 360.073 162.149 344.94C162.149 329.807 149.87 317.528 134.737 317.528C119.604 317.528 107.325 329.807 107.325 344.94ZM38.0649 344.94C38.0649 350.847 42.877 355.659 48.7841 355.659C54.6913 355.659 59.5034 350.847 59.5034 344.94C59.5034 339.033 54.6913 334.221 48.7841 334.221C42.877 334.221 38.0649 339.033 38.0649 344.94ZM2.86405e-05 344.94C2.88987e-05 350.847 4.81207 355.659 10.7193 355.659C16.6265 355.659 21.4385 350.847 21.4385 344.94C21.4385 339.033 16.6265 334.221 10.7193 334.221C4.81207 334.221 2.83823e-05 339.033 2.86405e-05 344.94ZM970.24 344.94C970.24 360.073 982.519 372.352 997.652 372.352C1012.78 372.352 1025.06 360.073 1025.06 344.94C1025.06 329.807 1012.78 317.528 997.652 317.528C982.519 317.528 970.24 329.807 970.24 344.94ZM1167.67 344.94C1167.67 360.073 1179.95 372.352 1195.08 372.352C1210.21 372.352 1222.49 360.073 1222.49 344.94C1222.49 329.807 1210.21 317.528 1195.08 317.528C1179.95 317.528 1167.67 329.807 1167.67 344.94ZM1123.33 344.94C1123.33 350.847 1128.14 355.659 1134.05 355.659C1139.96 355.659 1144.77 350.847 1144.77 344.94C1144.77 339.033 1139.96 334.221 1134.05 334.221C1128.14 334.221 1123.33 339.033 1123.33 344.94ZM1085.26 344.94C1085.26 350.847 1090.08 355.659 1095.98 355.659C1101.89 355.659 1106.7 350.847 1106.7 344.94C1106.7 339.033 1101.89 334.221 1095.98 334.221C1090.08 334.221 1085.26 339.033 1085.26 344.94Z" fill="url(#paint2_linear_11_767)"/>
<path d="M997.652 27.6443C997.652 13.2932 986.018 1.6593 971.667 1.6593C957.316 1.65931 945.682 13.2932 945.682 27.6443C945.682 41.9954 957.316 53.6293 971.667 53.6293C986.018 53.6293 997.652 41.9954 997.652 27.6443Z" stroke="url(#paint3_linear_11_767)" stroke-miterlimit="10"/>
<path d="M349.586 635.952C349.586 594.732 316.17 561.316 274.95 561.316C233.729 561.316 200.314 594.732 200.314 635.952C200.314 677.173 233.729 710.589 274.95 710.589C316.17 710.589 349.586 677.173 349.586 635.952Z" stroke="url(#paint4_linear_11_767)" stroke-miterlimit="10"/>
</g>
<path d="M541.236 509V495.118H536.638V493.6H547.682V495.118H543.084V509H541.236ZM552.737 509.264C551.886 509.264 551.138 509.095 550.493 508.758C549.862 508.406 549.371 507.878 549.019 507.174C548.667 506.455 548.491 505.553 548.491 504.468V498.088H550.339V504.27C550.339 505.399 550.574 506.25 551.043 506.822C551.512 507.394 552.216 507.68 553.155 507.68C554.094 507.68 554.871 507.343 555.487 506.668C556.118 505.979 556.433 505.003 556.433 503.742V498.088H558.281V509H556.609L556.499 507.042C556.147 507.731 555.641 508.274 554.981 508.67C554.321 509.066 553.573 509.264 552.737 509.264ZM561.323 509V498.088H562.995L563.149 500.178C563.486 499.459 563.999 498.887 564.689 498.462C565.378 498.037 566.229 497.824 567.241 497.824V499.76H566.735C565.532 499.76 564.637 500.083 564.051 500.728C563.464 501.373 563.171 502.297 563.171 503.5V509H561.323ZM569.315 509V498.088H570.987L571.097 500.046C571.449 499.357 571.955 498.814 572.615 498.418C573.275 498.022 574.023 497.824 574.859 497.824C576.15 497.824 577.176 498.22 577.939 499.012C578.716 499.789 579.105 500.992 579.105 502.62V509H577.257V502.818C577.257 501.689 577.022 500.838 576.553 500.266C576.084 499.694 575.38 499.408 574.441 499.408C573.502 499.408 572.718 499.753 572.087 500.442C571.471 501.117 571.163 502.085 571.163 503.346V509H569.315ZM587.748 509V498.088H589.42L589.574 500.178C589.912 499.459 590.425 498.887 591.114 498.462C591.804 498.037 592.654 497.824 593.666 497.824V499.76H593.16C591.958 499.76 591.063 500.083 590.476 500.728C589.89 501.373 589.596 502.297 589.596 503.5V509H587.748ZM599.371 509.264C598.623 509.264 597.941 509.139 597.325 508.89C596.709 508.641 596.217 508.267 595.851 507.768C595.499 507.255 595.323 506.631 595.323 505.898C595.323 505.047 595.543 504.373 595.983 503.874C596.423 503.361 597.002 502.994 597.721 502.774C598.454 502.539 599.239 502.422 600.075 502.422H603.023C603.023 501.659 602.891 501.058 602.627 500.618C602.377 500.178 602.047 499.863 601.637 499.672C601.226 499.481 600.771 499.386 600.273 499.386C599.554 499.386 598.931 499.562 598.403 499.914C597.889 500.251 597.567 500.779 597.435 501.498H595.543C595.616 500.706 595.88 500.039 596.335 499.496C596.789 498.953 597.361 498.543 598.051 498.264C598.755 497.971 599.495 497.824 600.273 497.824C601.373 497.824 602.26 498.029 602.935 498.44C603.609 498.836 604.101 499.371 604.409 500.046C604.717 500.721 604.871 501.469 604.871 502.29V505.634C604.871 506.177 604.937 506.587 605.069 506.866C605.201 507.145 605.538 507.313 606.081 507.372V509C605.597 509 605.157 508.941 604.761 508.824C604.365 508.692 604.027 508.487 603.749 508.208C603.485 507.915 603.294 507.533 603.177 507.064C602.81 507.68 602.304 508.201 601.659 508.626C601.028 509.051 600.265 509.264 599.371 509.264ZM599.657 507.702C600.39 507.702 601.006 507.519 601.505 507.152C602.003 506.771 602.377 506.287 602.627 505.7C602.891 505.113 603.023 504.505 603.023 503.874V503.852H600.229C599.715 503.852 599.231 503.911 598.777 504.028C598.322 504.131 597.955 504.329 597.677 504.622C597.398 504.901 597.259 505.297 597.259 505.81C597.259 506.47 597.493 506.954 597.963 507.262C598.432 507.555 598.997 507.702 599.657 507.702ZM610.294 509L607.104 498.088H608.952L611.262 506.646L613.814 498.088H615.904L618.478 506.646L620.766 498.088H622.636L619.446 509H617.554L614.87 500.002L612.186 509H610.294ZM634.682 509.264C633.817 509.264 633.04 509.117 632.35 508.824C631.661 508.516 631.104 508.091 630.678 507.548C630.268 506.991 630.011 506.338 629.908 505.59H631.8C631.918 506.162 632.218 506.661 632.702 507.086C633.201 507.497 633.868 507.702 634.704 507.702C635.482 507.702 636.054 507.541 636.42 507.218C636.787 506.881 636.97 506.485 636.97 506.03C636.97 505.59 636.86 505.253 636.64 505.018C636.435 504.783 636.127 504.607 635.716 504.49C635.32 504.358 634.829 504.233 634.242 504.116C633.626 503.984 633.025 503.808 632.438 503.588C631.852 503.353 631.368 503.038 630.986 502.642C630.605 502.246 630.414 501.725 630.414 501.08C630.414 500.435 630.576 499.87 630.898 499.386C631.221 498.902 631.676 498.521 632.262 498.242C632.864 497.963 633.568 497.824 634.374 497.824C635.533 497.824 636.479 498.117 637.212 498.704C637.96 499.276 638.393 500.097 638.51 501.168H636.684C636.611 500.611 636.369 500.178 635.958 499.87C635.562 499.547 635.027 499.386 634.352 499.386C633.692 499.386 633.179 499.525 632.812 499.804C632.46 500.083 632.284 500.449 632.284 500.904C632.284 501.197 632.387 501.447 632.592 501.652C632.798 501.857 633.091 502.033 633.472 502.18C633.868 502.327 634.33 502.459 634.858 502.576C635.592 502.723 636.259 502.906 636.86 503.126C637.462 503.346 637.946 503.669 638.312 504.094C638.679 504.505 638.862 505.099 638.862 505.876C638.877 506.521 638.708 507.101 638.356 507.614C638.019 508.127 637.535 508.531 636.904 508.824C636.288 509.117 635.548 509.264 634.682 509.264ZM642.624 495.668C642.258 495.668 641.95 495.551 641.7 495.316C641.466 495.067 641.348 494.759 641.348 494.392C641.348 494.04 641.466 493.747 641.7 493.512C641.95 493.277 642.258 493.16 642.624 493.16C642.976 493.16 643.277 493.277 643.526 493.512C643.776 493.747 643.9 494.04 643.9 494.392C643.9 494.759 643.776 495.067 643.526 495.316C643.277 495.551 642.976 495.668 642.624 495.668ZM641.7 509V498.088H643.548V509H641.7ZM651.1 514.104C650.235 514.104 649.406 513.994 648.614 513.774C647.822 513.554 647.177 513.18 646.678 512.652C646.194 512.139 645.952 511.449 645.952 510.584C645.952 509.983 646.091 509.484 646.37 509.088C646.649 508.692 647.015 508.391 647.47 508.186C647.118 507.981 646.832 507.724 646.612 507.416C646.392 507.108 646.282 506.756 646.282 506.36C646.282 505.48 646.678 504.769 647.47 504.226C647.177 503.889 646.942 503.515 646.766 503.104C646.605 502.679 646.524 502.209 646.524 501.696C646.524 500.889 646.707 500.2 647.074 499.628C647.455 499.041 647.969 498.594 648.614 498.286C649.274 497.978 650.022 497.824 650.858 497.824C651.474 497.824 652.053 497.912 652.596 498.088H656.314V499.65H654.62C654.811 499.943 654.95 500.266 655.038 500.618C655.141 500.955 655.192 501.315 655.192 501.696C655.192 502.532 654.994 503.236 654.598 503.808C654.217 504.38 653.696 504.82 653.036 505.128C652.391 505.421 651.665 505.568 650.858 505.568C650.447 505.568 650.073 505.524 649.736 505.436C649.399 505.348 649.061 505.223 648.724 505.062C648.343 505.253 648.152 505.546 648.152 505.942C648.152 506.675 648.768 507.042 650 507.042H651.826C652.647 507.042 653.373 507.152 654.004 507.372C654.635 507.577 655.126 507.922 655.478 508.406C655.845 508.875 656.028 509.521 656.028 510.342C656.028 511.178 655.793 511.875 655.324 512.432C654.855 512.989 654.246 513.407 653.498 513.686C652.75 513.965 651.951 514.104 651.1 514.104ZM651.056 512.564C651.936 512.564 652.684 512.395 653.3 512.058C653.916 511.735 654.224 511.237 654.224 510.562C654.224 509.301 653.461 508.67 651.936 508.67H650.066C649.347 508.67 648.783 508.824 648.372 509.132C647.961 509.455 647.756 509.931 647.756 510.562C647.756 511.046 647.91 511.435 648.218 511.728C648.526 512.021 648.929 512.234 649.428 512.366C649.927 512.498 650.469 512.564 651.056 512.564ZM650.814 504.028C651.577 504.028 652.2 503.808 652.684 503.368C653.168 502.928 653.41 502.371 653.41 501.696C653.41 501.021 653.168 500.464 652.684 500.024C652.2 499.584 651.577 499.364 650.814 499.364C650.051 499.364 649.435 499.584 648.966 500.024C648.511 500.464 648.284 501.021 648.284 501.696C648.284 502.371 648.504 502.928 648.944 503.368C649.399 503.808 650.022 504.028 650.814 504.028ZM658.411 509V498.088H660.083L660.193 500.046C660.545 499.357 661.051 498.814 661.711 498.418C662.371 498.022 663.119 497.824 663.955 497.824C665.245 497.824 666.272 498.22 667.035 499.012C667.812 499.789 668.201 500.992 668.201 502.62V509H666.353V502.818C666.353 501.689 666.118 500.838 665.649 500.266C665.179 499.694 664.475 499.408 663.537 499.408C662.598 499.408 661.813 499.753 661.183 500.442C660.567 501.117 660.259 502.085 660.259 503.346V509H658.411ZM674.652 509.264C673.904 509.264 673.222 509.139 672.606 508.89C671.99 508.641 671.499 508.267 671.132 507.768C670.78 507.255 670.604 506.631 670.604 505.898C670.604 505.047 670.824 504.373 671.264 503.874C671.704 503.361 672.283 502.994 673.002 502.774C673.735 502.539 674.52 502.422 675.356 502.422H678.304C678.304 501.659 678.172 501.058 677.908 500.618C677.659 500.178 677.329 499.863 676.918 499.672C676.507 499.481 676.053 499.386 675.554 499.386C674.835 499.386 674.212 499.562 673.684 499.914C673.171 500.251 672.848 500.779 672.716 501.498H670.824C670.897 500.706 671.161 500.039 671.616 499.496C672.071 498.953 672.643 498.543 673.332 498.264C674.036 497.971 674.777 497.824 675.554 497.824C676.654 497.824 677.541 498.029 678.216 498.44C678.891 498.836 679.382 499.371 679.69 500.046C679.998 500.721 680.152 501.469 680.152 502.29V505.634C680.152 506.177 680.218 506.587 680.35 506.866C680.482 507.145 680.819 507.313 681.362 507.372V509C680.878 509 680.438 508.941 680.042 508.824C679.646 508.692 679.309 508.487 679.03 508.208C678.766 507.915 678.575 507.533 678.458 507.064C678.091 507.68 677.585 508.201 676.94 508.626C676.309 509.051 675.547 509.264 674.652 509.264ZM674.938 507.702C675.671 507.702 676.287 507.519 676.786 507.152C677.285 506.771 677.659 506.287 677.908 505.7C678.172 505.113 678.304 504.505 678.304 503.874V503.852H675.51C674.997 503.852 674.513 503.911 674.058 504.028C673.603 504.131 673.237 504.329 672.958 504.622C672.679 504.901 672.54 505.297 672.54 505.81C672.54 506.47 672.775 506.954 673.244 507.262C673.713 507.555 674.278 507.702 674.938 507.702ZM683.59 509V493.6H685.438V509H683.59ZM692.647 509.264C691.782 509.264 691.005 509.117 690.315 508.824C689.626 508.516 689.069 508.091 688.643 507.548C688.233 506.991 687.976 506.338 687.873 505.59H689.765C689.883 506.162 690.183 506.661 690.667 507.086C691.166 507.497 691.833 507.702 692.669 507.702C693.447 507.702 694.019 507.541 694.385 507.218C694.752 506.881 694.935 506.485 694.935 506.03C694.935 505.59 694.825 505.253 694.605 505.018C694.4 504.783 694.092 504.607 693.681 504.49C693.285 504.358 692.794 504.233 692.207 504.116C691.591 503.984 690.99 503.808 690.403 503.588C689.817 503.353 689.333 503.038 688.951 502.642C688.57 502.246 688.379 501.725 688.379 501.08C688.379 500.435 688.541 499.87 688.863 499.386C689.186 498.902 689.641 498.521 690.227 498.242C690.829 497.963 691.533 497.824 692.339 497.824C693.498 497.824 694.444 498.117 695.177 498.704C695.925 499.276 696.358 500.097 696.475 501.168H694.649C694.576 500.611 694.334 500.178 693.923 499.87C693.527 499.547 692.992 499.386 692.317 499.386C691.657 499.386 691.144 499.525 690.777 499.804C690.425 500.083 690.249 500.449 690.249 500.904C690.249 501.197 690.352 501.447 690.557 501.652C690.763 501.857 691.056 502.033 691.437 502.18C691.833 502.327 692.295 502.459 692.823 502.576C693.557 502.723 694.224 502.906 694.825 503.126C695.427 503.346 695.911 503.669 696.277 504.094C696.644 504.505 696.827 505.099 696.827 505.876C696.842 506.521 696.673 507.101 696.321 507.614C695.984 508.127 695.5 508.531 694.869 508.824C694.253 509.117 693.513 509.264 692.647 509.264ZM706.411 495.668C706.045 495.668 705.737 495.551 705.487 495.316C705.253 495.067 705.135 494.759 705.135 494.392C705.135 494.04 705.253 493.747 705.487 493.512C705.737 493.277 706.045 493.16 706.411 493.16C706.763 493.16 707.064 493.277 707.313 493.512C707.563 493.747 707.687 494.04 707.687 494.392C707.687 494.759 707.563 495.067 707.313 495.316C707.064 495.551 706.763 495.668 706.411 495.668ZM705.487 509V498.088H707.335V509H705.487ZM710.553 509V498.088H712.225L712.335 500.046C712.687 499.357 713.193 498.814 713.853 498.418C714.513 498.022 715.261 497.824 716.097 497.824C717.388 497.824 718.414 498.22 719.177 499.012C719.954 499.789 720.343 500.992 720.343 502.62V509H718.495V502.818C718.495 501.689 718.26 500.838 717.791 500.266C717.322 499.694 716.618 499.408 715.679 499.408C714.74 499.408 713.956 499.753 713.325 500.442C712.709 501.117 712.401 502.085 712.401 503.346V509H710.553ZM727.476 509C726.479 509 725.694 508.758 725.122 508.274C724.55 507.79 724.264 506.917 724.264 505.656V499.65H722.372V498.088H724.264V495.47H726.112V498.088H729.17V499.65H726.112V505.656C726.112 506.345 726.252 506.815 726.53 507.064C726.809 507.299 727.3 507.416 728.004 507.416H729.17V509H727.476ZM736.41 509.264C735.412 509.264 734.496 509.044 733.66 508.604C732.824 508.149 732.156 507.497 731.658 506.646C731.159 505.781 730.91 504.739 730.91 503.522C730.91 502.363 731.152 501.359 731.636 500.508C732.134 499.657 732.802 498.997 733.638 498.528C734.488 498.059 735.442 497.824 736.498 497.824C737.51 497.824 738.434 498.044 739.27 498.484C740.12 498.924 740.802 499.569 741.316 500.42C741.829 501.271 742.086 502.305 742.086 503.522C742.086 504.637 741.844 505.627 741.36 506.492C740.876 507.357 740.201 508.039 739.336 508.538C738.485 509.022 737.51 509.264 736.41 509.264ZM736.41 507.658C737.128 507.658 737.774 507.489 738.346 507.152C738.918 506.8 739.372 506.316 739.71 505.7C740.047 505.084 740.216 504.358 740.216 503.522C740.216 502.73 740.069 502.026 739.776 501.41C739.482 500.794 739.057 500.31 738.5 499.958C737.942 499.606 737.268 499.43 736.476 499.43C735.669 499.43 734.987 499.613 734.43 499.98C733.887 500.347 733.476 500.838 733.198 501.454C732.919 502.07 732.78 502.759 732.78 503.522C732.78 504.49 732.956 505.282 733.308 505.898C733.66 506.499 734.114 506.947 734.672 507.24C735.229 507.519 735.808 507.658 736.41 507.658ZM541.698 538.264C540.833 538.264 540.055 538.117 539.366 537.824C538.677 537.516 538.119 537.091 537.694 536.548C537.283 535.991 537.027 535.338 536.924 534.59H538.816C538.933 535.162 539.234 535.661 539.718 536.086C540.217 536.497 540.884 536.702 541.72 536.702C542.497 536.702 543.069 536.541 543.436 536.218C543.803 535.881 543.986 535.485 543.986 535.03C543.986 534.59 543.876 534.253 543.656 534.018C543.451 533.783 543.143 533.607 542.732 533.49C542.336 533.358 541.845 533.233 541.258 533.116C540.642 532.984 540.041 532.808 539.454 532.588C538.867 532.353 538.383 532.038 538.002 531.642C537.621 531.246 537.43 530.725 537.43 530.08C537.43 529.435 537.591 528.87 537.914 528.386C538.237 527.902 538.691 527.521 539.278 527.242C539.879 526.963 540.583 526.824 541.39 526.824C542.549 526.824 543.495 527.117 544.228 527.704C544.976 528.276 545.409 529.097 545.526 530.168H543.7C543.627 529.611 543.385 529.178 542.974 528.87C542.578 528.547 542.043 528.386 541.368 528.386C540.708 528.386 540.195 528.525 539.828 528.804C539.476 529.083 539.3 529.449 539.3 529.904C539.3 530.197 539.403 530.447 539.608 530.652C539.813 530.857 540.107 531.033 540.488 531.18C540.884 531.327 541.346 531.459 541.874 531.576C542.607 531.723 543.275 531.906 543.876 532.126C544.477 532.346 544.961 532.669 545.328 533.094C545.695 533.505 545.878 534.099 545.878 534.876C545.893 535.521 545.724 536.101 545.372 536.614C545.035 537.127 544.551 537.531 543.92 537.824C543.304 538.117 542.563 538.264 541.698 538.264ZM552.336 538C551.339 538 550.554 537.758 549.982 537.274C549.41 536.79 549.124 535.917 549.124 534.656V528.65H547.232V527.088H549.124V524.47H550.972V527.088H554.03V528.65H550.972V534.656C550.972 535.345 551.111 535.815 551.39 536.064C551.669 536.299 552.16 536.416 552.864 536.416H554.03V538H552.336ZM556.532 538V527.088H558.204L558.358 529.178C558.695 528.459 559.208 527.887 559.898 527.462C560.587 527.037 561.438 526.824 562.45 526.824V528.76H561.944C560.741 528.76 559.846 529.083 559.26 529.728C558.673 530.373 558.38 531.297 558.38 532.5V538H556.532ZM568.154 538.264C567.406 538.264 566.724 538.139 566.108 537.89C565.492 537.641 565.001 537.267 564.634 536.768C564.282 536.255 564.106 535.631 564.106 534.898C564.106 534.047 564.326 533.373 564.766 532.874C565.206 532.361 565.785 531.994 566.504 531.774C567.237 531.539 568.022 531.422 568.858 531.422H571.806C571.806 530.659 571.674 530.058 571.41 529.618C571.161 529.178 570.831 528.863 570.42 528.672C570.009 528.481 569.555 528.386 569.056 528.386C568.337 528.386 567.714 528.562 567.186 528.914C566.673 529.251 566.35 529.779 566.218 530.498H564.326C564.399 529.706 564.663 529.039 565.118 528.496C565.573 527.953 566.145 527.543 566.834 527.264C567.538 526.971 568.279 526.824 569.056 526.824C570.156 526.824 571.043 527.029 571.718 527.44C572.393 527.836 572.884 528.371 573.192 529.046C573.5 529.721 573.654 530.469 573.654 531.29V534.634C573.654 535.177 573.72 535.587 573.852 535.866C573.984 536.145 574.321 536.313 574.864 536.372V538C574.38 538 573.94 537.941 573.544 537.824C573.148 537.692 572.811 537.487 572.532 537.208C572.268 536.915 572.077 536.533 571.96 536.064C571.593 536.68 571.087 537.201 570.442 537.626C569.811 538.051 569.049 538.264 568.154 538.264ZM568.44 536.702C569.173 536.702 569.789 536.519 570.288 536.152C570.787 535.771 571.161 535.287 571.41 534.7C571.674 534.113 571.806 533.505 571.806 532.874V532.852H569.012C568.499 532.852 568.015 532.911 567.56 533.028C567.105 533.131 566.739 533.329 566.46 533.622C566.181 533.901 566.042 534.297 566.042 534.81C566.042 535.47 566.277 535.954 566.746 536.262C567.215 536.555 567.78 536.702 568.44 536.702ZM581.103 538C580.106 538 579.321 537.758 578.749 537.274C578.177 536.79 577.891 535.917 577.891 534.656V528.65H575.999V527.088H577.891V524.47H579.739V527.088H582.797V528.65H579.739V534.656C579.739 535.345 579.879 535.815 580.157 536.064C580.436 536.299 580.927 536.416 581.631 536.416H582.797V538H581.103ZM589.904 538.264C588.892 538.264 587.976 538.029 587.154 537.56C586.348 537.091 585.71 536.431 585.24 535.58C584.771 534.715 584.536 533.703 584.536 532.544C584.536 531.4 584.756 530.403 585.196 529.552C585.651 528.687 586.282 528.019 587.088 527.55C587.91 527.066 588.863 526.824 589.948 526.824C590.975 526.824 591.87 527.051 592.632 527.506C593.395 527.961 593.989 528.577 594.414 529.354C594.854 530.117 595.074 530.975 595.074 531.928C595.074 532.133 595.074 532.295 595.074 532.412C595.074 532.529 595.067 532.713 595.052 532.962H586.362C586.406 533.681 586.575 534.326 586.868 534.898C587.176 535.455 587.587 535.895 588.1 536.218C588.628 536.541 589.23 536.702 589.904 536.702C590.667 536.702 591.305 536.526 591.818 536.174C592.332 535.822 592.706 535.345 592.94 534.744H594.766C594.576 535.419 594.26 536.02 593.82 536.548C593.38 537.076 592.83 537.494 592.17 537.802C591.525 538.11 590.77 538.264 589.904 538.264ZM586.384 531.532H593.248C593.204 530.549 592.867 529.779 592.236 529.222C591.606 528.665 590.828 528.386 589.904 528.386C589.024 528.386 588.24 528.657 587.55 529.2C586.876 529.728 586.487 530.505 586.384 531.532ZM601.858 543.104C600.993 543.104 600.164 542.994 599.372 542.774C598.58 542.554 597.935 542.18 597.436 541.652C596.952 541.139 596.71 540.449 596.71 539.584C596.71 538.983 596.849 538.484 597.128 538.088C597.407 537.692 597.773 537.391 598.228 537.186C597.876 536.981 597.59 536.724 597.37 536.416C597.15 536.108 597.04 535.756 597.04 535.36C597.04 534.48 597.436 533.769 598.228 533.226C597.935 532.889 597.7 532.515 597.524 532.104C597.363 531.679 597.282 531.209 597.282 530.696C597.282 529.889 597.465 529.2 597.832 528.628C598.213 528.041 598.727 527.594 599.372 527.286C600.032 526.978 600.78 526.824 601.616 526.824C602.232 526.824 602.811 526.912 603.354 527.088H607.072V528.65H605.378C605.569 528.943 605.708 529.266 605.796 529.618C605.899 529.955 605.95 530.315 605.95 530.696C605.95 531.532 605.752 532.236 605.356 532.808C604.975 533.38 604.454 533.82 603.794 534.128C603.149 534.421 602.423 534.568 601.616 534.568C601.205 534.568 600.831 534.524 600.494 534.436C600.157 534.348 599.819 534.223 599.482 534.062C599.101 534.253 598.91 534.546 598.91 534.942C598.91 535.675 599.526 536.042 600.758 536.042H602.584C603.405 536.042 604.131 536.152 604.762 536.372C605.393 536.577 605.884 536.922 606.236 537.406C606.603 537.875 606.786 538.521 606.786 539.342C606.786 540.178 606.551 540.875 606.082 541.432C605.613 541.989 605.004 542.407 604.256 542.686C603.508 542.965 602.709 543.104 601.858 543.104ZM601.814 541.564C602.694 541.564 603.442 541.395 604.058 541.058C604.674 540.735 604.982 540.237 604.982 539.562C604.982 538.301 604.219 537.67 602.694 537.67H600.824C600.105 537.67 599.541 537.824 599.13 538.132C598.719 538.455 598.514 538.931 598.514 539.562C598.514 540.046 598.668 540.435 598.976 540.728C599.284 541.021 599.687 541.234 600.186 541.366C600.685 541.498 601.227 541.564 601.814 541.564ZM601.572 533.028C602.335 533.028 602.958 532.808 603.442 532.368C603.926 531.928 604.168 531.371 604.168 530.696C604.168 530.021 603.926 529.464 603.442 529.024C602.958 528.584 602.335 528.364 601.572 528.364C600.809 528.364 600.193 528.584 599.724 529.024C599.269 529.464 599.042 530.021 599.042 530.696C599.042 531.371 599.262 531.928 599.702 532.368C600.157 532.808 600.78 533.028 601.572 533.028ZM610.29 524.668C609.924 524.668 609.616 524.551 609.366 524.316C609.132 524.067 609.014 523.759 609.014 523.392C609.014 523.04 609.132 522.747 609.366 522.512C609.616 522.277 609.924 522.16 610.29 522.16C610.642 522.16 610.943 522.277 611.192 522.512C611.442 522.747 611.566 523.04 611.566 523.392C611.566 523.759 611.442 524.067 611.192 524.316C610.943 524.551 610.642 524.668 610.29 524.668ZM609.366 538V527.088H611.214V538H609.366ZM619.448 538.264C618.421 538.264 617.49 538.029 616.654 537.56C615.833 537.091 615.18 536.431 614.696 535.58C614.212 534.715 613.97 533.703 613.97 532.544C613.97 531.415 614.205 530.425 614.674 529.574C615.143 528.709 615.789 528.034 616.61 527.55C617.431 527.066 618.377 526.824 619.448 526.824C620.739 526.824 621.824 527.161 622.704 527.836C623.599 528.511 624.163 529.413 624.398 530.542H622.506C622.359 529.867 622 529.347 621.428 528.98C620.856 528.599 620.189 528.408 619.426 528.408C618.649 528.408 617.996 528.599 617.468 528.98C616.94 529.361 616.537 529.867 616.258 530.498C615.994 531.129 615.862 531.811 615.862 532.544C615.862 533.351 616.016 534.069 616.324 534.7C616.632 535.331 617.05 535.822 617.578 536.174C618.121 536.526 618.737 536.702 619.426 536.702C620.189 536.702 620.856 536.519 621.428 536.152C622 535.771 622.359 535.235 622.506 534.546H624.398C624.251 535.279 623.951 535.925 623.496 536.482C623.041 537.039 622.469 537.479 621.78 537.802C621.091 538.11 620.313 538.264 619.448 538.264ZM637.817 538.264C636.791 538.264 635.859 538.029 635.023 537.56C634.202 537.091 633.549 536.431 633.065 535.58C632.581 534.715 632.339 533.703 632.339 532.544C632.339 531.415 632.574 530.425 633.043 529.574C633.513 528.709 634.158 528.034 634.979 527.55C635.801 527.066 636.747 526.824 637.817 526.824C639.108 526.824 640.193 527.161 641.073 527.836C641.968 528.511 642.533 529.413 642.767 530.542H640.875C640.729 529.867 640.369 529.347 639.797 528.98C639.225 528.599 638.558 528.408 637.795 528.408C637.018 528.408 636.365 528.599 635.837 528.98C635.309 529.361 634.906 529.867 634.627 530.498C634.363 531.129 634.231 531.811 634.231 532.544C634.231 533.351 634.385 534.069 634.693 534.7C635.001 535.331 635.419 535.822 635.947 536.174C636.49 536.526 637.106 536.702 637.795 536.702C638.558 536.702 639.225 536.519 639.797 536.152C640.369 535.771 640.729 535.235 640.875 534.546H642.767C642.621 535.279 642.32 535.925 641.865 536.482C641.411 537.039 640.839 537.479 640.149 537.802C639.46 538.11 638.683 538.264 637.817 538.264ZM645.348 538V522.6H647.196V538H645.348ZM653.855 538.264C653.107 538.264 652.425 538.139 651.809 537.89C651.193 537.641 650.702 537.267 650.335 536.768C649.983 536.255 649.807 535.631 649.807 534.898C649.807 534.047 650.027 533.373 650.467 532.874C650.907 532.361 651.486 531.994 652.205 531.774C652.938 531.539 653.723 531.422 654.559 531.422H657.507C657.507 530.659 657.375 530.058 657.111 529.618C656.862 529.178 656.532 528.863 656.121 528.672C655.71 528.481 655.256 528.386 654.757 528.386C654.038 528.386 653.415 528.562 652.887 528.914C652.374 529.251 652.051 529.779 651.919 530.498H650.027C650.1 529.706 650.364 529.039 650.819 528.496C651.274 527.953 651.846 527.543 652.535 527.264C653.239 526.971 653.98 526.824 654.757 526.824C655.857 526.824 656.744 527.029 657.419 527.44C658.094 527.836 658.585 528.371 658.893 529.046C659.201 529.721 659.355 530.469 659.355 531.29V534.634C659.355 535.177 659.421 535.587 659.553 535.866C659.685 536.145 660.022 536.313 660.565 536.372V538C660.081 538 659.641 537.941 659.245 537.824C658.849 537.692 658.512 537.487 658.233 537.208C657.969 536.915 657.778 536.533 657.661 536.064C657.294 536.68 656.788 537.201 656.143 537.626C655.512 538.051 654.75 538.264 653.855 538.264ZM654.141 536.702C654.874 536.702 655.49 536.519 655.989 536.152C656.488 535.771 656.862 535.287 657.111 534.7C657.375 534.113 657.507 533.505 657.507 532.874V532.852H654.713C654.2 532.852 653.716 532.911 653.261 533.028C652.806 533.131 652.44 533.329 652.161 533.622C651.882 533.901 651.743 534.297 651.743 534.81C651.743 535.47 651.978 535.954 652.447 536.262C652.916 536.555 653.481 536.702 654.141 536.702ZM662.793 538V527.088H664.465L664.619 529.178C664.957 528.459 665.47 527.887 666.159 527.462C666.849 527.037 667.699 526.824 668.711 526.824V528.76H668.205C667.003 528.76 666.108 529.083 665.521 529.728C664.935 530.373 664.641 531.297 664.641 532.5V538H662.793ZM671.908 524.668C671.541 524.668 671.233 524.551 670.984 524.316C670.749 524.067 670.632 523.759 670.632 523.392C670.632 523.04 670.749 522.747 670.984 522.512C671.233 522.277 671.541 522.16 671.908 522.16C672.26 522.16 672.56 522.277 672.81 522.512C673.059 522.747 673.184 523.04 673.184 523.392C673.184 523.759 673.059 524.067 672.81 524.316C672.56 524.551 672.26 524.668 671.908 524.668ZM670.984 538V527.088H672.832V538H670.984ZM680.361 538C679.364 538 678.579 537.758 678.007 537.274C677.435 536.79 677.149 535.917 677.149 534.656V528.65H675.257V527.088H677.149V524.47H678.997V527.088H682.055V528.65H678.997V534.656C678.997 535.345 679.137 535.815 679.415 536.064C679.694 536.299 680.185 536.416 680.889 536.416H682.055V538H680.361ZM685.745 542.84L688.165 537.56L683.479 527.088H685.481L689.089 535.58L692.917 527.088H694.831L687.681 542.84H685.745ZM695.851 538.11C695.485 538.11 695.177 537.993 694.927 537.758C694.693 537.509 694.575 537.208 694.575 536.856C694.575 536.504 694.693 536.211 694.927 535.976C695.177 535.727 695.485 535.602 695.851 535.602C696.203 535.602 696.497 535.727 696.731 535.976C696.981 536.211 697.105 536.504 697.105 536.856C697.105 537.208 696.981 537.509 696.731 537.758C696.497 537.993 696.203 538.11 695.851 538.11Z" fill="black"/>
<path d="M86.25 172.264C84.7833 172.264 83.5073 171.927 82.422 171.252C81.3513 170.563 80.5153 169.624 79.914 168.436C79.3273 167.233 79.034 165.862 79.034 164.322C79.034 162.797 79.3273 161.433 79.914 160.23C80.5007 159.027 81.3513 158.081 82.466 157.392C83.5807 156.688 84.93 156.336 86.514 156.336C88.2447 156.336 89.682 156.754 90.826 157.59C91.9847 158.426 92.7327 159.577 93.07 161.044H90.936C90.7307 160.12 90.2393 159.387 89.462 158.844C88.6993 158.301 87.7167 158.03 86.514 158.03C85.2967 158.03 84.27 158.309 83.434 158.866C82.598 159.423 81.9673 160.179 81.542 161.132C81.1313 162.071 80.926 163.134 80.926 164.322C80.926 165.525 81.1387 166.603 81.564 167.556C81.9893 168.509 82.6053 169.257 83.412 169.8C84.2187 170.343 85.1867 170.614 86.316 170.614C87.9587 170.614 89.198 170.137 90.034 169.184C90.87 168.216 91.3467 166.896 91.464 165.224H85.92V163.772H93.356V172H91.662L91.508 169.47C90.9507 170.365 90.2687 171.054 89.462 171.538C88.6553 172.022 87.5847 172.264 86.25 172.264ZM100.172 172.264C99.3217 172.264 98.5737 172.095 97.9284 171.758C97.2977 171.406 96.8064 170.878 96.4544 170.174C96.1024 169.455 95.9264 168.553 95.9264 167.468V161.088H97.7744V167.27C97.7744 168.399 98.0091 169.25 98.4784 169.822C98.9477 170.394 99.6517 170.68 100.59 170.68C101.529 170.68 102.306 170.343 102.922 169.668C103.553 168.979 103.868 168.003 103.868 166.742V161.088H105.716V172H104.044L103.934 170.042C103.582 170.731 103.076 171.274 102.416 171.67C101.756 172.066 101.008 172.264 100.172 172.264ZM109.88 158.668C109.514 158.668 109.206 158.551 108.956 158.316C108.722 158.067 108.604 157.759 108.604 157.392C108.604 157.04 108.722 156.747 108.956 156.512C109.206 156.277 109.514 156.16 109.88 156.16C110.232 156.16 110.533 156.277 110.782 156.512C111.032 156.747 111.156 157.04 111.156 157.392C111.156 157.759 111.032 158.067 110.782 158.316C110.533 158.551 110.232 158.668 109.88 158.668ZM108.956 172V161.088H110.804V172H108.956ZM118.972 172.264C117.857 172.264 116.897 172.007 116.09 171.494C115.283 170.981 114.66 170.291 114.22 169.426C113.78 168.561 113.56 167.593 113.56 166.522C113.56 165.466 113.773 164.505 114.198 163.64C114.638 162.775 115.261 162.093 116.068 161.594C116.875 161.081 117.85 160.824 118.994 160.824C119.889 160.824 120.681 161.007 121.37 161.374C122.059 161.741 122.595 162.254 122.976 162.914V156.6H124.824V172H123.152L122.976 170.196C122.624 170.724 122.118 171.201 121.458 171.626C120.798 172.051 119.969 172.264 118.972 172.264ZM119.17 170.658C119.977 170.658 120.659 170.475 121.216 170.108C121.773 169.727 122.191 169.228 122.47 168.612C122.763 167.981 122.91 167.292 122.91 166.544C122.91 165.752 122.763 165.048 122.47 164.432C122.177 163.816 121.751 163.332 121.194 162.98C120.637 162.613 119.962 162.43 119.17 162.43C118.466 162.43 117.835 162.599 117.278 162.936C116.721 163.273 116.273 163.75 115.936 164.366C115.613 164.967 115.452 165.693 115.452 166.544C115.452 167.395 115.621 168.128 115.958 168.744C116.295 169.36 116.743 169.837 117.3 170.174C117.872 170.497 118.495 170.658 119.17 170.658ZM132.742 172.264C131.73 172.264 130.814 172.029 129.992 171.56C129.186 171.091 128.548 170.431 128.078 169.58C127.609 168.715 127.374 167.703 127.374 166.544C127.374 165.4 127.594 164.403 128.034 163.552C128.489 162.687 129.12 162.019 129.926 161.55C130.748 161.066 131.701 160.824 132.786 160.824C133.813 160.824 134.708 161.051 135.47 161.506C136.233 161.961 136.827 162.577 137.252 163.354C137.692 164.117 137.912 164.975 137.912 165.928C137.912 166.133 137.912 166.295 137.912 166.412C137.912 166.529 137.905 166.713 137.89 166.962H129.2C129.244 167.681 129.413 168.326 129.706 168.898C130.014 169.455 130.425 169.895 130.938 170.218C131.466 170.541 132.068 170.702 132.742 170.702C133.505 170.702 134.143 170.526 134.656 170.174C135.17 169.822 135.544 169.345 135.778 168.744H137.604C137.414 169.419 137.098 170.02 136.658 170.548C136.218 171.076 135.668 171.494 135.008 171.802C134.363 172.11 133.608 172.264 132.742 172.264ZM129.222 165.532H136.086C136.042 164.549 135.705 163.779 135.074 163.222C134.444 162.665 133.666 162.386 132.742 162.386C131.862 162.386 131.078 162.657 130.388 163.2C129.714 163.728 129.325 164.505 129.222 165.532ZM147.372 176.84L149.792 171.56L145.106 161.088H147.108L150.716 169.58L154.544 161.088H156.458L149.308 176.84H147.372ZM162.415 172.264C161.418 172.264 160.501 172.044 159.665 171.604C158.829 171.149 158.162 170.497 157.663 169.646C157.165 168.781 156.915 167.739 156.915 166.522C156.915 165.363 157.157 164.359 157.641 163.508C158.14 162.657 158.807 161.997 159.643 161.528C160.494 161.059 161.447 160.824 162.503 160.824C163.515 160.824 164.439 161.044 165.275 161.484C166.126 161.924 166.808 162.569 167.321 163.42C167.835 164.271 168.091 165.305 168.091 166.522C168.091 167.637 167.849 168.627 167.365 169.492C166.881 170.357 166.207 171.039 165.341 171.538C164.491 172.022 163.515 172.264 162.415 172.264ZM162.415 170.658C163.134 170.658 163.779 170.489 164.351 170.152C164.923 169.8 165.378 169.316 165.715 168.7C166.053 168.084 166.221 167.358 166.221 166.522C166.221 165.73 166.075 165.026 165.781 164.41C165.488 163.794 165.063 163.31 164.505 162.958C163.948 162.606 163.273 162.43 162.481 162.43C161.675 162.43 160.993 162.613 160.435 162.98C159.893 163.347 159.482 163.838 159.203 164.454C158.925 165.07 158.785 165.759 158.785 166.522C158.785 167.49 158.961 168.282 159.313 168.898C159.665 169.499 160.12 169.947 160.677 170.24C161.235 170.519 161.814 170.658 162.415 170.658ZM174.659 172.264C173.808 172.264 173.06 172.095 172.415 171.758C171.784 171.406 171.293 170.878 170.941 170.174C170.589 169.455 170.413 168.553 170.413 167.468V161.088H172.261V167.27C172.261 168.399 172.495 169.25 172.965 169.822C173.434 170.394 174.138 170.68 175.077 170.68C176.015 170.68 176.793 170.343 177.409 169.668C178.039 168.979 178.355 168.003 178.355 166.742V161.088H180.203V172H178.531L178.421 170.042C178.069 170.731 177.563 171.274 176.903 171.67C176.243 172.066 175.495 172.264 174.659 172.264ZM183.245 172V161.088H184.917L185.071 163.178C185.408 162.459 185.921 161.887 186.611 161.462C187.3 161.037 188.151 160.824 189.163 160.824V162.76H188.657C187.454 162.76 186.559 163.083 185.973 163.728C185.386 164.373 185.093 165.297 185.093 166.5V172H183.245ZM202.889 172.264C201.994 172.264 201.195 172.081 200.491 171.714C199.802 171.347 199.274 170.834 198.907 170.174L198.731 172H197.059V156.6H198.907V162.892C199.259 162.364 199.758 161.887 200.403 161.462C201.063 161.037 201.899 160.824 202.911 160.824C204.011 160.824 204.964 161.073 205.771 161.572C206.578 162.071 207.201 162.753 207.641 163.618C208.081 164.483 208.301 165.466 208.301 166.566C208.301 167.651 208.081 168.627 207.641 169.492C207.201 170.357 206.57 171.039 205.749 171.538C204.942 172.022 203.989 172.264 202.889 172.264ZM202.691 170.658C203.439 170.658 204.092 170.489 204.649 170.152C205.206 169.8 205.639 169.316 205.947 168.7C206.27 168.069 206.431 167.351 206.431 166.544C206.431 165.767 206.277 165.07 205.969 164.454C205.676 163.823 205.25 163.332 204.693 162.98C204.136 162.613 203.468 162.43 202.691 162.43C201.958 162.43 201.305 162.606 200.733 162.958C200.176 163.295 199.736 163.772 199.413 164.388C199.105 165.004 198.951 165.723 198.951 166.544C198.951 167.307 199.105 168.003 199.413 168.634C199.721 169.25 200.154 169.741 200.711 170.108C201.268 170.475 201.928 170.658 202.691 170.658ZM210.873 172V161.088H212.545L212.699 163.178C213.037 162.459 213.55 161.887 214.239 161.462C214.929 161.037 215.779 160.824 216.791 160.824V162.76H216.285C215.083 162.76 214.188 163.083 213.601 163.728C213.015 164.373 212.721 165.297 212.721 166.5V172H210.873ZM222.496 172.264C221.748 172.264 221.066 172.139 220.45 171.89C219.834 171.641 219.342 171.267 218.976 170.768C218.624 170.255 218.448 169.631 218.448 168.898C218.448 168.047 218.668 167.373 219.108 166.874C219.548 166.361 220.127 165.994 220.846 165.774C221.579 165.539 222.364 165.422 223.2 165.422H226.148C226.148 164.659 226.016 164.058 225.752 163.618C225.502 163.178 225.172 162.863 224.762 162.672C224.351 162.481 223.896 162.386 223.398 162.386C222.679 162.386 222.056 162.562 221.528 162.914C221.014 163.251 220.692 163.779 220.56 164.498H218.668C218.741 163.706 219.005 163.039 219.46 162.496C219.914 161.953 220.486 161.543 221.176 161.264C221.88 160.971 222.62 160.824 223.398 160.824C224.498 160.824 225.385 161.029 226.06 161.44C226.734 161.836 227.226 162.371 227.534 163.046C227.842 163.721 227.996 164.469 227.996 165.29V168.634C227.996 169.177 228.062 169.587 228.194 169.866C228.326 170.145 228.663 170.313 229.206 170.372V172C228.722 172 228.282 171.941 227.886 171.824C227.49 171.692 227.152 171.487 226.874 171.208C226.61 170.915 226.419 170.533 226.302 170.064C225.935 170.68 225.429 171.201 224.784 171.626C224.153 172.051 223.39 172.264 222.496 172.264ZM222.782 170.702C223.515 170.702 224.131 170.519 224.63 170.152C225.128 169.771 225.502 169.287 225.752 168.7C226.016 168.113 226.148 167.505 226.148 166.874V166.852H223.354C222.84 166.852 222.356 166.911 221.902 167.028C221.447 167.131 221.08 167.329 220.802 167.622C220.523 167.901 220.384 168.297 220.384 168.81C220.384 169.47 220.618 169.954 221.088 170.262C221.557 170.555 222.122 170.702 222.782 170.702ZM231.434 172V161.088H233.106L233.216 163.046C233.568 162.357 234.074 161.814 234.734 161.418C235.394 161.022 236.142 160.824 236.978 160.824C238.269 160.824 239.295 161.22 240.058 162.012C240.835 162.789 241.224 163.992 241.224 165.62V172H239.376V165.818C239.376 164.689 239.141 163.838 238.672 163.266C238.203 162.694 237.499 162.408 236.56 162.408C235.621 162.408 234.837 162.753 234.206 163.442C233.59 164.117 233.282 165.085 233.282 166.346V172H231.434ZM248.995 172.264C247.881 172.264 246.92 172.007 246.113 171.494C245.307 170.981 244.683 170.291 244.243 169.426C243.803 168.561 243.583 167.593 243.583 166.522C243.583 165.466 243.796 164.505 244.221 163.64C244.661 162.775 245.285 162.093 246.091 161.594C246.898 161.081 247.873 160.824 249.017 160.824C249.912 160.824 250.704 161.007 251.393 161.374C252.083 161.741 252.618 162.254 252.999 162.914V156.6H254.847V172H253.175L252.999 170.196C252.647 170.724 252.141 171.201 251.481 171.626C250.821 172.051 249.993 172.264 248.995 172.264ZM249.193 170.658C250 170.658 250.682 170.475 251.239 170.108C251.797 169.727 252.215 169.228 252.493 168.612C252.787 167.981 252.933 167.292 252.933 166.544C252.933 165.752 252.787 165.048 252.493 164.432C252.2 163.816 251.775 163.332 251.217 162.98C250.66 162.613 249.985 162.43 249.193 162.43C248.489 162.43 247.859 162.599 247.301 162.936C246.744 163.273 246.297 163.75 245.959 164.366C245.637 164.967 245.475 165.693 245.475 166.544C245.475 167.395 245.644 168.128 245.981 168.744C246.319 169.36 246.766 169.837 247.323 170.174C247.895 170.497 248.519 170.658 249.193 170.658ZM265.882 172L262.692 161.088H264.54L266.85 169.646L269.402 161.088H271.492L274.066 169.646L276.354 161.088H278.224L275.034 172H273.142L270.458 163.002L267.774 172H265.882ZM281.39 158.668C281.023 158.668 280.715 158.551 280.466 158.316C280.231 158.067 280.114 157.759 280.114 157.392C280.114 157.04 280.231 156.747 280.466 156.512C280.715 156.277 281.023 156.16 281.39 156.16C281.742 156.16 282.043 156.277 282.292 156.512C282.541 156.747 282.666 157.04 282.666 157.392C282.666 157.759 282.541 158.067 282.292 158.316C282.043 158.551 281.742 158.668 281.39 158.668ZM280.466 172V161.088H282.314V172H280.466ZM289.844 172C288.846 172 288.062 171.758 287.49 171.274C286.918 170.79 286.632 169.917 286.632 168.656V162.65H284.74V161.088H286.632V158.47H288.48V161.088H291.538V162.65H288.48V168.656C288.48 169.345 288.619 169.815 288.898 170.064C289.176 170.299 289.668 170.416 290.372 170.416H291.538V172H289.844ZM294.039 172V156.6H295.887V162.958C296.254 162.283 296.775 161.763 297.449 161.396C298.124 161.015 298.857 160.824 299.649 160.824C300.911 160.824 301.923 161.22 302.685 162.012C303.448 162.789 303.829 163.992 303.829 165.62V172H302.003V165.818C302.003 164.689 301.769 163.838 301.299 163.266C300.845 162.694 300.163 162.408 299.253 162.408C298.3 162.408 297.501 162.753 296.855 163.442C296.21 164.117 295.887 165.085 295.887 166.346V172H294.039ZM80.64 187.668C80.2733 187.668 79.9653 187.551 79.716 187.316C79.4813 187.067 79.364 186.759 79.364 186.392C79.364 186.04 79.4813 185.747 79.716 185.512C79.9653 185.277 80.2733 185.16 80.64 185.16C80.992 185.16 81.2927 185.277 81.542 185.512C81.7913 185.747 81.916 186.04 81.916 186.392C81.916 186.759 81.7913 187.067 81.542 187.316C81.2927 187.551 80.992 187.668 80.64 187.668ZM79.716 201V190.088H81.564V201H79.716ZM84.7817 201V190.088H86.4537L86.5637 192.046C86.9157 191.357 87.4217 190.814 88.0817 190.418C88.7417 190.022 89.4897 189.824 90.3257 189.824C91.6163 189.824 92.643 190.22 93.4057 191.012C94.183 191.789 94.5717 192.992 94.5717 194.62V201H92.7237V194.818C92.7237 193.689 92.489 192.838 92.0197 192.266C91.5503 191.694 90.8463 191.408 89.9077 191.408C88.969 191.408 88.1843 191.753 87.5537 192.442C86.9377 193.117 86.6297 194.085 86.6297 195.346V201H84.7817ZM101.573 201.264C100.708 201.264 99.9303 201.117 99.241 200.824C98.5517 200.516 97.9943 200.091 97.569 199.548C97.1583 198.991 96.9017 198.338 96.799 197.59H98.691C98.8083 198.162 99.109 198.661 99.593 199.086C100.092 199.497 100.759 199.702 101.595 199.702C102.372 199.702 102.944 199.541 103.311 199.218C103.678 198.881 103.861 198.485 103.861 198.03C103.861 197.59 103.751 197.253 103.531 197.018C103.326 196.783 103.018 196.607 102.607 196.49C102.211 196.358 101.72 196.233 101.133 196.116C100.517 195.984 99.9157 195.808 99.329 195.588C98.7423 195.353 98.2583 195.038 97.877 194.642C97.4957 194.246 97.305 193.725 97.305 193.08C97.305 192.435 97.4663 191.87 97.789 191.386C98.1117 190.902 98.5663 190.521 99.153 190.242C99.7543 189.963 100.458 189.824 101.265 189.824C102.424 189.824 103.37 190.117 104.103 190.704C104.851 191.276 105.284 192.097 105.401 193.168H103.575C103.502 192.611 103.26 192.178 102.849 191.87C102.453 191.547 101.918 191.386 101.243 191.386C100.583 191.386 100.07 191.525 99.703 191.804C99.351 192.083 99.175 192.449 99.175 192.904C99.175 193.197 99.2777 193.447 99.483 193.652C99.6883 193.857 99.9817 194.033 100.363 194.18C100.759 194.327 101.221 194.459 101.749 194.576C102.482 194.723 103.15 194.906 103.751 195.126C104.352 195.346 104.836 195.669 105.203 196.094C105.57 196.505 105.753 197.099 105.753 197.876C105.768 198.521 105.599 199.101 105.247 199.614C104.91 200.127 104.426 200.531 103.795 200.824C103.179 201.117 102.438 201.264 101.573 201.264ZM109.515 187.668C109.148 187.668 108.84 187.551 108.591 187.316C108.356 187.067 108.239 186.759 108.239 186.392C108.239 186.04 108.356 185.747 108.591 185.512C108.84 185.277 109.148 185.16 109.515 185.16C109.867 185.16 110.168 185.277 110.417 185.512C110.666 185.747 110.791 186.04 110.791 186.392C110.791 186.759 110.666 187.067 110.417 187.316C110.168 187.551 109.867 187.668 109.515 187.668ZM108.591 201V190.088H110.439V201H108.591ZM117.991 206.104C117.125 206.104 116.297 205.994 115.505 205.774C114.713 205.554 114.067 205.18 113.569 204.652C113.085 204.139 112.843 203.449 112.843 202.584C112.843 201.983 112.982 201.484 113.261 201.088C113.539 200.692 113.906 200.391 114.361 200.186C114.009 199.981 113.723 199.724 113.503 199.416C113.283 199.108 113.173 198.756 113.173 198.36C113.173 197.48 113.569 196.769 114.361 196.226C114.067 195.889 113.833 195.515 113.657 195.104C113.495 194.679 113.415 194.209 113.415 193.696C113.415 192.889 113.598 192.2 113.965 191.628C114.346 191.041 114.859 190.594 115.505 190.286C116.165 189.978 116.913 189.824 117.749 189.824C118.365 189.824 118.944 189.912 119.487 190.088H123.205V191.65H121.511C121.701 191.943 121.841 192.266 121.929 192.618C122.031 192.955 122.083 193.315 122.083 193.696C122.083 194.532 121.885 195.236 121.489 195.808C121.107 196.38 120.587 196.82 119.927 197.128C119.281 197.421 118.555 197.568 117.749 197.568C117.338 197.568 116.964 197.524 116.627 197.436C116.289 197.348 115.952 197.223 115.615 197.062C115.233 197.253 115.043 197.546 115.043 197.942C115.043 198.675 115.659 199.042 116.891 199.042H118.717C119.538 199.042 120.264 199.152 120.895 199.372C121.525 199.577 122.017 199.922 122.369 200.406C122.735 200.875 122.919 201.521 122.919 202.342C122.919 203.178 122.684 203.875 122.215 204.432C121.745 204.989 121.137 205.407 120.389 205.686C119.641 205.965 118.841 206.104 117.991 206.104ZM117.947 204.564C118.827 204.564 119.575 204.395 120.191 204.058C120.807 203.735 121.115 203.237 121.115 202.562C121.115 201.301 120.352 200.67 118.827 200.67H116.957C116.238 200.67 115.673 200.824 115.263 201.132C114.852 201.455 114.647 201.931 114.647 202.562C114.647 203.046 114.801 203.435 115.109 203.728C115.417 204.021 115.82 204.234 116.319 204.366C116.817 204.498 117.36 204.564 117.947 204.564ZM117.705 196.028C118.467 196.028 119.091 195.808 119.575 195.368C120.059 194.928 120.301 194.371 120.301 193.696C120.301 193.021 120.059 192.464 119.575 192.024C119.091 191.584 118.467 191.364 117.705 191.364C116.942 191.364 116.326 191.584 115.857 192.024C115.402 192.464 115.175 193.021 115.175 193.696C115.175 194.371 115.395 194.928 115.835 195.368C116.289 195.808 116.913 196.028 117.705 196.028ZM125.301 201V185.6H127.149V191.958C127.516 191.283 128.037 190.763 128.711 190.396C129.386 190.015 130.119 189.824 130.911 189.824C132.173 189.824 133.185 190.22 133.947 191.012C134.71 191.789 135.091 192.992 135.091 194.62V201H133.265V194.818C133.265 193.689 133.031 192.838 132.561 192.266C132.107 191.694 131.425 191.408 130.515 191.408C129.562 191.408 128.763 191.753 128.117 192.442C127.472 193.117 127.149 194.085 127.149 195.346V201H125.301ZM142.203 201C141.206 201 140.421 200.758 139.849 200.274C139.277 199.79 138.991 198.917 138.991 197.656V191.65H137.099V190.088H138.991V187.47H140.839V190.088H143.897V191.65H140.839V197.656C140.839 198.345 140.978 198.815 141.257 199.064C141.536 199.299 142.027 199.416 142.731 199.416H143.897V201H142.203ZM150.579 201.264C149.714 201.264 148.936 201.117 148.247 200.824C147.558 200.516 147 200.091 146.575 199.548C146.164 198.991 145.908 198.338 145.805 197.59H147.697C147.814 198.162 148.115 198.661 148.599 199.086C149.098 199.497 149.765 199.702 150.601 199.702C151.378 199.702 151.95 199.541 152.317 199.218C152.684 198.881 152.867 198.485 152.867 198.03C152.867 197.59 152.757 197.253 152.537 197.018C152.332 196.783 152.024 196.607 151.613 196.49C151.217 196.358 150.726 196.233 150.139 196.116C149.523 195.984 148.922 195.808 148.335 195.588C147.748 195.353 147.264 195.038 146.883 194.642C146.502 194.246 146.311 193.725 146.311 193.08C146.311 192.435 146.472 191.87 146.795 191.386C147.118 190.902 147.572 190.521 148.159 190.242C148.76 189.963 149.464 189.824 150.271 189.824C151.43 189.824 152.376 190.117 153.109 190.704C153.857 191.276 154.29 192.097 154.407 193.168H152.581C152.508 192.611 152.266 192.178 151.855 191.87C151.459 191.547 150.924 191.386 150.249 191.386C149.589 191.386 149.076 191.525 148.709 191.804C148.357 192.083 148.181 192.449 148.181 192.904C148.181 193.197 148.284 193.447 148.489 193.652C148.694 193.857 148.988 194.033 149.369 194.18C149.765 194.327 150.227 194.459 150.755 194.576C151.488 194.723 152.156 194.906 152.757 195.126C153.358 195.346 153.842 195.669 154.209 196.094C154.576 196.505 154.759 197.099 154.759 197.876C154.774 198.521 154.605 199.101 154.253 199.614C153.916 200.127 153.432 200.531 152.801 200.824C152.185 201.117 151.444 201.264 150.579 201.264ZM167.533 201C166.536 201 165.751 200.758 165.179 200.274C164.607 199.79 164.321 198.917 164.321 197.656V191.65H162.429V190.088H164.321V187.47H166.169V190.088H169.227V191.65H166.169V197.656C166.169 198.345 166.308 198.815 166.587 199.064C166.866 199.299 167.357 199.416 168.061 199.416H169.227V201H167.533ZM171.729 201V185.6H173.577V191.958C173.944 191.283 174.464 190.763 175.139 190.396C175.814 190.015 176.547 189.824 177.339 189.824C178.6 189.824 179.612 190.22 180.375 191.012C181.138 191.789 181.519 192.992 181.519 194.62V201H179.693V194.818C179.693 193.689 179.458 192.838 178.989 192.266C178.534 191.694 177.852 191.408 176.943 191.408C175.99 191.408 175.19 191.753 174.545 192.442C173.9 193.117 173.577 194.085 173.577 195.346V201H171.729ZM187.949 201.264C187.201 201.264 186.519 201.139 185.903 200.89C185.287 200.641 184.795 200.267 184.429 199.768C184.077 199.255 183.901 198.631 183.901 197.898C183.901 197.047 184.121 196.373 184.561 195.874C185.001 195.361 185.58 194.994 186.299 194.774C187.032 194.539 187.817 194.422 188.653 194.422H191.601C191.601 193.659 191.469 193.058 191.205 192.618C190.955 192.178 190.625 191.863 190.215 191.672C189.804 191.481 189.349 191.386 188.851 191.386C188.132 191.386 187.509 191.562 186.981 191.914C186.467 192.251 186.145 192.779 186.013 193.498H184.121C184.194 192.706 184.458 192.039 184.913 191.496C185.367 190.953 185.939 190.543 186.629 190.264C187.333 189.971 188.073 189.824 188.851 189.824C189.951 189.824 190.838 190.029 191.513 190.44C192.187 190.836 192.679 191.371 192.987 192.046C193.295 192.721 193.449 193.469 193.449 194.29V197.634C193.449 198.177 193.515 198.587 193.647 198.866C193.779 199.145 194.116 199.313 194.659 199.372V201C194.175 201 193.735 200.941 193.339 200.824C192.943 200.692 192.605 200.487 192.327 200.208C192.063 199.915 191.872 199.533 191.755 199.064C191.388 199.68 190.882 200.201 190.237 200.626C189.606 201.051 188.843 201.264 187.949 201.264ZM188.235 199.702C188.968 199.702 189.584 199.519 190.083 199.152C190.581 198.771 190.955 198.287 191.205 197.7C191.469 197.113 191.601 196.505 191.601 195.874V195.852H188.807C188.293 195.852 187.809 195.911 187.355 196.028C186.9 196.131 186.533 196.329 186.255 196.622C185.976 196.901 185.837 197.297 185.837 197.81C185.837 198.47 186.071 198.954 186.541 199.262C187.01 199.555 187.575 199.702 188.235 199.702ZM200.898 201C199.901 201 199.116 200.758 198.544 200.274C197.972 199.79 197.686 198.917 197.686 197.656V191.65H195.794V190.088H197.686V187.47H199.534V190.088H202.592V191.65H199.534V197.656C199.534 198.345 199.674 198.815 199.952 199.064C200.231 199.299 200.722 199.416 201.426 199.416H202.592V201H200.898ZM211.51 201V191.65H209.86V190.088H211.51V188.636C211.51 187.58 211.774 186.81 212.302 186.326C212.83 185.842 213.6 185.6 214.612 185.6H215.712V187.184H214.898C214.341 187.184 213.945 187.301 213.71 187.536C213.476 187.756 213.358 188.137 213.358 188.68V190.088H216.042V191.65H213.358V201H211.51ZM222.719 201.264C221.707 201.264 220.79 201.029 219.969 200.56C219.162 200.091 218.524 199.431 218.055 198.58C217.586 197.715 217.351 196.703 217.351 195.544C217.351 194.4 217.571 193.403 218.011 192.552C218.466 191.687 219.096 191.019 219.903 190.55C220.724 190.066 221.678 189.824 222.763 189.824C223.79 189.824 224.684 190.051 225.447 190.506C226.21 190.961 226.804 191.577 227.229 192.354C227.669 193.117 227.889 193.975 227.889 194.928C227.889 195.133 227.889 195.295 227.889 195.412C227.889 195.529 227.882 195.713 227.867 195.962H219.177C219.221 196.681 219.39 197.326 219.683 197.898C219.991 198.455 220.402 198.895 220.915 199.218C221.443 199.541 222.044 199.702 222.719 199.702C223.482 199.702 224.12 199.526 224.633 199.174C225.146 198.822 225.52 198.345 225.755 197.744H227.581C227.39 198.419 227.075 199.02 226.635 199.548C226.195 200.076 225.645 200.494 224.985 200.802C224.34 201.11 223.584 201.264 222.719 201.264ZM219.199 194.532H226.063C226.019 193.549 225.682 192.779 225.051 192.222C224.42 191.665 223.643 191.386 222.719 191.386C221.839 191.386 221.054 191.657 220.365 192.2C219.69 192.728 219.302 193.505 219.199 194.532ZM235.244 201.264C234.232 201.264 233.316 201.029 232.494 200.56C231.688 200.091 231.05 199.431 230.58 198.58C230.111 197.715 229.876 196.703 229.876 195.544C229.876 194.4 230.096 193.403 230.536 192.552C230.991 191.687 231.622 191.019 232.428 190.55C233.25 190.066 234.203 189.824 235.288 189.824C236.315 189.824 237.21 190.051 237.972 190.506C238.735 190.961 239.329 191.577 239.754 192.354C240.194 193.117 240.414 193.975 240.414 194.928C240.414 195.133 240.414 195.295 240.414 195.412C240.414 195.529 240.407 195.713 240.392 195.962H231.702C231.746 196.681 231.915 197.326 232.208 197.898C232.516 198.455 232.927 198.895 233.44 199.218C233.968 199.541 234.57 199.702 235.244 199.702C236.007 199.702 236.645 199.526 237.158 199.174C237.672 198.822 238.046 198.345 238.28 197.744H240.106C239.916 198.419 239.6 199.02 239.16 199.548C238.72 200.076 238.17 200.494 237.51 200.802C236.865 201.11 236.11 201.264 235.244 201.264ZM231.724 194.532H238.588C238.544 193.549 238.207 192.779 237.576 192.222C236.946 191.665 236.168 191.386 235.244 191.386C234.364 191.386 233.58 191.657 232.89 192.2C232.216 192.728 231.827 193.505 231.724 194.532ZM242.864 201V185.6H244.712V201H242.864ZM254.685 187.668C254.318 187.668 254.01 187.551 253.761 187.316C253.526 187.067 253.409 186.759 253.409 186.392C253.409 186.04 253.526 185.747 253.761 185.512C254.01 185.277 254.318 185.16 254.685 185.16C255.037 185.16 255.338 185.277 255.587 185.512C255.836 185.747 255.961 186.04 255.961 186.392C255.961 186.759 255.836 187.067 255.587 187.316C255.338 187.551 255.037 187.668 254.685 187.668ZM253.761 201V190.088H255.609V201H253.761ZM258.827 201V190.088H260.499L260.609 192.046C260.961 191.357 261.467 190.814 262.127 190.418C262.787 190.022 263.535 189.824 264.371 189.824C265.661 189.824 266.688 190.22 267.451 191.012C268.228 191.789 268.617 192.992 268.617 194.62V201H266.769V194.818C266.769 193.689 266.534 192.838 266.065 192.266C265.595 191.694 264.891 191.408 263.953 191.408C263.014 191.408 262.229 191.753 261.599 192.442C260.983 193.117 260.675 194.085 260.675 195.346V201H258.827ZM275.75 201C274.753 201 273.968 200.758 273.396 200.274C272.824 199.79 272.538 198.917 272.538 197.656V191.65H270.646V190.088H272.538V187.47H274.386V190.088H277.444V191.65H274.386V197.656C274.386 198.345 274.525 198.815 274.804 199.064C275.083 199.299 275.574 199.416 276.278 199.416H277.444V201H275.75ZM283.95 201.264C283.099 201.264 282.351 201.095 281.706 200.758C281.075 200.406 280.584 199.878 280.232 199.174C279.88 198.455 279.704 197.553 279.704 196.468V190.088H281.552V196.27C281.552 197.399 281.786 198.25 282.256 198.822C282.725 199.394 283.429 199.68 284.368 199.68C285.306 199.68 286.084 199.343 286.7 198.668C287.33 197.979 287.646 197.003 287.646 195.742V190.088H289.494V201H287.822L287.712 199.042C287.36 199.731 286.854 200.274 286.194 200.67C285.534 201.066 284.786 201.264 283.95 201.264ZM293.658 187.668C293.291 187.668 292.983 187.551 292.734 187.316C292.499 187.067 292.382 186.759 292.382 186.392C292.382 186.04 292.499 185.747 292.734 185.512C292.983 185.277 293.291 185.16 293.658 185.16C294.01 185.16 294.31 185.277 294.56 185.512C294.809 185.747 294.934 186.04 294.934 186.392C294.934 186.759 294.809 187.067 294.56 187.316C294.31 187.551 294.01 187.668 293.658 187.668ZM292.734 201V190.088H294.582V201H292.734ZM302.111 201C301.114 201 300.329 200.758 299.757 200.274C299.185 199.79 298.899 198.917 298.899 197.656V191.65H297.007V190.088H298.899V187.47H300.747V190.088H303.805V191.65H300.747V197.656C300.747 198.345 300.887 198.815 301.165 199.064C301.444 199.299 301.935 199.416 302.639 199.416H303.805V201H302.111ZM307.429 187.668C307.062 187.668 306.754 187.551 306.505 187.316C306.27 187.067 306.153 186.759 306.153 186.392C306.153 186.04 306.27 185.747 306.505 185.512C306.754 185.277 307.062 185.16 307.429 185.16C307.781 185.16 308.082 185.277 308.331 185.512C308.58 185.747 308.705 186.04 308.705 186.392C308.705 186.759 308.58 187.067 308.331 187.316C308.082 187.551 307.781 187.668 307.429 187.668ZM306.505 201V190.088H308.353V201H306.505ZM314.717 201L310.581 190.088H312.517L315.795 199.218L319.095 190.088H320.987L316.851 201H314.717ZM327.391 201.264C326.379 201.264 325.462 201.029 324.641 200.56C323.834 200.091 323.196 199.431 322.727 198.58C322.257 197.715 322.023 196.703 322.023 195.544C322.023 194.4 322.243 193.403 322.683 192.552C323.137 191.687 323.768 191.019 324.575 190.55C325.396 190.066 326.349 189.824 327.435 189.824C328.461 189.824 329.356 190.051 330.119 190.506C330.881 190.961 331.475 191.577 331.901 192.354C332.341 193.117 332.561 193.975 332.561 194.928C332.561 195.133 332.561 195.295 332.561 195.412C332.561 195.529 332.553 195.713 332.539 195.962H323.849C323.893 196.681 324.061 197.326 324.355 197.898C324.663 198.455 325.073 198.895 325.587 199.218C326.115 199.541 326.716 199.702 327.391 199.702C328.153 199.702 328.791 199.526 329.305 199.174C329.818 198.822 330.192 198.345 330.427 197.744H332.253C332.062 198.419 331.747 199.02 331.307 199.548C330.867 200.076 330.317 200.494 329.657 200.802C329.011 201.11 328.256 201.264 327.391 201.264ZM323.871 194.532H330.735C330.691 193.549 330.353 192.779 329.723 192.222C329.092 191.665 328.315 191.386 327.391 191.386C326.511 191.386 325.726 191.657 325.037 192.2C324.362 192.728 323.973 193.505 323.871 194.532ZM333.536 203.618L334.812 198.756H336.726L334.812 203.618H333.536ZM344.743 201V190.088H346.415L346.525 192.046C346.877 191.357 347.383 190.814 348.043 190.418C348.703 190.022 349.451 189.824 350.287 189.824C351.577 189.824 352.604 190.22 353.367 191.012C354.144 191.789 354.533 192.992 354.533 194.62V201H352.685V194.818C352.685 193.689 352.45 192.838 351.981 192.266C351.511 191.694 350.807 191.408 349.869 191.408C348.93 191.408 348.145 191.753 347.515 192.442C346.899 193.117 346.591 194.085 346.591 195.346V201H344.743ZM362.392 201.264C361.395 201.264 360.478 201.044 359.642 200.604C358.806 200.149 358.139 199.497 357.64 198.646C357.141 197.781 356.892 196.739 356.892 195.522C356.892 194.363 357.134 193.359 357.618 192.508C358.117 191.657 358.784 190.997 359.62 190.528C360.471 190.059 361.424 189.824 362.48 189.824C363.492 189.824 364.416 190.044 365.252 190.484C366.103 190.924 366.785 191.569 367.298 192.42C367.811 193.271 368.068 194.305 368.068 195.522C368.068 196.637 367.826 197.627 367.342 198.492C366.858 199.357 366.183 200.039 365.318 200.538C364.467 201.022 363.492 201.264 362.392 201.264ZM362.392 199.658C363.111 199.658 363.756 199.489 364.328 199.152C364.9 198.8 365.355 198.316 365.692 197.7C366.029 197.084 366.198 196.358 366.198 195.522C366.198 194.73 366.051 194.026 365.758 193.41C365.465 192.794 365.039 192.31 364.482 191.958C363.925 191.606 363.25 191.43 362.458 191.43C361.651 191.43 360.969 191.613 360.412 191.98C359.869 192.347 359.459 192.838 359.18 193.454C358.901 194.07 358.762 194.759 358.762 195.522C358.762 196.49 358.938 197.282 359.29 197.898C359.642 198.499 360.097 198.947 360.654 199.24C361.211 199.519 361.791 199.658 362.392 199.658ZM374.514 201C373.516 201 372.732 200.758 372.16 200.274C371.588 199.79 371.302 198.917 371.302 197.656V191.65H369.41V190.088H371.302V187.47H373.15V190.088H376.208V191.65H373.15V197.656C373.15 198.345 373.289 198.815 373.568 199.064C373.846 199.299 374.338 199.416 375.042 199.416H376.208V201H374.514ZM80.112 230V220.65H78.462V219.088H80.112V217.636C80.112 216.58 80.376 215.81 80.904 215.326C81.432 214.842 82.202 214.6 83.214 214.6H84.314V216.184H83.5C82.9427 216.184 82.5467 216.301 82.312 216.536C82.0773 216.756 81.96 217.137 81.96 217.68V219.088H84.644V220.65H81.96V230H80.112ZM91.4525 230.264C90.4552 230.264 89.5385 230.044 88.7025 229.604C87.8665 229.149 87.1992 228.497 86.7005 227.646C86.2018 226.781 85.9525 225.739 85.9525 224.522C85.9525 223.363 86.1945 222.359 86.6785 221.508C87.1772 220.657 87.8445 219.997 88.6805 219.528C89.5312 219.059 90.4845 218.824 91.5405 218.824C92.5525 218.824 93.4765 219.044 94.3125 219.484C95.1632 219.924 95.8452 220.569 96.3585 221.42C96.8718 222.271 97.1285 223.305 97.1285 224.522C97.1285 225.637 96.8865 226.627 96.4025 227.492C95.9185 228.357 95.2438 229.039 94.3785 229.538C93.5278 230.022 92.5525 230.264 91.4525 230.264ZM91.4525 228.658C92.1712 228.658 92.8165 228.489 93.3885 228.152C93.9605 227.8 94.4152 227.316 94.7525 226.7C95.0898 226.084 95.2585 225.358 95.2585 224.522C95.2585 223.73 95.1118 223.026 94.8185 222.41C94.5252 221.794 94.0998 221.31 93.5425 220.958C92.9852 220.606 92.3105 220.43 91.5185 220.43C90.7118 220.43 90.0298 220.613 89.4725 220.98C88.9298 221.347 88.5192 221.838 88.2405 222.454C87.9618 223.07 87.8225 223.759 87.8225 224.522C87.8225 225.49 87.9985 226.282 88.3505 226.898C88.7025 227.499 89.1572 227.947 89.7145 228.24C90.2718 228.519 90.8512 228.658 91.4525 228.658ZM99.6918 230V219.088H101.364L101.518 221.178C101.855 220.459 102.368 219.887 103.058 219.462C103.747 219.037 104.598 218.824 105.61 218.824V220.76H105.104C103.901 220.76 103.006 221.083 102.42 221.728C101.833 222.373 101.54 223.297 101.54 224.5V230H99.6918ZM112.292 230.264C111.265 230.264 110.334 230.029 109.498 229.56C108.676 229.091 108.024 228.431 107.54 227.58C107.056 226.715 106.814 225.703 106.814 224.544C106.814 223.415 107.048 222.425 107.518 221.574C107.987 220.709 108.632 220.034 109.454 219.55C110.275 219.066 111.221 218.824 112.292 218.824C113.582 218.824 114.668 219.161 115.548 219.836C116.442 220.511 117.007 221.413 117.242 222.542H115.35C115.203 221.867 114.844 221.347 114.272 220.98C113.7 220.599 113.032 220.408 112.27 220.408C111.492 220.408 110.84 220.599 110.312 220.98C109.784 221.361 109.38 221.867 109.102 222.498C108.838 223.129 108.706 223.811 108.706 224.544C108.706 225.351 108.86 226.069 109.168 226.7C109.476 227.331 109.894 227.822 110.422 228.174C110.964 228.526 111.58 228.702 112.27 228.702C113.032 228.702 113.7 228.519 114.272 228.152C114.844 227.771 115.203 227.235 115.35 226.546H117.242C117.095 227.279 116.794 227.925 116.34 228.482C115.885 229.039 115.313 229.479 114.624 229.802C113.934 230.11 113.157 230.264 112.292 230.264ZM124.729 230.264C123.717 230.264 122.8 230.029 121.979 229.56C121.172 229.091 120.534 228.431 120.065 227.58C119.595 226.715 119.361 225.703 119.361 224.544C119.361 223.4 119.581 222.403 120.021 221.552C120.475 220.687 121.106 220.019 121.913 219.55C122.734 219.066 123.687 218.824 124.773 218.824C125.799 218.824 126.694 219.051 127.457 219.506C128.219 219.961 128.813 220.577 129.239 221.354C129.679 222.117 129.899 222.975 129.899 223.928C129.899 224.133 129.899 224.295 129.899 224.412C129.899 224.529 129.891 224.713 129.877 224.962H121.187C121.231 225.681 121.399 226.326 121.693 226.898C122.001 227.455 122.411 227.895 122.925 228.218C123.453 228.541 124.054 228.702 124.729 228.702C125.491 228.702 126.129 228.526 126.643 228.174C127.156 227.822 127.53 227.345 127.765 226.744H129.591C129.4 227.419 129.085 228.02 128.645 228.548C128.205 229.076 127.655 229.494 126.995 229.802C126.349 230.11 125.594 230.264 124.729 230.264ZM121.209 223.532H128.073C128.029 222.549 127.691 221.779 127.061 221.222C126.43 220.665 125.653 220.386 124.729 220.386C123.849 220.386 123.064 220.657 122.375 221.2C121.7 221.728 121.311 222.505 121.209 223.532ZM137.298 230.264C136.183 230.264 135.223 230.007 134.416 229.494C133.609 228.981 132.986 228.291 132.546 227.426C132.106 226.561 131.886 225.593 131.886 224.522C131.886 223.466 132.099 222.505 132.524 221.64C132.964 220.775 133.587 220.093 134.394 219.594C135.201 219.081 136.176 218.824 137.32 218.824C138.215 218.824 139.007 219.007 139.696 219.374C140.385 219.741 140.921 220.254 141.302 220.914V214.6H143.15V230H141.478L141.302 228.196C140.95 228.724 140.444 229.201 139.784 229.626C139.124 230.051 138.295 230.264 137.298 230.264ZM137.496 228.658C138.303 228.658 138.985 228.475 139.542 228.108C140.099 227.727 140.517 227.228 140.796 226.612C141.089 225.981 141.236 225.292 141.236 224.544C141.236 223.752 141.089 223.048 140.796 222.432C140.503 221.816 140.077 221.332 139.52 220.98C138.963 220.613 138.288 220.43 137.496 220.43C136.792 220.43 136.161 220.599 135.604 220.936C135.047 221.273 134.599 221.75 134.262 222.366C133.939 222.967 133.778 223.693 133.778 224.544C133.778 225.395 133.947 226.128 134.284 226.744C134.621 227.36 135.069 227.837 135.626 228.174C136.198 228.497 136.821 228.658 137.496 228.658ZM146.801 230.11C146.434 230.11 146.126 229.993 145.877 229.758C145.642 229.509 145.525 229.208 145.525 228.856C145.525 228.504 145.642 228.211 145.877 227.976C146.126 227.727 146.434 227.602 146.801 227.602C147.153 227.602 147.446 227.727 147.681 227.976C147.93 228.211 148.055 228.504 148.055 228.856C148.055 229.208 147.93 229.509 147.681 229.758C147.446 229.993 147.153 230.11 146.801 230.11Z" fill="black"/>
<path d="M848.628 172V156.6H850.476V172H848.628ZM858.581 172.264C857.467 172.264 856.506 172.007 855.699 171.494C854.893 170.981 854.269 170.291 853.829 169.426C853.389 168.561 853.169 167.593 853.169 166.522C853.169 165.466 853.382 164.505 853.807 163.64C854.247 162.775 854.871 162.093 855.677 161.594C856.484 161.081 857.459 160.824 858.603 160.824C859.498 160.824 860.29 161.007 860.979 161.374C861.669 161.741 862.204 162.254 862.585 162.914V156.6H864.433V172H862.761L862.585 170.196C862.233 170.724 861.727 171.201 861.067 171.626C860.407 172.051 859.579 172.264 858.581 172.264ZM858.779 170.658C859.586 170.658 860.268 170.475 860.825 170.108C861.383 169.727 861.801 169.228 862.079 168.612C862.373 167.981 862.519 167.292 862.519 166.544C862.519 165.752 862.373 165.048 862.079 164.432C861.786 163.816 861.361 163.332 860.803 162.98C860.246 162.613 859.571 162.43 858.779 162.43C858.075 162.43 857.445 162.599 856.887 162.936C856.33 163.273 855.883 163.75 855.545 164.366C855.223 164.967 855.061 165.693 855.061 166.544C855.061 167.395 855.23 168.128 855.567 168.744C855.905 169.36 856.352 169.837 856.909 170.174C857.481 170.497 858.105 170.658 858.779 170.658ZM872.352 172.264C871.34 172.264 870.423 172.029 869.602 171.56C868.795 171.091 868.157 170.431 867.688 169.58C867.218 168.715 866.984 167.703 866.984 166.544C866.984 165.4 867.204 164.403 867.644 163.552C868.098 162.687 868.729 162.019 869.536 161.55C870.357 161.066 871.31 160.824 872.396 160.824C873.422 160.824 874.317 161.051 875.08 161.506C875.842 161.961 876.436 162.577 876.862 163.354C877.302 164.117 877.522 164.975 877.522 165.928C877.522 166.133 877.522 166.295 877.522 166.412C877.522 166.529 877.514 166.713 877.5 166.962H868.81C868.854 167.681 869.022 168.326 869.316 168.898C869.624 169.455 870.034 169.895 870.548 170.218C871.076 170.541 871.677 170.702 872.352 170.702C873.114 170.702 873.752 170.526 874.266 170.174C874.779 169.822 875.153 169.345 875.388 168.744H877.214C877.023 169.419 876.708 170.02 876.268 170.548C875.828 171.076 875.278 171.494 874.618 171.802C873.972 172.11 873.217 172.264 872.352 172.264ZM868.832 165.532H875.696C875.652 164.549 875.314 163.779 874.684 163.222C874.053 162.665 873.276 162.386 872.352 162.386C871.472 162.386 870.687 162.657 869.998 163.2C869.323 163.728 868.934 164.505 868.832 165.532ZM879.971 172V161.088H881.643L881.753 163.046C882.105 162.357 882.611 161.814 883.271 161.418C883.931 161.022 884.679 160.824 885.515 160.824C886.806 160.824 887.832 161.22 888.595 162.012C889.372 162.789 889.761 163.992 889.761 165.62V172H887.913V165.818C887.913 164.689 887.678 163.838 887.209 163.266C886.74 162.694 886.036 162.408 885.097 162.408C884.158 162.408 883.374 162.753 882.743 163.442C882.127 164.117 881.819 165.085 881.819 166.346V172H879.971ZM896.894 172C895.897 172 895.112 171.758 894.54 171.274C893.968 170.79 893.682 169.917 893.682 168.656V162.65H891.79V161.088H893.682V158.47H895.53V161.088H898.588V162.65H895.53V168.656C895.53 169.345 895.67 169.815 895.948 170.064C896.227 170.299 896.718 170.416 897.422 170.416H898.588V172H896.894ZM902.212 158.668C901.846 158.668 901.538 158.551 901.288 158.316C901.054 158.067 900.936 157.759 900.936 157.392C900.936 157.04 901.054 156.747 901.288 156.512C901.538 156.277 901.846 156.16 902.212 156.16C902.564 156.16 902.865 156.277 903.114 156.512C903.364 156.747 903.488 157.04 903.488 157.392C903.488 157.759 903.364 158.067 903.114 158.316C902.865 158.551 902.564 158.668 902.212 158.668ZM901.288 172V161.088H903.136V172H901.288ZM906.948 172V162.65H905.298V161.088H906.948V159.636C906.948 158.58 907.212 157.81 907.74 157.326C908.268 156.842 909.038 156.6 910.05 156.6H911.15V158.184H910.336C909.779 158.184 909.383 158.301 909.148 158.536C908.913 158.756 908.796 159.137 908.796 159.68V161.088H911.48V162.65H908.796V172H906.948ZM914.868 176.84L917.288 171.56L912.602 161.088H914.604L918.212 169.58L922.04 161.088H923.954L916.804 176.84H914.868ZM935.731 172.264C934.88 172.264 934.132 172.095 933.487 171.758C932.856 171.406 932.365 170.878 932.013 170.174C931.661 169.455 931.485 168.553 931.485 167.468V161.088H933.333V167.27C933.333 168.399 933.568 169.25 934.037 169.822C934.506 170.394 935.21 170.68 936.149 170.68C937.088 170.68 937.865 170.343 938.481 169.668C939.112 168.979 939.427 168.003 939.427 166.742V161.088H941.275V172H939.603L939.493 170.042C939.141 170.731 938.635 171.274 937.975 171.67C937.315 172.066 936.567 172.264 935.731 172.264ZM944.317 172V161.088H945.989L946.099 163.046C946.451 162.357 946.957 161.814 947.617 161.418C948.277 161.022 949.025 160.824 949.861 160.824C951.151 160.824 952.178 161.22 952.941 162.012C953.718 162.789 954.107 163.992 954.107 165.62V172H952.259V165.818C952.259 164.689 952.024 163.838 951.555 163.266C951.085 162.694 950.381 162.408 949.443 162.408C948.504 162.408 947.719 162.753 947.089 163.442C946.473 164.117 946.165 165.085 946.165 166.346V172H944.317ZM961.878 172.264C960.763 172.264 959.803 172.007 958.996 171.494C958.189 170.981 957.566 170.291 957.126 169.426C956.686 168.561 956.466 167.593 956.466 166.522C956.466 165.466 956.679 164.505 957.104 163.64C957.544 162.775 958.167 162.093 958.974 161.594C959.781 161.081 960.756 160.824 961.9 160.824C962.795 160.824 963.587 161.007 964.276 161.374C964.965 161.741 965.501 162.254 965.882 162.914V156.6H967.73V172H966.058L965.882 170.196C965.53 170.724 965.024 171.201 964.364 171.626C963.704 172.051 962.875 172.264 961.878 172.264ZM962.076 170.658C962.883 170.658 963.565 170.475 964.122 170.108C964.679 169.727 965.097 169.228 965.376 168.612C965.669 167.981 965.816 167.292 965.816 166.544C965.816 165.752 965.669 165.048 965.376 164.432C965.083 163.816 964.657 163.332 964.1 162.98C963.543 162.613 962.868 162.43 962.076 162.43C961.372 162.43 960.741 162.599 960.184 162.936C959.627 163.273 959.179 163.75 958.842 164.366C958.519 164.967 958.358 165.693 958.358 166.544C958.358 167.395 958.527 168.128 958.864 168.744C959.201 169.36 959.649 169.837 960.206 170.174C960.778 170.497 961.401 170.658 962.076 170.658ZM975.649 172.264C974.637 172.264 973.72 172.029 972.899 171.56C972.092 171.091 971.454 170.431 970.985 169.58C970.515 168.715 970.281 167.703 970.281 166.544C970.281 165.4 970.501 164.403 970.941 163.552C971.395 162.687 972.026 162.019 972.833 161.55C973.654 161.066 974.607 160.824 975.693 160.824C976.719 160.824 977.614 161.051 978.377 161.506C979.139 161.961 979.733 162.577 980.159 163.354C980.599 164.117 980.819 164.975 980.819 165.928C980.819 166.133 980.819 166.295 980.819 166.412C980.819 166.529 980.811 166.713 980.797 166.962H972.107C972.151 167.681 972.319 168.326 972.613 168.898C972.921 169.455 973.331 169.895 973.845 170.218C974.373 170.541 974.974 170.702 975.649 170.702C976.411 170.702 977.049 170.526 977.563 170.174C978.076 169.822 978.45 169.345 978.685 168.744H980.511C980.32 169.419 980.005 170.02 979.565 170.548C979.125 171.076 978.575 171.494 977.915 171.802C977.269 172.11 976.514 172.264 975.649 172.264ZM972.129 165.532H978.993C978.949 164.549 978.611 163.779 977.981 163.222C977.35 162.665 976.573 162.386 975.649 162.386C974.769 162.386 973.984 162.657 973.295 163.2C972.62 163.728 972.231 164.505 972.129 165.532ZM983.268 172V161.088H984.94L985.094 163.178C985.431 162.459 985.945 161.887 986.634 161.462C987.323 161.037 988.174 160.824 989.186 160.824V162.76H988.68C987.477 162.76 986.583 163.083 985.996 163.728C985.409 164.373 985.116 165.297 985.116 166.5V172H983.268ZM991.26 172V156.6H993.108V172H991.26ZM997.325 176.84L999.745 171.56L995.059 161.088H997.061L1000.67 169.58L1004.5 161.088H1006.41L999.261 176.84H997.325ZM1009.48 158.668C1009.12 158.668 1008.81 158.551 1008.56 158.316C1008.33 158.067 1008.21 157.759 1008.21 157.392C1008.21 157.04 1008.33 156.747 1008.56 156.512C1008.81 156.277 1009.12 156.16 1009.48 156.16C1009.84 156.16 1010.14 156.277 1010.39 156.512C1010.64 156.747 1010.76 157.04 1010.76 157.392C1010.76 157.759 1010.64 158.067 1010.39 158.316C1010.14 158.551 1009.84 158.668 1009.48 158.668ZM1008.56 172V161.088H1010.41V172H1008.56ZM1013.63 172V161.088H1015.3L1015.41 163.046C1015.76 162.357 1016.27 161.814 1016.93 161.418C1017.59 161.022 1018.33 160.824 1019.17 160.824C1020.46 160.824 1021.49 161.22 1022.25 162.012C1023.03 162.789 1023.42 163.992 1023.42 165.62V172H1021.57V165.818C1021.57 164.689 1021.33 163.838 1020.86 163.266C1020.39 162.694 1019.69 162.408 1018.75 162.408C1017.81 162.408 1017.03 162.753 1016.4 163.442C1015.78 164.117 1015.47 165.085 1015.47 166.346V172H1013.63ZM1030.57 177.104C1029.71 177.104 1028.88 176.994 1028.08 176.774C1027.29 176.554 1026.65 176.18 1026.15 175.652C1025.66 175.139 1025.42 174.449 1025.42 173.584C1025.42 172.983 1025.56 172.484 1025.84 172.088C1026.12 171.692 1026.49 171.391 1026.94 171.186C1026.59 170.981 1026.3 170.724 1026.08 170.416C1025.86 170.108 1025.75 169.756 1025.75 169.36C1025.75 168.48 1026.15 167.769 1026.94 167.226C1026.65 166.889 1026.41 166.515 1026.24 166.104C1026.08 165.679 1025.99 165.209 1025.99 164.696C1025.99 163.889 1026.18 163.2 1026.54 162.628C1026.93 162.041 1027.44 161.594 1028.08 161.286C1028.74 160.978 1029.49 160.824 1030.33 160.824C1030.94 160.824 1031.52 160.912 1032.07 161.088H1035.78V162.65H1034.09C1034.28 162.943 1034.42 163.266 1034.51 163.618C1034.61 163.955 1034.66 164.315 1034.66 164.696C1034.66 165.532 1034.46 166.236 1034.07 166.808C1033.69 167.38 1033.17 167.82 1032.51 168.128C1031.86 168.421 1031.14 168.568 1030.33 168.568C1029.92 168.568 1029.54 168.524 1029.21 168.436C1028.87 168.348 1028.53 168.223 1028.19 168.062C1027.81 168.253 1027.62 168.546 1027.62 168.942C1027.62 169.675 1028.24 170.042 1029.47 170.042H1031.3C1032.12 170.042 1032.84 170.152 1033.47 170.372C1034.11 170.577 1034.6 170.922 1034.95 171.406C1035.32 171.875 1035.5 172.521 1035.5 173.342C1035.5 174.178 1035.26 174.875 1034.79 175.432C1034.33 175.989 1033.72 176.407 1032.97 176.686C1032.22 176.965 1031.42 177.104 1030.57 177.104ZM1030.53 175.564C1031.41 175.564 1032.15 175.395 1032.77 175.058C1033.39 174.735 1033.69 174.237 1033.69 173.562C1033.69 172.301 1032.93 171.67 1031.41 171.67H1029.54C1028.82 171.67 1028.25 171.824 1027.84 172.132C1027.43 172.455 1027.23 172.931 1027.23 173.562C1027.23 174.046 1027.38 174.435 1027.69 174.728C1028 175.021 1028.4 175.234 1028.9 175.366C1029.4 175.498 1029.94 175.564 1030.53 175.564ZM1030.28 167.028C1031.05 167.028 1031.67 166.808 1032.15 166.368C1032.64 165.928 1032.88 165.371 1032.88 164.696C1032.88 164.021 1032.64 163.464 1032.15 163.024C1031.67 162.584 1031.05 162.364 1030.28 162.364C1029.52 162.364 1028.91 162.584 1028.44 163.024C1027.98 163.464 1027.75 164.021 1027.75 164.696C1027.75 165.371 1027.97 165.928 1028.41 166.368C1028.87 166.808 1029.49 167.028 1030.28 167.028ZM1048.02 172C1047.02 172 1046.23 171.758 1045.66 171.274C1045.09 170.79 1044.8 169.917 1044.8 168.656V162.65H1042.91V161.088H1044.8V158.47H1046.65V161.088H1049.71V162.65H1046.65V168.656C1046.65 169.345 1046.79 169.815 1047.07 170.064C1047.35 170.299 1047.84 170.416 1048.54 170.416H1049.71V172H1048.02ZM1052.21 172V161.088H1053.88L1054.04 163.178C1054.37 162.459 1054.89 161.887 1055.58 161.462C1056.27 161.037 1057.12 160.824 1058.13 160.824V162.76H1057.62C1056.42 162.76 1055.53 163.083 1054.94 163.728C1054.35 164.373 1054.06 165.297 1054.06 166.5V172H1052.21ZM1064.7 172.264C1063.69 172.264 1062.77 172.029 1061.95 171.56C1061.14 171.091 1060.51 170.431 1060.04 169.58C1059.57 168.715 1059.33 167.703 1059.33 166.544C1059.33 165.4 1059.55 164.403 1059.99 163.552C1060.45 162.687 1061.08 162.019 1061.89 161.55C1062.71 161.066 1063.66 160.824 1064.75 160.824C1065.77 160.824 1066.67 161.051 1067.43 161.506C1068.19 161.961 1068.79 162.577 1069.21 163.354C1069.65 164.117 1069.87 164.975 1069.87 165.928C1069.87 166.133 1069.87 166.295 1069.87 166.412C1069.87 166.529 1069.86 166.713 1069.85 166.962H1061.16C1061.2 167.681 1061.37 168.326 1061.67 168.898C1061.97 169.455 1062.38 169.895 1062.9 170.218C1063.43 170.541 1064.03 170.702 1064.7 170.702C1065.46 170.702 1066.1 170.526 1066.62 170.174C1067.13 169.822 1067.5 169.345 1067.74 168.744H1069.56C1069.37 169.419 1069.06 170.02 1068.62 170.548C1068.18 171.076 1067.63 171.494 1066.97 171.802C1066.32 172.11 1065.57 172.264 1064.7 172.264ZM1061.18 165.532H1068.05C1068 164.549 1067.66 163.779 1067.03 163.222C1066.4 162.665 1065.63 162.386 1064.7 162.386C1063.82 162.386 1063.04 162.657 1062.35 163.2C1061.67 163.728 1061.28 164.505 1061.18 165.532ZM1072.32 172V161.088H1073.99L1074.1 163.046C1074.45 162.357 1074.96 161.814 1075.62 161.418C1076.28 161.022 1077.03 160.824 1077.86 160.824C1079.16 160.824 1080.18 161.22 1080.94 162.012C1081.72 162.789 1082.11 163.992 1082.11 165.62V172H1080.26V165.818C1080.26 164.689 1080.03 163.838 1079.56 163.266C1079.09 162.694 1078.39 162.408 1077.45 162.408C1076.51 162.408 1075.72 162.753 1075.09 163.442C1074.48 164.117 1074.17 165.085 1074.17 166.346V172H1072.32ZM1089.88 172.264C1088.77 172.264 1087.81 172.007 1087 171.494C1086.19 170.981 1085.57 170.291 1085.13 169.426C1084.69 168.561 1084.47 167.593 1084.47 166.522C1084.47 165.466 1084.68 164.505 1085.11 163.64C1085.55 162.775 1086.17 162.093 1086.98 161.594C1087.78 161.081 1088.76 160.824 1089.9 160.824C1090.8 160.824 1091.59 161.007 1092.28 161.374C1092.97 161.741 1093.5 162.254 1093.89 162.914V156.6H1095.73V172H1094.06L1093.89 170.196C1093.53 170.724 1093.03 171.201 1092.37 171.626C1091.71 172.051 1090.88 172.264 1089.88 172.264ZM1090.08 170.658C1090.89 170.658 1091.57 170.475 1092.13 170.108C1092.68 169.727 1093.1 169.228 1093.38 168.612C1093.67 167.981 1093.82 167.292 1093.82 166.544C1093.82 165.752 1093.67 165.048 1093.38 164.432C1093.09 163.816 1092.66 163.332 1092.1 162.98C1091.55 162.613 1090.87 162.43 1090.08 162.43C1089.38 162.43 1088.75 162.599 1088.19 162.936C1087.63 163.273 1087.18 163.75 1086.85 164.366C1086.52 164.967 1086.36 165.693 1086.36 166.544C1086.36 167.395 1086.53 168.128 1086.87 168.744C1087.21 169.36 1087.65 169.837 1088.21 170.174C1088.78 170.497 1089.41 170.658 1090.08 170.658ZM1102.93 172.264C1102.06 172.264 1101.28 172.117 1100.59 171.824C1099.91 171.516 1099.35 171.091 1098.92 170.548C1098.51 169.991 1098.26 169.338 1098.15 168.59H1100.04C1100.16 169.162 1100.46 169.661 1100.95 170.086C1101.45 170.497 1102.11 170.702 1102.95 170.702C1103.73 170.702 1104.3 170.541 1104.66 170.218C1105.03 169.881 1105.21 169.485 1105.21 169.03C1105.21 168.59 1105.1 168.253 1104.88 168.018C1104.68 167.783 1104.37 167.607 1103.96 167.49C1103.56 167.358 1103.07 167.233 1102.49 167.116C1101.87 166.984 1101.27 166.808 1100.68 166.588C1100.1 166.353 1099.61 166.038 1099.23 165.642C1098.85 165.246 1098.66 164.725 1098.66 164.08C1098.66 163.435 1098.82 162.87 1099.14 162.386C1099.47 161.902 1099.92 161.521 1100.51 161.242C1101.11 160.963 1101.81 160.824 1102.62 160.824C1103.78 160.824 1104.72 161.117 1105.46 161.704C1106.2 162.276 1106.64 163.097 1106.75 164.168H1104.93C1104.86 163.611 1104.61 163.178 1104.2 162.87C1103.81 162.547 1103.27 162.386 1102.6 162.386C1101.94 162.386 1101.42 162.525 1101.06 162.804C1100.7 163.083 1100.53 163.449 1100.53 163.904C1100.53 164.197 1100.63 164.447 1100.84 164.652C1101.04 164.857 1101.34 165.033 1101.72 165.18C1102.11 165.327 1102.57 165.459 1103.1 165.576C1103.84 165.723 1104.5 165.906 1105.1 166.126C1105.71 166.346 1106.19 166.669 1106.56 167.094C1106.92 167.505 1107.11 168.099 1107.11 168.876C1107.12 169.521 1106.95 170.101 1106.6 170.614C1106.26 171.127 1105.78 171.531 1105.15 171.824C1104.53 172.117 1103.79 172.264 1102.93 172.264ZM854.348 201.264C853.453 201.264 852.654 201.081 851.95 200.714C851.261 200.347 850.733 199.834 850.366 199.174L850.19 201H848.518V185.6H850.366V191.892C850.718 191.364 851.217 190.887 851.862 190.462C852.522 190.037 853.358 189.824 854.37 189.824C855.47 189.824 856.423 190.073 857.23 190.572C858.037 191.071 858.66 191.753 859.1 192.618C859.54 193.483 859.76 194.466 859.76 195.566C859.76 196.651 859.54 197.627 859.1 198.492C858.66 199.357 858.029 200.039 857.208 200.538C856.401 201.022 855.448 201.264 854.348 201.264ZM854.15 199.658C854.898 199.658 855.551 199.489 856.108 199.152C856.665 198.8 857.098 198.316 857.406 197.7C857.729 197.069 857.89 196.351 857.89 195.544C857.89 194.767 857.736 194.07 857.428 193.454C857.135 192.823 856.709 192.332 856.152 191.98C855.595 191.613 854.927 191.43 854.15 191.43C853.417 191.43 852.764 191.606 852.192 191.958C851.635 192.295 851.195 192.772 850.872 193.388C850.564 194.004 850.41 194.723 850.41 195.544C850.41 196.307 850.564 197.003 850.872 197.634C851.18 198.25 851.613 198.741 852.17 199.108C852.727 199.475 853.387 199.658 854.15 199.658ZM867.238 201.264C866.226 201.264 865.31 201.029 864.488 200.56C863.682 200.091 863.044 199.431 862.574 198.58C862.105 197.715 861.87 196.703 861.87 195.544C861.87 194.4 862.09 193.403 862.53 192.552C862.985 191.687 863.616 191.019 864.422 190.55C865.244 190.066 866.197 189.824 867.282 189.824C868.309 189.824 869.204 190.051 869.966 190.506C870.729 190.961 871.323 191.577 871.748 192.354C872.188 193.117 872.408 193.975 872.408 194.928C872.408 195.133 872.408 195.295 872.408 195.412C872.408 195.529 872.401 195.713 872.386 195.962H863.696C863.74 196.681 863.909 197.326 864.202 197.898C864.51 198.455 864.921 198.895 865.434 199.218C865.962 199.541 866.564 199.702 867.238 199.702C868.001 199.702 868.639 199.526 869.152 199.174C869.666 198.822 870.04 198.345 870.274 197.744H872.1C871.91 198.419 871.594 199.02 871.154 199.548C870.714 200.076 870.164 200.494 869.504 200.802C868.859 201.11 868.104 201.264 867.238 201.264ZM863.718 194.532H870.582C870.538 193.549 870.201 192.779 869.57 192.222C868.94 191.665 868.162 191.386 867.238 191.386C866.358 191.386 865.574 191.657 864.884 192.2C864.21 192.728 863.821 193.505 863.718 194.532ZM875.452 201V191.65H873.802V190.088H875.452V188.636C875.452 187.58 875.716 186.81 876.244 186.326C876.772 185.842 877.542 185.6 878.554 185.6H879.654V187.184H878.84C878.283 187.184 877.887 187.301 877.652 187.536C877.417 187.756 877.3 188.137 877.3 188.68V190.088H879.984V191.65H877.3V201H875.452ZM886.792 201.264C885.795 201.264 884.878 201.044 884.042 200.604C883.206 200.149 882.539 199.497 882.04 198.646C881.542 197.781 881.292 196.739 881.292 195.522C881.292 194.363 881.534 193.359 882.018 192.508C882.517 191.657 883.184 190.997 884.02 190.528C884.871 190.059 885.824 189.824 886.88 189.824C887.892 189.824 888.816 190.044 889.652 190.484C890.503 190.924 891.185 191.569 891.698 192.42C892.212 193.271 892.468 194.305 892.468 195.522C892.468 196.637 892.226 197.627 891.742 198.492C891.258 199.357 890.584 200.039 889.718 200.538C888.868 201.022 887.892 201.264 886.792 201.264ZM886.792 199.658C887.511 199.658 888.156 199.489 888.728 199.152C889.3 198.8 889.755 198.316 890.092 197.7C890.43 197.084 890.598 196.358 890.598 195.522C890.598 194.73 890.452 194.026 890.158 193.41C889.865 192.794 889.44 192.31 888.882 191.958C888.325 191.606 887.65 191.43 886.858 191.43C886.052 191.43 885.37 191.613 884.812 191.98C884.27 192.347 883.859 192.838 883.58 193.454C883.302 194.07 883.162 194.759 883.162 195.522C883.162 196.49 883.338 197.282 883.69 197.898C884.042 198.499 884.497 198.947 885.054 199.24C885.612 199.519 886.191 199.658 886.792 199.658ZM895.032 201V190.088H896.704L896.858 192.178C897.195 191.459 897.708 190.887 898.398 190.462C899.087 190.037 899.938 189.824 900.95 189.824V191.76H900.444C899.241 191.76 898.346 192.083 897.76 192.728C897.173 193.373 896.88 194.297 896.88 195.5V201H895.032ZM907.522 201.264C906.51 201.264 905.593 201.029 904.772 200.56C903.965 200.091 903.327 199.431 902.858 198.58C902.388 197.715 902.154 196.703 902.154 195.544C902.154 194.4 902.374 193.403 902.814 192.552C903.268 191.687 903.899 191.019 904.706 190.55C905.527 190.066 906.48 189.824 907.566 189.824C908.592 189.824 909.487 190.051 910.25 190.506C911.012 190.961 911.606 191.577 912.032 192.354C912.472 193.117 912.692 193.975 912.692 194.928C912.692 195.133 912.692 195.295 912.692 195.412C912.692 195.529 912.684 195.713 912.67 195.962H903.98C904.024 196.681 904.192 197.326 904.486 197.898C904.794 198.455 905.204 198.895 905.718 199.218C906.246 199.541 906.847 199.702 907.522 199.702C908.284 199.702 908.922 199.526 909.436 199.174C909.949 198.822 910.323 198.345 910.558 197.744H912.384C912.193 198.419 911.878 199.02 911.438 199.548C910.998 200.076 910.448 200.494 909.788 200.802C909.142 201.11 908.387 201.264 907.522 201.264ZM904.002 194.532H910.866C910.822 193.549 910.484 192.779 909.854 192.222C909.223 191.665 908.446 191.386 907.522 191.386C906.642 191.386 905.857 191.657 905.168 192.2C904.493 192.728 904.104 193.505 904.002 194.532ZM925.275 201C924.278 201 923.493 200.758 922.921 200.274C922.349 199.79 922.063 198.917 922.063 197.656V191.65H920.171V190.088H922.063V187.47H923.911V190.088H926.969V191.65H923.911V197.656C923.911 198.345 924.051 198.815 924.329 199.064C924.608 199.299 925.099 199.416 925.803 199.416H926.969V201H925.275ZM929.471 201V185.6H931.319V191.958C931.686 191.283 932.206 190.763 932.881 190.396C933.556 190.015 934.289 189.824 935.081 189.824C936.342 189.824 937.354 190.22 938.117 191.012C938.88 191.789 939.261 192.992 939.261 194.62V201H937.435V194.818C937.435 193.689 937.2 192.838 936.731 192.266C936.276 191.694 935.594 191.408 934.685 191.408C933.732 191.408 932.932 191.753 932.287 192.442C931.642 193.117 931.319 194.085 931.319 195.346V201H929.471ZM946.967 201.264C945.955 201.264 945.038 201.029 944.217 200.56C943.41 200.091 942.772 199.431 942.303 198.58C941.834 197.715 941.599 196.703 941.599 195.544C941.599 194.4 941.819 193.403 942.259 192.552C942.714 191.687 943.344 191.019 944.151 190.55C944.972 190.066 945.926 189.824 947.011 189.824C948.038 189.824 948.932 190.051 949.695 190.506C950.458 190.961 951.052 191.577 951.477 192.354C951.917 193.117 952.137 193.975 952.137 194.928C952.137 195.133 952.137 195.295 952.137 195.412C952.137 195.529 952.13 195.713 952.115 195.962H943.425C943.469 196.681 943.638 197.326 943.931 197.898C944.239 198.455 944.65 198.895 945.163 199.218C945.691 199.541 946.292 199.702 946.967 199.702C947.73 199.702 948.368 199.526 948.881 199.174C949.394 198.822 949.768 198.345 950.003 197.744H951.829C951.638 198.419 951.323 199.02 950.883 199.548C950.443 200.076 949.893 200.494 949.233 200.802C948.588 201.11 947.832 201.264 946.967 201.264ZM943.447 194.532H950.311C950.267 193.549 949.93 192.779 949.299 192.222C948.668 191.665 947.891 191.386 946.967 191.386C946.087 191.386 945.302 191.657 944.613 192.2C943.938 192.728 943.55 193.505 943.447 194.532ZM955.345 205.84L957.765 200.56L953.079 190.088H955.081L958.689 198.58L962.517 190.088H964.431L957.281 205.84H955.345ZM976.384 201.264C975.518 201.264 974.741 201.117 974.052 200.824C973.362 200.516 972.805 200.091 972.38 199.548C971.969 198.991 971.712 198.338 971.61 197.59H973.502C973.619 198.162 973.92 198.661 974.404 199.086C974.902 199.497 975.57 199.702 976.406 199.702C977.183 199.702 977.755 199.541 978.122 199.218C978.488 198.881 978.672 198.485 978.672 198.03C978.672 197.59 978.562 197.253 978.342 197.018C978.136 196.783 977.828 196.607 977.418 196.49C977.022 196.358 976.53 196.233 975.944 196.116C975.328 195.984 974.726 195.808 974.14 195.588C973.553 195.353 973.069 195.038 972.688 194.642C972.306 194.246 972.116 193.725 972.116 193.08C972.116 192.435 972.277 191.87 972.6 191.386C972.922 190.902 973.377 190.521 973.964 190.242C974.565 189.963 975.269 189.824 976.076 189.824C977.234 189.824 978.18 190.117 978.914 190.704C979.662 191.276 980.094 192.097 980.212 193.168H978.386C978.312 192.611 978.07 192.178 977.66 191.87C977.264 191.547 976.728 191.386 976.054 191.386C975.394 191.386 974.88 191.525 974.514 191.804C974.162 192.083 973.986 192.449 973.986 192.904C973.986 193.197 974.088 193.447 974.294 193.652C974.499 193.857 974.792 194.033 975.174 194.18C975.57 194.327 976.032 194.459 976.56 194.576C977.293 194.723 977.96 194.906 978.562 195.126C979.163 195.346 979.647 195.669 980.014 196.094C980.38 196.505 980.564 197.099 980.564 197.876C980.578 198.521 980.41 199.101 980.058 199.614C979.72 200.127 979.236 200.531 978.606 200.824C977.99 201.117 977.249 201.264 976.384 201.264ZM987.208 201.264C986.357 201.264 985.609 201.095 984.964 200.758C984.333 200.406 983.842 199.878 983.49 199.174C983.138 198.455 982.962 197.553 982.962 196.468V190.088H984.81V196.27C984.81 197.399 985.044 198.25 985.514 198.822C985.983 199.394 986.687 199.68 987.626 199.68C988.564 199.68 989.342 199.343 989.958 198.668C990.588 197.979 990.904 197.003 990.904 195.742V190.088H992.752V201H991.08L990.97 199.042C990.618 199.731 990.112 200.274 989.452 200.67C988.792 201.066 988.044 201.264 987.208 201.264ZM995.793 201V190.088H997.465L997.619 192.178C997.957 191.459 998.47 190.887 999.159 190.462C999.849 190.037 1000.7 189.824 1001.71 189.824V191.76H1001.21C1000 191.76 999.108 192.083 998.521 192.728C997.935 193.373 997.641 194.297 997.641 195.5V201H995.793ZM1004.38 201V191.65H1002.73V190.088H1004.38V188.636C1004.38 187.58 1004.64 186.81 1005.17 186.326C1005.7 185.842 1006.47 185.6 1007.48 185.6H1008.58V187.184H1007.77C1007.21 187.184 1006.81 187.301 1006.58 187.536C1006.34 187.756 1006.23 188.137 1006.23 188.68V190.088H1008.91V191.65H1006.23V201H1004.38ZM1014.31 201.264C1013.56 201.264 1012.88 201.139 1012.27 200.89C1011.65 200.641 1011.16 200.267 1010.79 199.768C1010.44 199.255 1010.26 198.631 1010.26 197.898C1010.26 197.047 1010.48 196.373 1010.92 195.874C1011.36 195.361 1011.94 194.994 1012.66 194.774C1013.4 194.539 1014.18 194.422 1015.02 194.422H1017.96C1017.96 193.659 1017.83 193.058 1017.57 192.618C1017.32 192.178 1016.99 191.863 1016.58 191.672C1016.17 191.481 1015.71 191.386 1015.21 191.386C1014.5 191.386 1013.87 191.562 1013.34 191.914C1012.83 192.251 1012.51 192.779 1012.38 193.498H1010.48C1010.56 192.706 1010.82 192.039 1011.28 191.496C1011.73 190.953 1012.3 190.543 1012.99 190.264C1013.7 189.971 1014.44 189.824 1015.21 189.824C1016.31 189.824 1017.2 190.029 1017.88 190.44C1018.55 190.836 1019.04 191.371 1019.35 192.046C1019.66 192.721 1019.81 193.469 1019.81 194.29V197.634C1019.81 198.177 1019.88 198.587 1020.01 198.866C1020.14 199.145 1020.48 199.313 1021.02 199.372V201C1020.54 201 1020.1 200.941 1019.7 200.824C1019.31 200.692 1018.97 200.487 1018.69 200.208C1018.43 199.915 1018.24 199.533 1018.12 199.064C1017.75 199.68 1017.25 200.201 1016.6 200.626C1015.97 201.051 1015.21 201.264 1014.31 201.264ZM1014.6 199.702C1015.33 199.702 1015.95 199.519 1016.45 199.152C1016.94 198.771 1017.32 198.287 1017.57 197.7C1017.83 197.113 1017.96 196.505 1017.96 195.874V195.852H1015.17C1014.66 195.852 1014.17 195.911 1013.72 196.028C1013.26 196.131 1012.9 196.329 1012.62 196.622C1012.34 196.901 1012.2 197.297 1012.2 197.81C1012.2 198.47 1012.43 198.954 1012.9 199.262C1013.37 199.555 1013.94 199.702 1014.6 199.702ZM1028.01 201.264C1026.98 201.264 1026.05 201.029 1025.21 200.56C1024.39 200.091 1023.74 199.431 1023.26 198.58C1022.77 197.715 1022.53 196.703 1022.53 195.544C1022.53 194.415 1022.77 193.425 1023.23 192.574C1023.7 191.709 1024.35 191.034 1025.17 190.55C1025.99 190.066 1026.94 189.824 1028.01 189.824C1029.3 189.824 1030.38 190.161 1031.26 190.836C1032.16 191.511 1032.72 192.413 1032.96 193.542H1031.07C1030.92 192.867 1030.56 192.347 1029.99 191.98C1029.42 191.599 1028.75 191.408 1027.99 191.408C1027.21 191.408 1026.56 191.599 1026.03 191.98C1025.5 192.361 1025.1 192.867 1024.82 193.498C1024.55 194.129 1024.42 194.811 1024.42 195.544C1024.42 196.351 1024.58 197.069 1024.88 197.7C1025.19 198.331 1025.61 198.822 1026.14 199.174C1026.68 199.526 1027.3 199.702 1027.99 199.702C1028.75 199.702 1029.42 199.519 1029.99 199.152C1030.56 198.771 1030.92 198.235 1031.07 197.546H1032.96C1032.81 198.279 1032.51 198.925 1032.06 199.482C1031.6 200.039 1031.03 200.479 1030.34 200.802C1029.65 201.11 1028.87 201.264 1028.01 201.264ZM1040.45 201.264C1039.43 201.264 1038.52 201.029 1037.7 200.56C1036.89 200.091 1036.25 199.431 1035.78 198.58C1035.31 197.715 1035.08 196.703 1035.08 195.544C1035.08 194.4 1035.3 193.403 1035.74 192.552C1036.19 191.687 1036.82 191.019 1037.63 190.55C1038.45 190.066 1039.4 189.824 1040.49 189.824C1041.52 189.824 1042.41 190.051 1043.17 190.506C1043.94 190.961 1044.53 191.577 1044.96 192.354C1045.4 193.117 1045.62 193.975 1045.62 194.928C1045.62 195.133 1045.62 195.295 1045.62 195.412C1045.62 195.529 1045.61 195.713 1045.59 195.962H1036.9C1036.95 196.681 1037.12 197.326 1037.41 197.898C1037.72 198.455 1038.13 198.895 1038.64 199.218C1039.17 199.541 1039.77 199.702 1040.45 199.702C1041.21 199.702 1041.85 199.526 1042.36 199.174C1042.87 198.822 1043.25 198.345 1043.48 197.744H1045.31C1045.12 198.419 1044.8 199.02 1044.36 199.548C1043.92 200.076 1043.37 200.494 1042.71 200.802C1042.07 201.11 1041.31 201.264 1040.45 201.264ZM1036.93 194.532H1043.79C1043.75 193.549 1043.41 192.779 1042.78 192.222C1042.15 191.665 1041.37 191.386 1040.45 191.386C1039.57 191.386 1038.78 191.657 1038.09 192.2C1037.42 192.728 1037.03 193.505 1036.93 194.532ZM1048.7 201.11C1048.34 201.11 1048.03 200.993 1047.78 200.758C1047.54 200.509 1047.43 200.208 1047.43 199.856C1047.43 199.504 1047.54 199.211 1047.78 198.976C1048.03 198.727 1048.34 198.602 1048.7 198.602C1049.05 198.602 1049.35 198.727 1049.58 198.976C1049.83 199.211 1049.96 199.504 1049.96 199.856C1049.96 200.208 1049.83 200.509 1049.58 200.758C1049.35 200.993 1049.05 201.11 1048.7 201.11Z" fill="black"/>
<defs>
<linearGradient id="paint0_linear_11_767" x1="633.132" y1="630.178" x2="633.132" y2="59.7357" gradientUnits="userSpaceOnUse">
<stop stop-color="#CECECE" stop-opacity="0.3"/>
<stop offset="1" stop-color="#CECECE"/>
</linearGradient>
<linearGradient id="paint1_linear_11_767" x1="550.696" y1="297.683" x2="645.211" y2="392.198" gradientUnits="userSpaceOnUse">
<stop stop-color="#FE889C"/>
<stop offset="0.41" stop-color="#DC7ED1"/>
<stop offset="0.72" stop-color="#9E92E4"/>
<stop offset="1" stop-color="#43AEFF"/>
</linearGradient>
<linearGradient id="paint2_linear_11_767" x1="153.653" y1="75.9307" x2="1074.98" y2="607.843" gradientUnits="userSpaceOnUse">
<stop stop-color="#FE889C"/>
<stop offset="0.42" stop-color="#DC7ED1"/>
<stop offset="0.78" stop-color="#9E92E4"/>
<stop offset="1" stop-color="#43AEFF"/>
</linearGradient>
<linearGradient id="paint3_linear_11_767" x1="971.667" y1="55.3218" x2="971.667" y2="-1.76462e-05" gradientUnits="userSpaceOnUse">
<stop stop-color="#FE889C"/>
<stop offset="0.42" stop-color="#DC7ED1"/>
<stop offset="0.78" stop-color="#9E92E4"/>
<stop offset="1" stop-color="#43AEFF"/>
</linearGradient>
<linearGradient id="paint4_linear_11_767" x1="274.95" y1="712.248" x2="274.95" y2="559.69" gradientUnits="userSpaceOnUse">
<stop stop-color="#FE889C"/>
<stop offset="0.42" stop-color="#DC7ED1"/>
<stop offset="0.78" stop-color="#9E92E4"/>
<stop offset="1" stop-color="#43AEFF"/>
</linearGradient>
<clipPath id="clip0_11_767">
<rect width="712.248" height="1222.52" fill="white" transform="translate(3.05176e-05 712.248) rotate(-90)"/>
</clipPath>
</defs>
</svg>
