<svg width="1223" height="713" viewBox="0 0 1223 713" fill="none" xmlns="http://www.w3.org/2000/svg">
<g clip-path="url(#clip0_11_742)">
<path style="mix-blend-mode:screen" d="M916.677 344.94C916.677 188.342 789.729 61.395 633.132 61.395C476.534 61.395 349.586 188.342 349.586 344.94C349.586 501.538 476.534 628.485 633.132 628.485C789.729 628.485 916.677 501.538 916.677 344.94Z" stroke="url(#paint0_linear_11_742)" stroke-miterlimit="10"/>
<path d="M1025.1 344.94L206.951 344.94" stroke="#9B9B9B" stroke-miterlimit="10"/>
<path d="M743.477 344.94C743.477 283.998 694.073 234.595 633.132 234.595C572.19 234.595 522.786 283.998 522.786 344.94C522.786 405.882 572.19 455.285 633.132 455.285C694.073 455.285 743.477 405.882 743.477 344.94Z" fill="#43AEFF"/>
<path d="M455.584 134.77C455.584 126.174 448.615 119.206 440.019 119.206C431.423 119.206 424.455 126.174 424.455 134.77C424.455 143.366 431.423 150.335 440.019 150.335C448.615 150.335 455.584 143.366 455.584 134.77Z" fill="#DC7CD1"/>
<path d="M691.838 628.519C691.838 613.581 679.729 601.472 664.791 601.472C649.854 601.472 637.744 613.581 637.744 628.519C637.744 643.456 649.854 655.566 664.791 655.566C679.729 655.566 691.838 643.456 691.838 628.519Z" fill="#DC7CD1"/>
<path style="mix-blend-mode:screen" opacity="0.8" d="M664.791 344.94C664.791 308.027 634.867 278.103 597.954 278.103C561.04 278.103 531.116 308.027 531.116 344.94C531.116 381.854 561.04 411.778 597.954 411.778C634.867 411.778 664.791 381.854 664.791 344.94Z" fill="url(#paint1_linear_11_742)"/>
<path d="M253.08 301.997C276.808 301.997 296.023 321.245 296.023 344.94C296.023 368.635 276.775 387.884 253.08 387.884C229.385 387.884 210.137 368.635 210.137 344.94C210.137 321.245 229.385 301.997 253.08 301.997ZM107.325 344.94C107.325 360.073 119.604 372.352 134.737 372.352C149.87 372.352 162.149 360.073 162.149 344.94C162.149 329.807 149.87 317.528 134.737 317.528C119.604 317.528 107.325 329.807 107.325 344.94ZM38.0649 344.94C38.0649 350.847 42.877 355.659 48.7841 355.659C54.6913 355.659 59.5034 350.847 59.5034 344.94C59.5034 339.033 54.6913 334.221 48.7841 334.221C42.877 334.221 38.0649 339.033 38.0649 344.94ZM2.86405e-05 344.94C2.88987e-05 350.847 4.81207 355.659 10.7193 355.659C16.6265 355.659 21.4385 350.847 21.4385 344.94C21.4385 339.033 16.6265 334.221 10.7193 334.221C4.81207 334.221 2.83823e-05 339.033 2.86405e-05 344.94ZM970.24 344.94C970.24 360.073 982.519 372.352 997.652 372.352C1012.78 372.352 1025.06 360.073 1025.06 344.94C1025.06 329.807 1012.78 317.528 997.652 317.528C982.519 317.528 970.24 329.807 970.24 344.94ZM1167.67 344.94C1167.67 360.073 1179.95 372.352 1195.08 372.352C1210.21 372.352 1222.49 360.073 1222.49 344.94C1222.49 329.807 1210.21 317.528 1195.08 317.528C1179.95 317.528 1167.67 329.807 1167.67 344.94ZM1123.33 344.94C1123.33 350.847 1128.14 355.659 1134.05 355.659C1139.96 355.659 1144.77 350.847 1144.77 344.94C1144.77 339.033 1139.96 334.221 1134.05 334.221C1128.14 334.221 1123.33 339.033 1123.33 344.94ZM1085.26 344.94C1085.26 350.847 1090.08 355.659 1095.98 355.659C1101.89 355.659 1106.7 350.847 1106.7 344.94C1106.7 339.033 1101.89 334.221 1095.98 334.221C1090.08 334.221 1085.26 339.033 1085.26 344.94Z" fill="url(#paint2_linear_11_742)"/>
<path d="M997.652 27.6443C997.652 13.2932 986.018 1.6593 971.667 1.6593C957.316 1.65931 945.682 13.2932 945.682 27.6443C945.682 41.9954 957.316 53.6293 971.667 53.6293C986.018 53.6293 997.652 41.9954 997.652 27.6443Z" stroke="url(#paint3_linear_11_742)" stroke-miterlimit="10"/>
<path d="M349.586 635.952C349.586 594.732 316.17 561.316 274.95 561.316C233.729 561.316 200.314 594.732 200.314 635.952C200.314 677.173 233.729 710.589 274.95 710.589C316.17 710.589 349.586 677.173 349.586 635.952Z" stroke="url(#paint4_linear_11_742)" stroke-miterlimit="10"/>
</g>
<defs>
<linearGradient id="paint0_linear_11_742" x1="633.132" y1="630.178" x2="633.132" y2="59.7357" gradientUnits="userSpaceOnUse">
<stop stop-color="#CECECE" stop-opacity="0.3"/>
<stop offset="1" stop-color="#CECECE"/>
</linearGradient>
<linearGradient id="paint1_linear_11_742" x1="550.696" y1="297.683" x2="645.211" y2="392.198" gradientUnits="userSpaceOnUse">
<stop stop-color="#FE889C"/>
<stop offset="0.41" stop-color="#DC7ED1"/>
<stop offset="0.72" stop-color="#9E92E4"/>
<stop offset="1" stop-color="#43AEFF"/>
</linearGradient>
<linearGradient id="paint2_linear_11_742" x1="153.653" y1="75.9307" x2="1074.98" y2="607.843" gradientUnits="userSpaceOnUse">
<stop stop-color="#FE889C"/>
<stop offset="0.42" stop-color="#DC7ED1"/>
<stop offset="0.78" stop-color="#9E92E4"/>
<stop offset="1" stop-color="#43AEFF"/>
</linearGradient>
<linearGradient id="paint3_linear_11_742" x1="971.667" y1="55.3218" x2="971.667" y2="-1.76462e-05" gradientUnits="userSpaceOnUse">
<stop stop-color="#FE889C"/>
<stop offset="0.42" stop-color="#DC7ED1"/>
<stop offset="0.78" stop-color="#9E92E4"/>
<stop offset="1" stop-color="#43AEFF"/>
</linearGradient>
<linearGradient id="paint4_linear_11_742" x1="274.95" y1="712.248" x2="274.95" y2="559.69" gradientUnits="userSpaceOnUse">
<stop stop-color="#FE889C"/>
<stop offset="0.42" stop-color="#DC7ED1"/>
<stop offset="0.78" stop-color="#9E92E4"/>
<stop offset="1" stop-color="#43AEFF"/>
</linearGradient>
<clipPath id="clip0_11_742">
<rect width="712.248" height="1222.52" fill="white" transform="translate(3.05176e-05 712.248) rotate(-90)"/>
</clipPath>
</defs>
</svg>
